# Alias OBJ Model File
# Exported from SketchUp, (c) 2000-2012 Trimble Navigation Limited
# File units = meters

mtllib 11121.mtl

g Mesh1 G_1F_Office Model

usemtl FrontColor
v 7.52458 0 -4.8406
vt 70.2362 0
vn 1 0 -0
v 7.52458 2.064 -3.0566
vt 0 81.2598
v 7.52458 0 -3.0566
vt 0 0
f 1/1/1 2/2/1 3/3/1

v 7.52458 2.064 -4.8406
vt 70.2362 81.2598
f 2/2/1 1/1/1 4/4/1

vt -73.8976 0
vn 0 0 -1
v 5.64758 2.064 -4.8406
vt -73.8976 81.2598
f 1/5/2 5/2/2 4/6/2

v 5.64758 0 -4.8406
f 5/2/2 1/5/2 6/3/2

vt -73.8976 70.2362
vn 0 -1 -0
v 5.64758 0 -3.0566
vt 0 70.2362
f 1/7/3 7/3/3 6/8/3

f 7/3/3 1/7/3 3/5/3

vt 73.8976 81.2598
vn 0 0 1
vt 73.8976 0
f 2/9/4 7/3/4 3/10/4

v 5.64758 2.064 -3.0566
f 7/3/4 2/9/4 8/2/4

vn 0 1 -0
f 2/10/5 5/8/5 8/3/5

vt 73.8976 70.2362
f 5/8/5 2/10/5 4/11/5

vt -70.2362 81.2598
vn -1 0 -0
f 5/12/6 7/3/6 8/2/6

vt -70.2362 0
f 7/3/6 5/12/6 6/13/6

g Mesh2 G_1F_Office Model

l 4 5

l 1 4

l 3 1

l 7 3

l 7 8

l 6 7

l 6 5

l 1 6

l 5 8

l 8 2

l 2 4

l 3 2

g Mesh3 DR G_1F_Office2 Model

v 8.55552 0 -3.0566
vt 25.5118 0
v 7.90752 1.187 -3.0566
vt 0 46.7323
v 7.90752 0 -3.0566
f 9/14/4 10/15/4 11/3/4

v 8.55552 1.187 -3.0566
vt 25.5118 46.7323
f 10/15/4 9/14/4 12/16/4

g Mesh4 DR G_1F_Office2 Model

l 11 9

l 10 11

l 12 10

l 9 12

g Mesh5 G_1F_Office2 Model

v 9.40158 0 -4.8406
v 9.40158 2.064 -3.0566
v 9.40158 0 -3.0566
f 13/1/1 14/2/1 15/3/1

v 9.40158 2.064 -4.8406
f 14/2/1 13/1/1 16/4/1

f 13/5/2 4/2/2 16/6/2

f 4/2/2 13/5/2 1/3/2

f 13/7/3 3/3/3 1/8/3

f 3/3/3 13/7/3 15/5/3

f 3/3/6 4/12/6 1/13/6

f 4/12/6 3/3/6 2/2/6

vt 15.0765 46.7323
f 3/3/4 10/17/4 2/2/4

vt 15.0765 0
f 10/17/4 3/3/4 11/18/4

f 2/2/4 10/17/4 14/9/4

vt 40.5883 46.7323
f 12/19/4 14/9/4 10/17/4

vt 40.5883 0
f 9/20/4 14/9/4 12/19/4

f 14/9/4 9/20/4 15/10/4

f 14/10/5 4/8/5 2/3/5

f 4/8/5 14/10/5 16/11/5

g Mesh6 G_1F_Office2 Model

l 16 4

l 13 16

l 15 13

l 15 14

l 3 15

l 3 2

l 1 3

l 1 4

l 13 1

l 4 2

l 2 14

l 14 16

g Mesh7 GWL G_1F_Office3 Model

v 11.2786 0 -3.9486
vt 35.1181 0
v 11.2786 0.880092 -3.0566
vt 0 34.6493
v 11.2786 0 -3.0566
f 17/21/1 18/22/1 19/3/1

g Mesh8 GWL G_1F_Office3 Model

l 19 18

l 19 17

l 18 17

g Mesh9 GWL1 G_1F_Office3 Model

vt 44.7082 34.6493
v 10.143 0 -3.0566
vt 44.7082 0
f 18/23/4 20/3/4 19/24/4

g Mesh10 GWL1 G_1F_Office3 Model

l 19 18

l 20 19

l 20 18

g Mesh11 GWL2 G_1F_Office3 Model

v 9.40158 0.639067 -4.8406
vt 0 25.1601
v 11.2786 0 -4.8406
v 9.40158 0 -4.8406
f 21/25/2 22/5/2 23/3/2

v 11.2786 0.639067 -4.8406
vt -73.8976 25.1601
f 22/5/2 21/25/2 24/26/2

g Mesh12 GWL2 G_1F_Office3 Model

l 22 24

l 22 23

l 23 21

l 24 21

g Mesh13 GWL3 G_1F_Office3 Model

vt 25.1601 25.1601
v 11.2786 0 -4.20153
vt 25.1601 0
f 24/27/1 25/3/1 22/28/1

g Mesh14 GWL3 G_1F_Office3 Model

l 22 24

l 25 22

l 25 24

g Mesh15 G_1F_Office3 Model

v 11.2786 2.064 -3.0566
f 17/21/1 26/2/1 18/22/1

v 11.2786 2.064 -4.8406
f 26/2/1 17/21/1 27/4/1

vt 45.0761 0
f 27/4/1 17/21/1 25/29/1

vt -73.8976 45.0761
vt -73.8976 35.1181
f 19/5/3 25/30/3 17/31/3

f 19/5/3 22/7/3 25/30/3

vt -29.1894 0
f 20/32/3 22/7/3 19/5/3

v 9.40158 0 -3.0566
f 28/3/3 22/7/3 20/32/3

f 22/7/3 28/3/3 23/8/3

v 9.40158 2.064 -4.8406
f 28/3/6 29/12/6 23/13/6

v 9.40158 2.064 -3.0566
f 29/12/6 28/3/6 30/2/6

vt 73.8976 34.6493
f 28/3/4 18/33/4 30/2/4

vt 29.1894 0
f 18/33/4 28/3/4 20/34/4

f 30/2/4 18/33/4 26/9/4

f 26/10/5 29/8/5 30/3/5

f 29/8/5 26/10/5 27/11/5

f 24/26/2 29/2/2 27/6/2

f 29/2/2 24/26/2 21/25/2

vt -70.2362 25.1601
f 23/13/6 29/12/6 21/35/6

vt 70.2362 25.1601
f 27/4/1 25/29/1 24/36/1

g Mesh16 G_1F_Office3 Model

l 27 29

l 26 27

l 30 26

l 28 30

l 28 20

l 23 28

l 23 21

l 22 23

l 25 22

l 17 25

l 19 17

l 20 19

l 20 18

l 18 26

l 18 17

l 25 24

l 24 27

l 24 21

l 21 29

l 29 30

g Mesh17 G_2F_Office4 Model

v 7.52458 4.128 -3.0566
f 4/1/1 31/2/1 2/3/1

v 7.52458 4.128 -4.8406
f 31/2/1 4/1/1 32/4/1

v 5.64758 4.128 -4.8406
f 4/5/2 33/2/2 32/6/2

f 33/2/2 4/5/2 5/3/2

f 4/7/3 8/3/3 5/8/3

f 8/3/3 4/7/3 2/5/3

f 31/9/4 8/3/4 2/10/4

v 5.64758 4.128 -3.0566
f 8/3/4 31/9/4 34/2/4

f 31/10/5 33/8/5 34/3/5

f 33/8/5 31/10/5 32/11/5

f 33/12/6 8/3/6 34/2/6

f 8/3/6 33/12/6 5/13/6

g Mesh18 G_2F_Office4 Model

l 32 33

l 4 32

l 2 4

l 8 2

l 8 34

l 5 8

l 5 33

l 4 5

l 33 34

l 34 31

l 31 32

l 2 31

g Mesh19 G_2F_Office5 Model

v 9.40158 4.128 -3.0566
f 16/1/1 35/2/1 14/3/1

v 9.40158 4.128 -4.8406
f 35/2/1 16/1/1 36/4/1

f 16/5/2 32/2/2 36/6/2

f 32/2/2 16/5/2 4/3/2

f 16/7/3 2/3/3 4/8/3

f 2/3/3 16/7/3 14/5/3

f 35/9/4 2/3/4 14/10/4

f 2/3/4 35/9/4 31/2/4

f 35/10/5 32/8/5 31/3/5

f 32/8/5 35/10/5 36/11/5

f 32/12/6 2/3/6 31/2/6

f 2/3/6 32/12/6 4/13/6

g Mesh20 G_2F_Office5 Model

l 36 32

l 16 36

l 14 16

l 2 14

l 2 31

l 4 2

l 4 32

l 16 4

l 32 31

l 31 35

l 35 36

l 14 35

g Mesh21 CW G_2F_Meeting Model

v 10.3756 2.07144 -3.0566
vt 38.3465 0
v 9.40158 3.6474 -3.0566
vt 0 62.0459
v 9.40158 2.07144 -3.0566
f 37/37/4 38/38/4 39/3/4

v 10.3756 3.6474 -3.0566
vt 38.3465 62.0459
f 38/38/4 37/37/4 40/39/4

g Mesh22 CW G_2F_Meeting Model

l 37 39

l 40 37

l 38 40

l 39 38

g Mesh23 G_2F_Meeting Model

v 11.2786 4.128 -3.0566
f 27/1/1 41/2/1 26/3/1

v 11.2786 4.128 -4.8406
f 41/2/1 27/1/1 42/4/1

v 9.40158 4.128 -4.8406
f 27/5/2 43/2/2 42/6/2

f 43/2/2 27/5/2 29/3/2

f 27/7/3 30/3/3 29/8/3

f 30/3/3 27/7/3 26/5/3

vt 38.3465 0.292833
f 26/10/4 37/40/4 30/3/4

f 37/40/4 26/10/4 41/9/4

vt 38.3465 62.3387
f 37/40/4 41/9/4 40/41/4

vt 0 62.3387
f 40/41/4 41/9/4 38/42/4

v 9.40158 4.128 -3.0566
f 38/42/4 41/9/4 44/2/4

f 41/10/5 43/8/5 44/3/5

f 43/8/5 41/10/5 42/11/5

f 43/12/6 30/3/6 44/2/6

f 30/3/6 43/12/6 29/13/6

vt 0 0.292833
f 39/43/4 30/3/4 37/40/4

g Mesh24 G_2F_Meeting Model

l 42 43

l 27 42

l 26 27

l 30 26

l 29 30

l 29 43

l 27 29

l 43 44

l 44 41

l 30 44

l 41 42

l 26 41

