# Alias OBJ Model File
# Exported from SketchUp, (c) 2000-2012 Trimble Navigation Limited
# File units = meters

mtllib 화곡동_리모델링전_new_V3_최종_V2.mtl

g Mesh1 Group1 Model

usemtl FrontColor
v 78.3504 4.4 -79.9038
vt 34.8425 35.4331
vn 0 1 -0
v 79.2354 4.4 -75.7038
vt -2.72848e-12 200.787
v 79.2354 4.4 -79.9038
vt -2.72848e-12 35.4331
f 1/1/1 2/2/1 3/3/1

v 78.3504 4.4 -75.7038
vt 34.8425 200.787
f 2/2/1 1/1/1 4/4/1

v 78.3504 4.4 -80.8038
vt 34.8425 0
f 4/4/1 1/1/1 5/5/1

vt -35.4331 173.228
vn 1 0 2.65413e-15
v 78.3504 1.15506e-14 -80.8038
vt 0 0
vt 0 173.228
f 1/6/2 6/7/2 5/8/2

v 78.3504 1.15506e-14 -79.9038
vt -35.4331 0
f 6/7/2 1/6/2 7/9/2

v 78.4217 0.0689449 -79.9038
vt 32.0345 2.71436
vn 2.65413e-15 0 -1
vt 34.8425 173.228
f 8/10/3 7/5/3 1/11/3

v 79.2354 1.15506e-14 -79.9038
vt -2.72848e-12 0
f 7/5/3 8/10/3 9/12/3

v 79.2067 0.0689449 -79.9038
vt 1.12903 2.71436
f 10/13/3 9/12/3 8/10/3

vt -2.72848e-12 173.228
f 9/12/3 10/13/3 3/14/3

v 79.2067 2.41894 -79.9038
vt 1.12903 95.234
f 3/14/3 10/13/3 11/15/3

vn 0 0 -1
v 78.4217 2.41894 -79.9038
vt 32.0345 95.234
f 10/13/4 12/16/4 11/15/4

f 12/16/4 10/13/4 8/10/4

f 8/10/3 1/11/3 12/16/3

f 12/16/3 1/11/3 11/15/3

f 3/14/3 11/15/3 1/11/3

v 79.2354 2.40489 -79.8703
vt -36.7519 94.6806
f 3/6/2 13/17/2 9/9/2

vt -200.787 173.228
f 13/17/2 3/6/2 2/18/2

v 79.2354 2.40489 -78.6703
vt -83.996 94.6806
f 13/17/2 2/18/2 14/19/2

v 79.2354 2.40489 -76.9703
vt -150.925 94.6806
f 14/19/2 2/18/2 15/20/2

v 79.2354 2.40489 -75.7703
vt -198.169 94.6806
f 15/20/2 2/18/2 16/21/2

v 79.2354 0.0548865 -75.7703
vt -198.169 2.16088
f 16/21/2 2/18/2 17/22/2

v 79.2354 1.15506e-14 -75.7038
vt -200.787 0
f 18/23/2 17/22/2 2/18/2

v 79.2354 0.0548865 -76.9703
vt -150.925 2.16088
f 18/23/2 19/24/2 17/22/2

v 79.2354 0.0548865 -77.8203
vt -117.461 2.16088
f 18/23/2 20/25/2 19/24/2

v 79.2354 0.0548865 -78.6703
vt -83.996 2.16088
f 18/23/2 21/26/2 20/25/2

v 79.2354 0.0548865 -79.8703
vt -36.7519 2.16088
f 18/23/2 22/27/2 21/26/2

f 9/9/2 22/27/2 18/23/2

f 22/27/2 9/9/2 13/17/2

vn 1 -2.55679e-31 9.62549e-15
f 14/19/5 22/27/5 13/17/5

f 22/27/5 14/19/5 21/26/5

vn 1 0 -0
f 15/20/6 21/26/6 14/19/6

f 21/26/6 15/20/6 20/25/6

f 20/25/6 15/20/6 19/24/6

vn 1 4.91514e-15 9.62549e-15
f 16/21/7 19/24/7 15/20/7

f 19/24/7 16/21/7 17/22/7

v 78.3504 1.15506e-14 -75.7038
vt -34.8425 200.787
vn -0 -1 -0
vt 2.72848e-12 35.4331
vt 2.72848e-12 200.787
f 23/28/8 9/29/8 18/30/8

vt -34.8425 35.4331
f 9/29/8 23/28/8 7/31/8

v 78.3504 1.15506e-14 -72.6038
vt -34.8425 322.835
f 7/31/8 23/28/8 24/32/8

v 78.3504 0.872242 -74.8805
vt -233.2 34.3402
vt -322.835 0
f 23/23/2 25/33/2 24/34/2

v 78.3504 2.17224 -74.8805
vt -233.2 85.5213
f 25/33/2 23/23/2 26/35/2

f 4/18/2 26/35/2 23/23/2

v 78.3504 4.4 -72.6038
vt -322.835 173.228
f 26/35/2 4/18/2 27/36/2

vt 34.8425 322.835
f 4/4/1 5/5/1 27/37/1

v 73.1504 4.4 -80.8038
vt 239.567 0
f 27/37/1 5/5/1 28/38/1

v 77.5531 2.89238 -80.8038
vt 66.2318 113.873
vt 239.567 173.228
f 5/11/3 29/39/3 28/40/3

v 77.5531 1.59238 -80.8038
vt 66.2318 62.6922
f 5/11/3 30/41/3 29/39/3

f 6/5/3 30/41/3 5/11/3

v 73.7521 1.59238 -80.8038
vt 215.877 62.6922
f 30/41/3 6/5/3 31/42/3

v 73.1504 1.15506e-14 -80.8038
f 32/38/3 31/42/3 6/5/3

f 31/42/3 32/38/3 28/40/3

v 73.1504 1.15506e-14 -72.6038
vt 322.835 0
vn -1 0 -2.65413e-15
f 33/43/9 28/8/9 32/7/9

v 73.1504 4.4 -72.6038
vt 322.835 173.228
f 28/8/9 33/43/9 34/44/9

vt -239.567 0
vn -2.65413e-15 0 1
v 76.4529 0.0273592 -72.6038
vt -109.548 1.07713
vt -239.567 173.228
f 33/45/10 35/46/10 34/47/10

v 78.0329 0.0273592 -72.6038
vt -47.343 1.07713
f 35/46/10 33/45/10 36/48/10

vt -34.8425 0
f 24/49/10 36/48/10 33/45/10

vt -34.8425 173.228
f 36/48/10 24/49/10 27/50/10

v 78.3504 0.872242 -73.3805
vt -292.255 34.3402
f 24/34/2 37/51/2 27/36/2

f 24/34/2 25/33/2 37/51/2

v 78.3504 2.17224 -73.3805
vt -292.255 85.5213
f 25/33/2 38/52/2 37/51/2

f 38/52/2 25/33/2 26/35/2

f 26/35/2 27/36/2 38/52/2

f 38/52/2 27/36/2 37/51/2

v 78.0329 2.15736 -72.6038
vt -47.343 84.9354
f 36/48/10 27/50/10 39/53/10

v 76.4529 2.15736 -72.6038
vt -109.548 84.9354
f 39/53/10 27/50/10 40/54/10

f 34/47/10 40/54/10 27/50/10

f 34/47/10 35/46/10 40/54/10

f 35/46/10 39/53/10 40/54/10

f 39/53/10 35/46/10 36/48/10

vt 239.567 322.835
f 27/37/1 28/38/1 34/55/1

vt -239.567 322.835
f 6/49/8 24/32/8 33/56/8

f 7/31/8 24/32/8 6/49/8

f 6/49/8 33/56/8 32/45/8

v 73.7521 2.89238 -80.8038
vt 215.877 113.873
f 31/42/3 28/40/3 41/57/3

v 75.2521 2.89238 -80.8038
vt 156.822 113.873
f 41/57/3 28/40/3 42/58/3

v 76.0531 2.89238 -80.8038
vt 125.287 113.873
f 42/58/3 28/40/3 43/59/3

f 43/59/3 28/40/3 29/39/3

f 30/41/3 43/59/3 29/39/3

v 76.0531 1.59238 -80.8038
vt 125.287 62.6922
f 43/59/3 30/41/3 44/60/3

v 75.2521 1.59238 -80.8038
vt 156.822 62.6922
f 30/41/3 45/61/3 44/60/3

f 30/41/3 31/42/3 45/61/3

f 41/57/3 45/61/3 31/42/3

f 45/61/3 41/57/3 42/58/3

f 42/58/3 44/60/3 45/61/3

f 44/60/3 42/58/3 43/59/3

v 78.4159 0.0656719 -75.7038
vt -32.2628 2.58551
f 23/49/10 46/62/10 4/50/10

v 79.2009 0.0656719 -75.7038
vt -1.35734 2.58551
f 46/62/10 23/49/10 47/63/10

vt 2.72848e-12 0
f 18/64/10 47/63/10 23/49/10

vt 2.72848e-12 173.228
f 47/63/10 18/64/10 2/65/10

v 79.2009 2.41567 -75.7038
vt -1.35734 95.1052
f 47/63/10 2/65/10 48/66/10

v 78.4159 2.41567 -75.7038
vt -32.2628 95.1052
f 48/66/10 2/65/10 49/67/10

f 4/50/10 49/67/10 2/65/10

f 4/50/10 46/62/10 49/67/10

vn 0 0 1
f 46/62/11 48/66/11 49/67/11

f 48/66/11 46/62/11 47/63/11

g Mesh2 Group1 Model

l 9 7

l 18 9

l 23 18

l 24 23

l 33 24

l 33 34

l 33 32

l 6 32

l 7 6

l 7 1

l 3 1

l 2 3

l 4 2

l 27 4

l 24 27

l 34 27

l 34 28

l 32 28

l 5 28

l 1 5

l 6 5

l 23 4

l 18 2

l 9 3

g Mesh3 Group1 Model

l 40 35

l 39 40

l 36 39

l 35 36

g Mesh4 Group1 Model

l 25 37

l 26 25

l 38 26

l 37 38

g Mesh5 Group1 Model

l 8 10

l 12 8

l 11 12

l 10 11

g Mesh6 Group1 Model

l 44 30

l 43 44

l 29 43

l 30 29

g Mesh7 Group1 Model

l 41 31

l 42 41

l 45 42

l 31 45

g Mesh8 Group1 Model

l 17 16

l 19 17

l 20 19

l 21 20

l 22 21

l 13 22

l 14 13

l 15 14

l 16 15

l 19 15

l 21 14

g Mesh9 Group1 Model

l 47 48

l 46 47

l 49 46

l 48 49

g Mesh10 Group2 Model

v 70.7504 7.6 -72.6038
vt -177.165 275.591
v 75.2504 7.6 -75.4038
vt 0 165.354
v 75.2504 7.6 -72.6038
vt 0 275.591
f 50/68/8 51/69/8 52/70/8

v 73.1504 7.6 -75.4038
vt -82.6772 165.354
f 51/69/8 50/68/8 53/71/8

v 73.1504 7.6 -79.6038
vt -82.6772 0
f 53/71/8 50/68/8 54/72/8

v 70.7504 7.6 -79.6038
vt -177.165 0
f 54/72/8 50/68/8 55/73/8

v 70.7504 7.66202 -75.0386
vt 179.731 2.44163
vt 275.591 0
f 56/74/9 55/7/9 50/75/9

v 70.7504 10.8 -79.6038
vt 0 125.984
f 55/7/9 56/74/9 57/76/9

v 70.7504 9.76202 -75.0386
vt 179.731 85.1188
f 58/77/9 57/76/9 56/74/9

v 70.7504 10.8 -72.6038
vt 275.591 125.984
f 57/76/9 58/77/9 59/78/9

v 70.7504 9.76202 -74.1386
vt 215.164 85.1188
f 59/78/9 58/77/9 60/79/9

v 70.7504 7.66202 -74.1386
vt 215.164 2.44163
f 58/77/9 61/80/9 60/79/9

f 61/80/9 58/77/9 56/74/9

f 56/74/9 50/75/9 61/80/9

f 61/80/9 50/75/9 60/79/9

f 59/78/9 60/79/9 50/75/9

v 75.2504 10.8 -72.6038
vt -177.165 125.984
f 50/73/10 62/76/10 59/81/10

f 62/76/10 50/73/10 52/7/10

vt -165.354 0
vt -275.591 125.984
vt -275.591 0
f 51/82/2 62/83/2 52/84/2

v 75.2504 10.8 -75.4038
vt -165.354 125.984
f 62/83/2 51/82/2 63/85/2

v 73.1504 10.8 -75.4038
vt 82.6772 125.984
f 51/7/3 64/86/3 63/76/3

vt 82.6772 0
f 64/86/3 51/7/3 53/87/3

f 54/7/2 64/85/2 53/82/2

v 73.1504 10.8 -79.6038
f 64/85/2 54/7/2 65/76/2

v 72.4965 7.61785 -79.6038
vt 108.422 0.702628
f 54/87/3 66/88/3 65/86/3

v 71.4965 7.61785 -79.6038
vt 147.792 0.702628
f 66/88/3 54/87/3 67/89/3

vt 177.165 0
f 55/90/3 67/89/3 54/87/3

vt 177.165 125.984
f 67/89/3 55/90/3 57/91/3

v 71.4965 8.91785 -79.6038
vt 147.792 51.8837
f 67/89/3 57/91/3 68/92/3

v 72.4965 8.91785 -79.6038
vt 108.422 51.8837
f 68/92/3 57/91/3 69/93/3

v 71.4971 10.5413 -79.6038
vt 147.768 115.798
f 69/93/3 57/91/3 70/94/3

v 71.4971 10.7913 -79.6038
vt 147.768 125.641
f 70/94/3 57/91/3 71/95/3

v 72.4971 10.7913 -79.6038
vt 108.398 125.641
f 71/95/3 57/91/3 72/96/3

f 65/86/3 72/96/3 57/91/3

v 72.4971 10.5413 -79.6038
vt 108.398 115.798
f 65/86/3 73/97/3 72/96/3

f 65/86/3 69/93/3 73/97/3

f 65/86/3 66/88/3 69/93/3

f 66/88/3 68/92/3 69/93/3

f 68/92/3 66/88/3 67/89/3

f 73/97/3 69/93/3 70/94/3

f 71/95/3 73/97/3 70/94/3

f 73/97/3 71/95/3 72/96/3

vt 82.6772 165.354
f 57/90/1 64/98/1 65/87/1

vt 177.165 275.591
f 59/99/1 64/98/1 57/90/1

f 62/70/1 64/98/1 59/99/1

f 64/98/1 62/70/1 63/69/1

g Mesh11 Group2 Model

l 52 50

l 51 52

l 53 51

l 54 53

l 54 55

l 54 65

l 65 57

l 65 64

l 53 64

l 64 63

l 51 63

l 63 62

l 62 59

l 52 62

l 50 59

l 50 55

l 55 57

l 59 57

g Mesh12 Group2 Model

l 60 58

l 61 60

l 56 61

l 58 56

g Mesh13 Group2 Model

l 67 66

l 68 67

l 69 68

l 66 69

g Mesh14 Group2 Model

l 72 71

l 73 72

l 70 73

l 71 70

g Mesh15 Group3 Model

v 70.7504 7.6 -69.9038
v 68.1504 4.4 -69.9038
vt -102.362 0
v 70.7504 4.4 -69.9038
f 74/76/10 75/100/10 76/7/10

v 68.1504 7.6 -69.9038
vt -102.362 125.984
f 75/100/10 74/76/10 77/101/10

vt 0 106.299
v 68.1504 7.6 -72.6038
vt 102.362 0
vt 102.362 106.299
f 74/102/1 78/103/1 77/104/1

v 70.7504 7.6 -72.6038
f 78/103/1 74/102/1 79/7/1

vt -106.299 125.984
v 70.7504 4.4 -72.6038
f 74/105/2 80/7/2 79/76/2

vt -106.299 0
f 80/7/2 74/105/2 76/106/2

vt -102.362 106.299
f 75/107/8 80/7/8 76/102/8

v 68.1504 4.4 -72.6038
f 80/7/8 75/107/8 81/100/8

v 68.1504 5.31374 -72.1067
vt 19.5701 35.9739
vt 106.299 0
f 82/108/9 81/7/9 75/109/9

f 81/7/9 82/108/9 78/76/9

v 68.1504 6.61374 -72.1067
vt 19.5701 87.155
f 83/110/9 78/76/9 82/108/9

vt 106.299 125.984
f 78/76/9 83/110/9 77/111/9

v 68.1504 6.61374 -70.6067
vt 78.6252 87.155
f 77/111/9 83/110/9 84/112/9

v 68.1504 5.31374 -70.6067
vt 78.6252 35.9739
f 83/110/9 85/113/9 84/112/9

f 85/113/9 83/110/9 82/108/9

f 82/108/9 75/109/9 85/113/9

f 85/113/9 75/109/9 84/112/9

f 77/111/9 84/112/9 75/109/9

vt 102.362 125.984
f 78/114/3 80/7/3 81/103/3

f 80/7/3 78/114/3 79/76/3

g Mesh16 Group3 Model

l 81 78

l 81 75

l 80 81

l 80 76

l 80 79

l 79 74

l 79 78

l 78 77

l 74 77

l 76 74

l 76 75

l 75 77

g Mesh17 Group3 Model

l 84 85

l 83 84

l 82 83

l 85 82

g Mesh18 Group4 Model

v 70.7504 7.6 -65.5038
v 68.1504 4.4 -65.5038
v 70.7504 4.4 -65.5038
f 86/76/10 87/100/10 88/7/10

v 68.1504 7.6 -65.5038
f 87/100/10 86/76/10 89/101/10

v 68.1504 7.6 -69.9038
vt 102.362 173.228
f 86/8/1 90/103/1 89/115/1

v 70.7504 7.6 -69.9038
f 90/103/1 86/8/1 91/7/1

vt -173.228 125.984
v 70.7504 4.4 -69.9038
f 86/116/2 92/7/2 91/76/2

vt -173.228 0
f 92/7/2 86/116/2 88/117/2

vt -102.362 173.228
f 87/118/8 92/7/8 88/8/8

v 68.1504 4.4 -69.9038
f 92/7/8 87/118/8 93/100/8

v 68.1504 5.31374 -69.4736
vt 16.9339 35.9739
vt 173.228 0
f 94/119/9 93/7/9 87/120/9

f 93/7/9 94/119/9 90/76/9

v 68.1504 6.61374 -69.4736
vt 16.9339 87.155
f 95/121/9 90/76/9 94/119/9

vt 173.228 125.984
f 90/76/9 95/121/9 89/122/9

v 68.1504 6.61374 -67.9736
vt 75.989 87.155
f 89/122/9 95/121/9 96/123/9

v 68.1504 5.31374 -67.9736
vt 75.989 35.9739
f 95/121/9 97/124/9 96/123/9

f 97/124/9 95/121/9 94/119/9

f 94/119/9 87/120/9 97/124/9

v 68.1504 5.30494 -67.4909
vt 94.9947 35.6274
f 97/124/9 87/120/9 98/125/9

v 68.1504 5.30494 -65.9909
vt 154.05 35.6274
f 98/125/9 87/120/9 99/126/9

v 68.1504 6.60494 -65.9909
vt 154.05 86.8085
f 99/126/9 87/120/9 100/127/9

f 89/122/9 100/127/9 87/120/9

v 68.1504 6.60494 -67.4909
vt 94.9947 86.8085
f 89/122/9 101/128/9 100/127/9

f 89/122/9 96/123/9 101/128/9

f 101/128/9 96/123/9 98/125/9

f 97/124/9 98/125/9 96/123/9

f 99/126/9 101/128/9 98/125/9

f 101/128/9 99/126/9 100/127/9

f 90/114/3 92/7/3 93/103/3

f 92/7/3 90/114/3 91/76/3

g Mesh19 Group4 Model

l 92 93

l 88 92

l 87 88

l 93 87

l 93 90

l 90 89

l 91 90

l 92 91

l 86 91

l 88 86

l 89 86

l 87 89

g Mesh20 Group4 Model

l 94 95

l 97 94

l 96 97

l 95 96

g Mesh21 Group4 Model

l 100 99

l 101 100

l 98 101

l 99 98

g Mesh22 Group5 Model

v 73.1504 4.4 -72.6038
vt -204.724 322.835
v 78.3504 4.4 -80.8038
v 78.3504 4.4 -72.6038
vt 0 322.835
f 102/129/8 103/7/8 104/130/8

v 73.1504 4.4 -80.8038
vt -204.724 0
f 103/7/8 102/129/8 105/131/8

v 73.1504 7.6 -80.8038
f 102/43/9 106/76/9 105/7/9

v 73.1504 7.6 -72.6038
vt 322.835 125.984
f 106/76/9 102/43/9 107/132/9

v 78.3504 7.6 -72.6038
vt -204.724 125.984
f 102/131/10 108/76/10 107/133/10

f 108/76/10 102/131/10 104/7/10

v 78.3504 5.39595 -73.3805
vt -292.255 39.2107
vt -322.835 125.984
f 104/34/2 109/134/2 108/135/2

v 78.3504 5.39595 -74.8805
vt -233.2 39.2107
f 104/34/2 110/136/2 109/134/2

v 78.3504 5.39595 -76.4556
vt -171.187 39.2107
f 104/34/2 111/137/2 110/136/2

v 78.3504 5.39595 -78.8556
vt -76.6986 39.2107
f 104/34/2 112/138/2 111/137/2

f 103/7/2 112/138/2 104/34/2

v 78.3504 6.69595 -78.8556
vt -76.6986 90.3918
f 112/138/2 103/7/2 113/139/2

v 78.3504 7.6 -80.8038
f 114/76/2 113/139/2 103/7/2

f 113/139/2 114/76/2 108/135/2

vt 204.724 0
f 106/140/1 108/130/1 114/7/1

vt 204.724 322.835
f 108/130/1 106/140/1 107/141/1

v 77.5531 6.83338 -80.8038
vt 31.3893 95.8025
vt 204.724 125.984
f 114/76/3 115/142/3 106/143/3

v 77.5531 5.53338 -80.8038
vt 31.3893 44.6214
f 114/76/3 116/144/3 115/142/3

f 103/7/3 116/144/3 114/76/3

v 73.7521 5.53338 -80.8038
vt 181.035 44.6214
f 116/144/3 103/7/3 117/145/3

f 105/140/3 117/145/3 103/7/3

f 117/145/3 105/140/3 106/143/3

v 73.7521 6.83338 -80.8038
vt 181.035 95.8025
f 117/145/3 106/143/3 118/146/3

v 75.2521 6.83338 -80.8038
vt 121.98 95.8025
f 118/146/3 106/143/3 119/147/3

v 76.0531 6.83338 -80.8038
vt 90.4444 95.8025
f 119/147/3 106/143/3 120/148/3

f 120/148/3 106/143/3 115/142/3

f 116/144/3 120/148/3 115/142/3

v 76.0531 5.53338 -80.8038
vt 90.4444 44.6214
f 120/148/3 116/144/3 121/149/3

v 75.2521 5.53338 -80.8038
vt 121.98 44.6214
f 116/144/3 122/150/3 121/149/3

f 116/144/3 117/145/3 122/150/3

f 118/146/3 122/150/3 117/145/3

f 122/150/3 118/146/3 119/147/3

f 119/147/3 121/149/3 122/150/3

f 121/149/3 119/147/3 120/148/3

v 78.3504 6.69595 -76.4556
vt -171.187 90.3918
f 113/139/2 108/135/2 123/151/2

v 78.3504 6.69595 -74.8805
vt -233.2 90.3918
f 123/151/2 108/135/2 124/152/2

v 78.3504 6.69595 -73.3805
vt -292.255 90.3918
f 124/152/2 108/135/2 125/153/2

f 125/153/2 108/135/2 109/134/2

f 110/136/2 125/153/2 109/134/2

f 125/153/2 110/136/2 124/152/2

f 110/136/2 111/137/2 124/152/2

f 123/151/2 124/152/2 111/137/2

f 112/138/2 123/151/2 111/137/2

f 123/151/2 112/138/2 113/139/2

g Mesh23 Group5 Model

l 103 105

l 104 103

l 102 104

l 102 105

l 102 107

l 107 108

l 107 106

l 114 106

l 108 114

l 104 108

l 103 114

l 105 106

g Mesh24 Group5 Model

l 116 115

l 121 116

l 120 121

l 115 120

g Mesh25 Group5 Model

l 122 119

l 117 122

l 118 117

l 119 118

g Mesh26 Group5 Model

l 111 123

l 112 111

l 113 112

l 123 113

g Mesh27 Group5 Model

l 109 125

l 110 109

l 124 110

l 125 124

g Mesh28 Group6 Model

v 73.1504 4.4 -69.9038
vt -204.724 106.299
v 78.3504 4.4 -72.6038
v 78.3504 4.4 -69.9038
f 126/154/8 127/7/8 128/102/8

v 73.1504 4.4 -72.6038
f 127/7/8 126/154/8 129/131/8

v 73.1504 7.6 -72.6038
f 126/109/9 130/76/9 129/7/9

v 73.1504 7.6 -69.9038
f 130/76/9 126/109/9 131/111/9

v 78.3504 7.6 -69.9038
f 126/131/10 132/76/10 131/133/10

f 132/76/10 126/131/10 128/7/10

v 78.3504 5.39595 -70.417
vt -86.0934 39.2107
f 128/106/2 133/155/2 132/105/2

v 78.3504 5.39595 -71.917
vt -27.0383 39.2107
f 128/106/2 134/156/2 133/155/2

f 127/7/2 134/156/2 128/106/2

v 78.3504 6.69595 -71.917
vt -27.0383 90.3918
f 134/156/2 127/7/2 135/157/2

v 78.3504 7.6 -72.6038
f 136/76/2 135/157/2 127/7/2

f 135/157/2 136/76/2 132/105/2

f 130/140/1 132/102/1 136/7/1

vt 204.724 106.299
f 132/102/1 130/140/1 131/158/1

f 127/7/3 130/143/3 136/76/3

f 130/143/3 127/7/3 129/140/3

v 78.3504 6.69595 -70.417
vt -86.0934 90.3918
f 135/157/2 132/105/2 137/159/2

f 137/159/2 132/105/2 133/155/2

f 134/156/2 137/159/2 133/155/2

f 137/159/2 134/156/2 135/157/2

g Mesh29 Group6 Model

l 129 127

l 126 129

l 126 128

l 126 131

l 131 132

l 131 130

l 130 136

l 129 130

l 132 136

l 128 132

l 128 127

l 127 136

g Mesh30 Group6 Model

l 137 135

l 133 137

l 134 133

l 135 134

g Mesh31 Group7 Model

v 73.1504 10.8 -80.8038
v 78.3504 10.8 -75.4038
vt 0 212.598
v 78.3504 10.8 -80.8038
f 138/140/1 139/160/1 140/7/1

v 73.1504 10.8 -75.4038
vt 204.724 212.598
f 139/160/1 138/140/1 141/161/1

v 73.1504 7.6 -75.4038
vt 212.598 0
vt 212.598 125.984
f 138/76/9 142/162/9 141/163/9

v 73.1504 7.6 -80.8038
f 142/162/9 138/76/9 143/7/9

v 73.7521 8.52134 -80.8038
vt 181.035 36.2732
f 144/164/3 143/140/3 138/143/3

f 143/140/3 144/164/3 114/7/3

v 77.5531 8.52134 -80.8038
vt 31.3893 36.2732
f 145/165/3 114/7/3 144/164/3

f 114/7/3 145/165/3 140/76/3

v 77.5531 9.82134 -80.8038
vt 31.3893 87.4543
f 140/76/3 145/165/3 146/166/3

v 76.0531 9.82134 -80.8038
vt 90.4444 87.4543
f 145/165/3 147/167/3 146/166/3

v 76.0531 8.52134 -80.8038
vt 90.4444 36.2732
f 147/167/3 145/165/3 148/168/3

v 75.2521 8.52134 -80.8038
vt 121.98 36.2732
f 145/165/3 149/169/3 148/168/3

f 145/165/3 144/164/3 149/169/3

v 73.7521 9.82134 -80.8038
vt 181.035 87.4543
f 150/170/3 149/169/3 144/164/3

v 75.2521 9.82134 -80.8038
vt 121.98 87.4543
f 149/169/3 150/170/3 151/171/3

f 150/170/3 138/143/3 151/171/3

f 144/164/3 138/143/3 150/170/3

f 151/171/3 138/143/3 147/167/3

f 147/167/3 138/143/3 146/166/3

f 140/76/3 146/166/3 138/143/3

f 148/168/3 151/171/3 147/167/3

f 151/171/3 148/168/3 149/169/3

v 78.3504 9.70766 -78.8556
vt -76.6986 82.9786
f 140/76/2 152/172/2 114/7/2

vt -212.598 125.984
f 152/172/2 140/76/2 139/173/2

v 78.3504 9.70766 -76.4556
vt -171.187 82.9786
f 152/172/2 139/173/2 153/174/2

v 78.3504 8.40766 -76.4556
vt -171.187 31.7975
f 153/174/2 139/173/2 154/175/2

v 78.3504 7.6 -75.4038
vt -212.598 0
f 155/176/2 154/175/2 139/173/2

v 78.3504 8.40766 -78.8556
vt -76.6986 31.7975
f 155/176/2 156/177/2 154/175/2

f 114/7/2 156/177/2 155/176/2

f 156/177/2 114/7/2 152/172/2

f 153/174/2 156/177/2 152/172/2

f 156/177/2 153/174/2 154/175/2

vt -204.724 212.598
f 142/178/8 114/7/8 155/160/8

f 114/7/8 142/178/8 143/131/8

f 139/76/10 142/131/10 155/7/10

f 142/131/10 139/76/10 141/133/10

g Mesh32 Group7 Model

l 155 142

l 155 139

l 155 114

l 114 140

l 114 143

l 143 138

l 142 143

l 142 141

l 141 138

l 139 141

l 139 140

l 140 138

g Mesh33 Group7 Model

l 148 145

l 147 148

l 146 147

l 145 146

g Mesh34 Group7 Model

l 149 151

l 144 149

l 150 144

l 151 150

g Mesh35 Group7 Model

l 154 153

l 156 154

l 152 156

l 153 152

g Mesh36 Group8 Model

v 70.7504 4.4 -67.5038
vt -94.4882 476.378
v 73.1504 4.4 -79.6038
v 73.1504 4.4 -67.5038
vt 0 476.378
f 157/179/8 158/7/8 159/180/8

v 70.7504 4.4 -79.6038
vt -94.4882 0
f 158/7/8 157/179/8 160/181/8

vt 476.378 0
v 70.7504 7.6 -79.6038
f 157/182/9 161/76/9 160/7/9

v 70.7504 7.6 -67.5038
vt 476.378 125.984
f 161/76/9 157/182/9 162/183/9

v 73.1504 7.6 -67.5038
vt -94.4882 125.984
f 157/181/10 163/76/10 162/184/10

f 163/76/10 157/181/10 159/7/10

vt -476.378 125.984
vt -476.378 0
f 158/7/2 163/185/2 159/186/2

v 73.1504 7.6 -79.6038
f 163/185/2 158/7/2 164/76/2

v 72.4965 4.41 -79.6038
vt 25.7445 0.393701
f 158/7/3 165/187/3 164/76/3

v 71.4965 4.41 -79.6038
vt 65.1146 0.393701
f 165/187/3 158/7/3 166/188/3

vt 94.4882 0
f 160/189/3 166/188/3 158/7/3

vt 94.4882 125.984
f 166/188/3 160/189/3 161/190/3

v 71.4965 5.71 -79.6038
vt 65.1146 51.5748
f 166/188/3 161/190/3 167/191/3

v 72.4965 5.71 -79.6038
vt 25.7445 51.5748
f 167/191/3 161/190/3 168/192/3

v 71.4965 7.337 -79.6038
vt 65.1146 115.63
f 168/192/3 161/190/3 169/193/3

v 71.4965 7.587 -79.6038
vt 65.1146 125.472
f 169/193/3 161/190/3 170/194/3

v 72.4965 7.587 -79.6038
vt 25.7445 125.472
f 170/194/3 161/190/3 171/195/3

f 164/76/3 171/195/3 161/190/3

v 72.4965 7.337 -79.6038
vt 25.7445 115.63
f 164/76/3 172/196/3 171/195/3

f 164/76/3 168/192/3 172/196/3

f 164/76/3 165/187/3 168/192/3

f 165/187/3 167/191/3 168/192/3

f 167/191/3 165/187/3 166/188/3

f 172/196/3 168/192/3 169/193/3

f 170/194/3 172/196/3 169/193/3

f 172/196/3 170/194/3 171/195/3

f 161/189/1 163/180/1 164/7/1

vt 94.4882 476.378
f 163/180/1 161/189/1 162/197/1

g Mesh37 Group8 Model

l 159 157

l 159 158

l 159 163

l 163 162

l 163 164

l 158 164

l 158 160

l 157 160

l 157 162

l 162 161

l 160 161

l 164 161

g Mesh38 Group8 Model

l 167 168

l 166 167

l 165 166

l 168 165

g Mesh39 Group8 Model

l 172 171

l 169 172

l 170 169

l 171 170

g Mesh40 Group9 Model

v 75.2504 10.8 -75.4038
vt 122.047 0
v 78.3504 10.8 -72.6038
vt 0 110.236
v 78.3504 10.8 -75.4038
f 173/198/1 174/199/1 175/7/1

v 75.2504 10.8 -72.6038
vt 122.047 110.236
f 174/199/1 173/198/1 176/200/1

v 75.2504 7.6 -72.6038
vt 110.236 0
vt 110.236 125.984
f 173/76/9 177/201/9 176/202/9

v 75.2504 7.6 -75.4038
f 177/201/9 173/76/9 178/7/9

vt 122.047 125.984
v 78.3504 7.6 -75.4038
f 173/203/3 179/7/3 178/198/3

f 179/7/3 173/203/3 175/76/3

v 78.3504 9.70766 -74.8805
vt -20.6013 82.9786
f 175/76/2 180/204/2 179/7/2

vt -110.236 125.984
f 180/204/2 175/76/2 174/205/2

v 78.3504 9.70766 -73.3805
vt -79.6564 82.9786
f 180/204/2 174/205/2 181/206/2

v 78.3504 8.40766 -73.3805
vt -79.6564 31.7975
f 181/206/2 174/205/2 182/207/2

v 78.3504 7.6 -72.6038
vt -110.236 0
f 183/208/2 182/207/2 174/205/2

v 78.3504 8.40766 -74.8805
vt -20.6013 31.7975
f 183/208/2 184/209/2 182/207/2

f 179/7/2 184/209/2 183/208/2

f 184/209/2 179/7/2 180/204/2

f 181/206/2 184/209/2 180/204/2

f 184/209/2 181/206/2 182/207/2

vt -122.047 110.236
f 177/210/8 179/7/8 183/199/8

vt -122.047 0
f 179/7/8 177/210/8 178/211/8

f 174/76/10 177/211/10 183/7/10

vt -122.047 125.984
f 177/211/10 174/76/10 176/212/10

g Mesh41 Group9 Model

l 183 174

l 183 179

l 183 177

l 177 176

l 178 177

l 178 173

l 178 179

l 179 175

l 174 175

l 174 176

l 173 176

l 173 175

g Mesh42 Group9 Model

l 182 181

l 184 182

l 180 184

l 181 180

g Mesh43 Group10 Model

v 73.1504 4.4 -65.5038
vt -204.724 173.228
v 78.3504 4.4 -69.9038
v 78.3504 4.4 -65.5038
f 185/213/8 186/7/8 187/8/8

v 73.1504 4.4 -69.9038
f 186/7/8 185/213/8 188/131/8

v 73.1504 7.6 -69.9038
f 185/120/9 189/76/9 188/7/9

v 73.1504 7.6 -65.5038
f 189/76/9 185/120/9 190/122/9

v 73.9663 5.38492 -65.5038
vt -172.601 38.7762
f 185/131/10 191/214/10 190/133/10

v 77.6323 5.38492 -65.5038
vt -28.2703 38.7762
f 191/214/10 185/131/10 192/215/10

f 187/7/10 192/215/10 185/131/10

v 78.3504 7.6 -65.5038
f 192/215/10 187/7/10 193/76/10

v 78.3504 5.39595 -66.8979
vt -118.341 39.2107
f 187/117/2 194/216/2 193/116/2

v 78.3504 5.39595 -68.3979
vt -59.2863 39.2107
f 187/117/2 195/217/2 194/216/2

f 186/7/2 195/217/2 187/117/2

v 78.3504 6.69595 -68.3979
vt -59.2863 90.3918
f 195/217/2 186/7/2 196/218/2

v 78.3504 7.6 -69.9038
f 197/76/2 196/218/2 186/7/2

f 196/218/2 197/76/2 193/116/2

f 189/140/1 193/8/1 197/7/1

vt 204.724 173.228
f 193/8/1 189/140/1 190/219/1

v 73.9663 6.68492 -65.5038
vt -172.601 89.9573
f 190/133/10 198/220/10 193/76/10

f 190/133/10 191/214/10 198/220/10

v 75.4663 6.68492 -65.5038
vt -113.546 89.9573
f 191/214/10 199/221/10 198/220/10

v 75.4663 5.38492 -65.5038
vt -113.546 38.7762
f 199/221/10 191/214/10 200/222/10

v 76.1323 5.38492 -65.5038
vt -87.3255 38.7762
f 191/214/10 201/223/10 200/222/10

f 191/214/10 192/215/10 201/223/10

v 77.6323 6.68492 -65.5038
vt -28.2703 89.9573
f 202/224/10 201/223/10 192/215/10

v 76.1323 6.68492 -65.5038
vt -87.3255 89.9573
f 201/223/10 202/224/10 203/225/10

f 202/224/10 193/76/10 203/225/10

f 192/215/10 193/76/10 202/224/10

f 203/225/10 193/76/10 199/221/10

f 199/221/10 193/76/10 198/220/10

f 200/222/10 203/225/10 199/221/10

f 203/225/10 200/222/10 201/223/10

f 186/7/3 189/143/3 197/76/3

f 189/143/3 186/7/3 188/140/3

v 78.3504 6.69595 -66.8979
vt -118.341 90.3918
f 196/218/2 193/116/2 204/226/2

f 204/226/2 193/116/2 194/216/2

f 195/217/2 204/226/2 194/216/2

f 204/226/2 195/217/2 196/218/2

g Mesh44 Group10 Model

l 188 189

l 185 188

l 185 187

l 185 190

l 190 193

l 190 189

l 189 197

l 193 197

l 187 193

l 187 186

l 188 186

l 186 197

g Mesh45 Group10 Model

l 196 195

l 204 196

l 194 204

l 195 194

g Mesh46 Group10 Model

l 191 198

l 200 191

l 199 200

l 198 199

g Mesh47 Group10 Model

l 201 203

l 192 201

l 202 192

l 203 202

g Mesh48 Group11 Model

v 68.1504 1.15506e-14 -72.6038
vt -196.85 275.591
v 70.7504 1.15506e-14 -75.4038
vt -94.4882 165.354
v 73.1504 1.15506e-14 -72.6038
vt -9.09495e-13 275.591
f 205/227/8 206/228/8 207/229/8

v 68.1504 1.15506e-14 -75.4038
vt -196.85 165.354
f 206/228/8 205/227/8 208/230/8

v 68.1504 1.7215 -74.4343
vt 203.523 67.7756
vt 165.354 0
f 209/231/9 208/232/9 205/75/9

v 68.1504 4.4 -75.4038
vt 165.354 173.228
f 208/232/9 209/231/9 210/233/9

v 68.1504 3.0215 -74.4343
vt 203.523 118.957
f 211/234/9 210/233/9 209/231/9

v 68.1504 4.4 -72.6038
vt 275.591 173.228
f 210/233/9 211/234/9 212/235/9

v 68.1504 3.0215 -73.4343
vt 242.893 118.957
f 212/235/9 211/234/9 213/236/9

v 68.1504 1.7215 -73.4343
vt 242.893 67.7756
f 211/234/9 214/237/9 213/236/9

f 214/237/9 211/234/9 209/231/9

f 209/231/9 205/75/9 214/237/9

f 214/237/9 205/75/9 213/236/9

f 212/235/9 213/236/9 205/75/9

vt -196.85 0
v 68.8891 0.056248 -72.6038
vt -167.768 2.21449
vt -196.85 173.228
f 205/238/10 215/239/10 212/240/10

v 69.6991 0.056248 -72.6038
vt -135.878 2.21449
f 215/239/10 205/238/10 216/241/10

v 72.87 0.0689088 -72.6038
vt -11.0389 2.71294
f 205/238/10 217/242/10 216/241/10

vt -9.09495e-13 0
f 207/243/10 217/242/10 205/238/10

v 73.1504 4.4 -72.6038
vt -9.09495e-13 173.228
f 217/242/10 207/243/10 218/244/10

v 73.1504 1.15506e-14 -79.6038
vt -275.591 173.228
f 219/7/2 218/245/2 207/84/2

v 73.1504 4.4 -79.6038
f 218/245/2 219/7/2 220/8/2

v 72.4926 0.0464927 -79.6038
vt 25.8974 1.83042
f 219/7/3 221/246/3 220/8/3

v 71.5926 0.0464927 -79.6038
vt 61.3305 1.83042
f 221/246/3 219/7/3 222/247/3

v 70.7504 1.15506e-14 -79.6038
f 223/189/3 222/247/3 219/7/3

v 70.7504 4.4 -79.6038
vt 94.4882 173.228
f 222/247/3 223/189/3 224/248/3

vt 4.54747e-13 173.228
vt 4.54747e-13 0
f 206/232/9 224/249/9 223/250/9

v 70.7504 4.4 -75.4038
f 224/249/9 206/232/9 225/233/9

vt 196.85 173.228
f 206/189/3 210/251/3 225/248/3

vt 196.85 0
f 210/251/3 206/189/3 208/252/3

vt 196.85 275.591
vt 94.4882 165.354
vt 196.85 165.354
f 212/253/1 225/254/1 210/255/1

vt 9.09495e-13 275.591
f 218/256/1 225/254/1 212/253/1

vt 94.4882 4.54747e-13
f 218/256/1 224/257/1 225/254/1

f 224/257/1 218/256/1 220/7/1

v 72.4965 4.39027 -79.6038
vt 25.7445 172.845
f 220/8/3 226/258/3 224/248/3

v 72.4965 4.14027 -79.6038
vt 25.7445 163.003
f 220/8/3 227/259/3 226/258/3

v 72.4926 2.47649 -79.6038
vt 25.8974 97.4997
f 220/8/3 228/260/3 227/259/3

f 220/8/3 221/246/3 228/260/3

vn -1.2834e-14 0 -1
v 71.5926 2.47649 -79.6038
vt 61.3305 97.4997
f 221/246/12 229/261/12 228/260/12

f 229/261/12 221/246/12 222/247/12

f 222/247/3 224/248/3 229/261/3

f 229/261/3 224/248/3 228/260/3

v 71.4965 4.14027 -79.6038
vt 65.1146 163.003
f 228/260/3 224/248/3 230/262/3

v 71.4965 4.39027 -79.6038
vt 65.1146 172.845
f 230/262/3 224/248/3 231/263/3

f 231/263/3 224/248/3 226/258/3

f 227/259/3 231/263/3 226/258/3

f 231/263/3 227/259/3 230/262/3

f 227/259/3 228/260/3 230/262/3

v 71.1 2.13891 -72.6038
vt -80.7239 84.209
f 212/240/10 232/264/10 218/244/10

v 68.8891 2.07625 -72.6038
vt -167.768 81.742
f 212/240/10 233/265/10 232/264/10

f 212/240/10 215/239/10 233/265/10

v 69.6991 2.07625 -72.6038
vt -135.878 81.742
f 215/239/10 234/266/10 233/265/10

f 234/266/10 215/239/10 216/241/10

v 71.1 0.0689088 -72.6038
vt -80.7239 2.71294
f 216/241/10 235/267/10 234/266/10

f 235/267/10 216/241/10 217/242/10

v 72.87 2.13891 -72.6038
vt -11.0389 84.209
f 236/268/10 235/267/10 217/242/10

f 235/267/10 236/268/10 232/264/10

f 236/268/10 218/244/10 232/264/10

f 217/242/10 218/244/10 236/268/10

f 234/266/10 235/267/10 232/264/10

f 234/266/10 232/264/10 233/265/10

vt -94.4882 4.54747e-13
f 223/269/8 207/229/8 206/228/8

f 207/229/8 223/269/8 219/7/8

g Mesh49 Group11 Model

l 219 223

l 219 207

l 219 220

l 220 224

l 220 218

l 207 218

l 207 205

l 208 205

l 208 206

l 208 210

l 210 212

l 210 225

l 206 225

l 206 223

l 223 224

l 225 224

l 205 212

l 218 212

g Mesh50 Group11 Model

l 209 214

l 211 209

l 213 211

l 214 213

g Mesh51 Group11 Model

l 233 215

l 234 233

l 216 234

l 215 216

g Mesh52 Group11 Model

l 235 217

l 232 235

l 236 232

l 217 236

g Mesh53 Group11 Model

l 228 221

l 229 228

l 222 229

l 221 222

g Mesh54 Group11 Model

l 226 231

l 227 226

l 230 227

l 231 230

g Mesh55 Group12 Model

v 70.7504 4.4 -65.5038
vt -94.4882 78.7402
v 73.1504 4.4 -67.5038
v 73.1504 4.4 -65.5038
vt 0 78.7402
f 237/270/8 238/7/8 239/271/8

v 70.7504 4.4 -67.5038
f 238/7/8 237/270/8 240/181/8

vt 78.7402 0
v 70.7504 7.6 -67.5038
f 237/272/9 241/76/9 240/7/9

v 70.7504 7.6 -65.5038
vt 78.7402 125.984
f 241/76/9 237/272/9 242/273/9

v 73.1504 7.6 -65.5038
f 237/181/10 243/76/10 242/184/10

f 243/76/10 237/181/10 239/7/10

vt -78.7402 125.984
vt -78.7402 0
f 238/7/2 243/274/2 239/275/2

v 73.1504 7.6 -67.5038
f 243/274/2 238/7/2 244/76/2

f 238/7/3 241/190/3 244/76/3

f 241/190/3 238/7/3 240/189/3

f 241/189/1 243/271/1 244/7/1

vt 94.4882 78.7402
f 243/271/1 241/189/1 242/276/1

g Mesh56 Group12 Model

l 238 240

l 238 239

l 238 244

l 244 243

l 244 241

l 240 241

l 237 240

l 237 239

l 237 242

l 242 243

l 242 241

l 239 243

g Mesh57 Group13 Model

v 72.1004 10.8 -72.6038
vt 49.2126 0
v 73.1504 10.8 -68.0688
vt 7.87402 178.543
v 73.1504 10.8 -72.6038
vt 7.87402 0
f 245/277/1 246/278/1 247/279/1

v 72.1004 10.8 -70.8038
vt 49.2126 70.8661
f 246/278/1 245/277/1 248/280/1

v 72.1004 7.6 -70.8038
vt 70.8661 0
vt 70.8661 125.984
f 245/76/9 249/281/9 248/282/9

v 72.1004 7.6 -72.6038
f 249/281/9 245/76/9 250/7/9

vt 49.2126 125.984
v 73.1504 7.6 -72.6038
f 245/283/3 251/279/3 250/277/3

vt 7.87402 125.984
f 251/279/3 245/283/3 247/284/3

vt -178.543 125.984
f 246/285/2 251/7/2 247/76/2

v 73.1504 7.6 -68.0688
vt -178.543 0
f 251/7/2 246/285/2 252/286/2

vt -7.87402 125.984
v 70.7504 7.6 -68.0688
vt -7.87402 0
f 246/287/10 253/100/10 252/288/10

v 70.7504 10.8 -68.0688
f 253/100/10 246/287/10 254/101/10

vt 102.362 178.543
f 248/280/1 254/289/1 246/278/1

v 70.7504 10.8 -70.8038
vt 102.362 70.8661
f 254/289/1 248/280/1 255/290/1

f 249/277/3 255/114/3 248/283/3

v 70.7504 7.6 -70.8038
f 255/114/3 249/277/3 256/103/3

vt -49.2126 70.8661
vt -102.362 178.543
vt -102.362 70.8661
f 249/291/8 253/292/8 256/293/8

f 251/288/8 253/292/8 249/291/8

vt -7.87402 178.543
f 253/292/8 251/288/8 252/294/8

vt -49.2126 0
f 250/295/8 251/288/8 249/291/8

v 70.7504 8.58835 -70.14
vt 96.9992 38.9115
vt 178.543 0
f 257/296/9 256/281/9 253/297/9

f 256/281/9 257/296/9 255/282/9

v 70.7504 9.84835 -70.14
vt 96.9992 88.5178
f 258/298/9 255/282/9 257/296/9

vt 178.543 125.984
f 255/282/9 258/298/9 254/299/9

v 70.7504 9.84835 -68.69
vt 154.086 88.5178
f 254/299/9 258/298/9 259/300/9

v 70.7504 8.58835 -68.69
vt 154.086 38.9115
f 258/298/9 260/301/9 259/300/9

f 260/301/9 258/298/9 257/296/9

f 257/296/9 253/297/9 260/301/9

f 260/301/9 253/297/9 259/300/9

f 254/299/9 259/300/9 253/297/9

g Mesh58 Group13 Model

l 252 246

l 252 253

l 251 252

l 251 247

l 250 251

l 250 245

l 249 250

l 256 249

l 253 256

l 253 254

l 254 255

l 246 254

l 247 246

l 245 247

l 248 245

l 255 248

l 256 255

l 249 248

g Mesh59 Group13 Model

l 259 258

l 260 259

l 257 260

l 258 257

g Mesh60 Group14 Model

v 73.1504 10.8 -72.6038
v 78.3504 10.8 -65.5038
vt 0 279.528
v 78.3504 10.8 -72.6038
f 261/140/1 262/302/1 263/7/1

v 73.1504 10.8 -65.5038
vt 204.724 279.528
f 262/302/1 261/140/1 264/303/1

v 73.1504 7.6 -65.5038
vt 279.528 0
vt 279.528 125.984
f 261/76/9 265/304/9 264/305/9

v 73.1504 7.6 -72.6038
f 265/304/9 261/76/9 266/7/9

f 261/143/3 136/7/3 266/140/3

f 136/7/3 261/143/3 263/76/3

v 78.3504 9.70766 -71.917
vt -27.0383 82.9786
f 263/76/2 267/306/2 136/7/2

vt -279.528 125.984
f 267/306/2 263/76/2 262/307/2

v 78.3504 9.70766 -70.417
vt -86.0934 82.9786
f 267/306/2 262/307/2 268/308/2

v 78.3504 9.70766 -68.3979
vt -165.586 82.9786
f 268/308/2 262/307/2 269/309/2

v 78.3504 9.70766 -66.8979
vt -224.641 82.9786
f 269/309/2 262/307/2 270/310/2

v 78.3504 8.40766 -66.8979
vt -224.641 31.7975
f 270/310/2 262/307/2 271/311/2

v 78.3504 7.6 -65.5038
vt -279.528 0
f 272/312/2 271/311/2 262/307/2

v 78.3504 8.40766 -68.3979
vt -165.586 31.7975
f 272/312/2 273/313/2 271/311/2

v 78.3504 8.40766 -70.417
vt -86.0934 31.7975
f 272/312/2 274/314/2 273/313/2

v 78.3504 8.40766 -71.917
vt -27.0383 31.7975
f 272/312/2 275/315/2 274/314/2

f 136/7/2 275/315/2 272/312/2

f 275/315/2 136/7/2 267/306/2

f 268/308/2 275/315/2 267/306/2

f 275/315/2 268/308/2 274/314/2

f 268/308/2 269/309/2 274/314/2

f 273/313/2 274/314/2 269/309/2

f 270/310/2 273/313/2 269/309/2

f 273/313/2 270/310/2 271/311/2

vt -204.724 279.528
f 265/316/8 136/7/8 272/302/8

f 136/7/8 265/316/8 266/131/8

v 77.6323 8.40836 -65.5038
vt -28.2703 31.8252
f 272/7/10 276/317/10 265/131/10

f 276/317/10 272/7/10 262/76/10

v 77.6323 9.70836 -65.5038
vt -28.2703 83.0063
f 276/317/10 262/76/10 277/318/10

v 76.1323 9.70836 -65.5038
vt -87.3255 83.0063
f 277/318/10 262/76/10 278/319/10

v 75.4663 9.70836 -65.5038
vt -113.546 83.0063
f 278/319/10 262/76/10 279/320/10

v 73.9663 9.70836 -65.5038
vt -172.601 83.0063
f 279/320/10 262/76/10 280/321/10

f 264/133/10 280/321/10 262/76/10

v 73.9663 8.40836 -65.5038
vt -172.601 31.8252
f 264/133/10 281/322/10 280/321/10

f 265/131/10 281/322/10 264/133/10

f 281/322/10 265/131/10 276/317/10

v 76.1323 8.40836 -65.5038
vt -87.3255 31.8252
f 281/322/10 276/317/10 282/323/10

f 277/318/10 282/323/10 276/317/10

f 282/323/10 277/318/10 278/319/10

v 75.4663 8.40836 -65.5038
vt -113.546 31.8252
f 278/319/10 283/324/10 282/323/10

f 283/324/10 278/319/10 279/320/10

f 279/320/10 281/322/10 283/324/10

f 281/322/10 279/320/10 280/321/10

f 281/322/10 282/323/10 283/324/10

g Mesh61 Group14 Model

l 262 263

l 264 262

l 264 261

l 265 264

l 265 272

l 265 266

l 266 261

l 136 266

l 136 263

l 272 136

l 272 262

l 263 261

g Mesh62 Group14 Model

l 267 275

l 268 267

l 274 268

l 275 274

g Mesh63 Group14 Model

l 269 273

l 270 269

l 271 270

l 273 271

g Mesh64 Group14 Model

l 282 278

l 276 282

l 277 276

l 278 277

g Mesh65 Group14 Model

l 281 280

l 283 281

l 279 283

l 280 279

g Mesh66 Group15 Model

v 73.1504 7.6 -65.5038
v 72.7463 8.40836 -65.5038
vt -23.7814 31.8252
v 70.7504 7.6 -65.5038
f 284/288/10 285/325/10 286/100/10

v 73.1504 10.8 -65.5038
f 285/325/10 284/288/10 287/287/10

v 73.1504 7.6 -68.0688
vt -100.984 125.984
vt -100.984 0
f 288/7/2 287/326/2 284/327/2

v 73.1504 10.8 -68.0688
f 287/326/2 288/7/2 289/76/2

v 70.7504 10.8 -68.0688
f 288/279/3 290/114/3 289/284/3

v 70.7504 7.6 -68.0688
f 290/114/3 288/279/3 291/103/3

vt -102.362 100.984
f 288/288/8 286/328/8 291/100/8

vt -7.87402 100.984
f 286/328/8 288/288/8 284/329/8

vt 100.984 0
f 286/330/9 290/76/9 291/7/9

v 70.7504 10.8 -65.5038
vt 100.984 125.984
f 290/76/9 286/330/9 292/331/9

v 71.2463 8.40836 -65.5038
vt -82.8366 31.8252
f 286/100/10 293/332/10 292/101/10

f 293/332/10 286/100/10 285/325/10

v 72.7463 9.70836 -65.5038
vt -23.7814 83.0063
f 294/333/10 293/332/10 285/325/10

v 71.2463 9.70836 -65.5038
vt -82.8366 83.0063
f 293/332/10 294/333/10 295/334/10

f 294/333/10 287/287/10 295/334/10

f 285/325/10 287/287/10 294/333/10

f 292/101/10 295/334/10 287/287/10

f 292/101/10 293/332/10 295/334/10

vt 7.87402 100.984
vt 102.362 100.984
f 287/335/1 290/103/1 292/336/1

f 290/103/1 287/335/1 289/279/1

g Mesh67 Group15 Model

l 288 289

l 288 291

l 288 284

l 286 284

l 286 292

l 286 291

l 291 290

l 292 290

l 292 287

l 284 287

l 289 287

l 289 290

g Mesh68 Group15 Model

l 293 295

l 285 293

l 294 285

l 295 294

g Mesh69 Group16 Model

v 64.3131 14.1 -104.62
vt 694.682 369.624
v 51.8363 14.1 -92.1428
vt 0 369.624
v 64.8731 14.1 -91.9024
vt 356.24 0
f 296/337/1 297/338/1 298/339/1

v 64.3131 0.5 -104.62
vt -694.682 0
vn -0.707107 0 -0.707107
vt 0 535.433
vt -694.682 535.433
f 299/340/13 297/341/13 296/342/13

v 51.8363 0.5 -92.1428
f 297/341/13 299/340/13 300/7/13

vt -694.682 369.624
vn 0 -1 -0
v 64.8731 0.5 -91.9024
vt -356.24 0
f 299/343/14 301/344/14 300/338/14

vt 741.737 0
vn 0.999032 0 -0.0439957
vt 240.573 535.433
vt 240.573 0
f 299/345/15 298/346/15 301/347/15

vt 741.737 535.433
f 298/346/15 299/345/15 296/348/15

vt -266.137 535.433
vn -0.0184354 0 0.99983
vt 247.213 0
vt 247.213 535.433
f 297/349/16 301/350/16 298/351/16

vt -266.137 0
f 301/350/16 297/349/16 300/352/16

g Mesh70 Group16 Model

l 296 297

l 298 296

l 298 297

l 301 298

l 301 299

l 301 300

l 299 300

l 299 296

l 300 297

g Mesh71 Group17 Model

v 73.1504 13.6 -79.6038
v 73.1504 12.936 -78.2205
vt -54.4591 84.0949
v 73.1504 10.8 -79.6038
f 302/199/2 303/353/2 304/7/2

v 73.1504 13.6 -72.6038
vt -275.591 110.236
f 303/353/2 302/199/2 305/354/2

v 70.7504 13.6 -79.6038
f 306/189/1 305/70/1 302/7/1

v 70.7504 13.6 -72.6038
vt 94.4882 275.591
f 305/70/1 306/189/1 307/355/1

v 70.7504 12.9904 -75.1266
vt 176.268 86.2348
vt 275.591 110.236
f 306/199/9 308/356/9 307/357/9

v 70.7504 11.9904 -75.1266
vt 176.268 46.8647
f 308/356/9 306/199/9 309/358/9

v 70.7504 10.8 -72.6038
f 306/199/9 310/75/9 309/358/9

v 70.7504 10.8 -79.6038
f 310/75/9 306/199/9 311/7/9

v 71.4971 10.8112 -79.6038
vt 65.0911 0.442518
vt 94.4882 110.236
f 312/359/3 311/189/3 306/360/3

f 311/189/3 312/359/3 304/7/3

v 72.4971 10.8112 -79.6038
vt 25.721 0.442518
f 313/361/3 304/7/3 312/359/3

f 304/7/3 313/361/3 302/199/3

v 72.4971 12.1112 -79.6038
vt 25.721 51.6236
f 302/199/3 313/361/3 314/362/3

v 71.4971 12.1112 -79.6038
vt 65.0911 51.6236
f 313/361/3 315/363/3 314/362/3

f 315/363/3 313/361/3 312/359/3

f 312/359/3 306/360/3 315/363/3

f 315/363/3 306/360/3 314/362/3

f 302/199/3 314/362/3 306/360/3

vt -94.4882 275.591
f 304/7/8 310/364/8 311/181/8

v 73.1504 10.8 -72.6038
f 310/364/8 304/7/8 316/70/8

v 73.1504 10.836 -78.2205
vt -54.4591 1.41769
f 304/7/2 317/365/2 316/84/2

f 317/365/2 304/7/2 303/353/2

v 73.1504 12.936 -77.3205
vt -89.8922 84.0949
f 318/366/2 317/365/2 303/353/2

v 73.1504 10.836 -77.3205
vt -89.8922 1.41769
f 317/365/2 318/366/2 319/367/2

f 318/366/2 305/354/2 319/367/2

f 303/353/2 305/354/2 318/366/2

f 316/84/2 319/367/2 305/354/2

f 316/84/2 317/365/2 319/367/2

f 305/199/10 310/181/10 316/7/10

vt -94.4882 110.236
f 310/181/10 305/199/10 307/368/10

v 70.7504 12.9904 -74.1266
vt 215.638 86.2348
f 307/357/9 320/369/9 310/75/9

f 307/357/9 308/356/9 320/369/9

v 70.7504 11.9904 -74.1266
vt 215.638 46.8647
f 308/356/9 321/370/9 320/369/9

f 321/370/9 308/356/9 309/358/9

f 309/358/9 310/75/9 321/370/9

f 321/370/9 310/75/9 320/369/9

g Mesh72 Group17 Model

l 305 307

l 302 305

l 304 302

l 304 316

l 311 304

l 310 311

l 310 307

l 316 310

l 316 305

l 307 306

l 306 302

l 311 306

g Mesh73 Group17 Model

l 314 315

l 313 314

l 312 313

l 315 312

g Mesh74 Group17 Model

l 320 308

l 321 320

l 309 321

l 308 309

g Mesh75 Group17 Model

l 303 318

l 317 303

l 319 317

l 318 319

g Mesh76 Group18 Model

v 68.1504 7.6 -79.6038
v 70.7504 7.6 -72.6038
v 70.7504 7.6 -79.6038
f 322/103/1 323/70/1 324/7/1

v 68.1504 7.6 -72.6038
vt 102.362 275.591
f 323/70/1 322/103/1 325/371/1

v 68.1504 6.53815 -77.9804
vt 63.9122 84.179
f 322/76/9 326/372/9 325/78/9

v 68.1504 5.53815 -77.9804
vt 63.9122 44.8089
f 326/372/9 322/76/9 327/373/9

v 68.1504 4.4 -79.6038
f 328/7/9 327/373/9 322/76/9

v 68.1504 4.4 -72.6038
f 327/373/9 328/7/9 329/75/9

v 70.7504 4.4 -79.6038
vt -102.362 275.591
f 330/7/8 329/374/8 328/100/8

v 70.7504 4.4 -72.6038
f 329/374/8 330/7/8 331/70/8

f 330/7/2 323/83/2 331/84/2

f 323/83/2 330/7/2 324/76/2

f 330/7/3 322/114/3 324/76/3

f 322/114/3 330/7/3 328/103/3

f 323/76/10 329/100/10 331/7/10

f 329/100/10 323/76/10 325/101/10

v 68.1504 6.53815 -76.9804
vt 103.282 84.179
f 325/78/9 332/375/9 329/75/9

f 325/78/9 326/372/9 332/375/9

v 68.1504 5.53815 -76.9804
vt 103.282 44.8089
f 326/372/9 333/376/9 332/375/9

f 333/376/9 326/372/9 327/373/9

f 327/373/9 329/75/9 333/376/9

f 333/376/9 329/75/9 332/375/9

g Mesh77 Group18 Model

l 324 322

l 324 323

l 330 324

l 330 331

l 330 328

l 328 322

l 328 329

l 329 325

l 331 329

l 331 323

l 323 325

l 322 325

g Mesh78 Group18 Model

l 327 326

l 333 327

l 332 333

l 326 332

g Mesh79 Group19 Model

v 68.1504 1.15506e-14 -75.4038
vt -102.362 165.354
v 70.7504 1.15506e-14 -79.6038
v 70.7504 1.15506e-14 -75.4038
f 334/377/8 335/7/8 336/69/8

v 68.1504 1.15506e-14 -79.6038
f 335/7/8 334/377/8 337/100/8

v 68.1504 1.94615 -77.9804
vt 63.9122 76.6199
f 338/378/9 337/7/9 334/232/9

v 68.1504 4.4 -79.6038
f 337/7/9 338/378/9 339/8/9

v 68.1504 2.94615 -77.9804
vt 63.9122 115.99
f 340/379/9 339/8/9 338/378/9

v 68.1504 4.4 -75.4038
f 339/8/9 340/379/9 341/233/9

v 68.1504 2.94615 -76.9804
vt 103.282 115.99
f 341/233/9 340/379/9 342/380/9

v 68.1504 1.94615 -76.9804
vt 103.282 76.6199
f 340/379/9 343/381/9 342/380/9

f 343/381/9 340/379/9 338/378/9

f 338/378/9 334/232/9 343/381/9

f 343/381/9 334/232/9 342/380/9

f 341/233/9 342/380/9 334/232/9

v 70.7504 4.4 -75.4038
f 334/100/10 344/8/10 341/118/10

f 344/8/10 334/100/10 336/7/10

vt -165.354 173.228
f 335/7/2 344/382/2 336/82/2

v 70.7504 4.4 -79.6038
f 344/382/2 335/7/2 345/8/2

f 335/7/3 339/115/3 345/8/3

f 339/115/3 335/7/3 337/103/3

f 339/103/1 344/69/1 345/7/1

vt 102.362 165.354
f 344/69/1 339/103/1 341/383/1

g Mesh80 Group19 Model

l 336 335

l 334 336

l 337 334

l 335 337

l 335 345

l 345 339

l 344 345

l 341 344

l 334 341

l 339 341

l 337 339

l 336 344

g Mesh81 Group19 Model

l 338 343

l 340 338

l 342 340

l 343 342

g Mesh82 Group20 Model

v 69.714 8.1 -89.6082
vt -159.091 299.213
vn -0.997435 0 -0.0715763
v 70.399 0.5 -99.1547
vt -535.902 0
v 69.714 0.5 -89.6082
vt -159.091 0
f 346/384/17 347/385/17 348/386/17

v 70.399 8.1 -99.1547
vt -535.902 299.213
f 347/385/17 346/384/17 349/387/17

v 78.9101 8.1 -90.0753
vt 269.015 0
vt 284.833 489.696
vt 0 243.005
f 350/388/1 349/389/1 346/390/1

v 79.6812 8.1 -98.4886
vt 524.694 212.749
f 349/389/1 350/388/1 351/391/1

v 78.9101 0.5 -90.0753
vt 206.789 0
vn 0.995827 0 0.0912644
vt 539.406 299.213
vt 206.789 299.213
f 352/392/18 351/393/18 350/394/18

v 79.6812 0.5 -98.4886
vt 539.406 0
f 351/393/18 352/392/18 353/395/18

vt -269.015 0
vt -284.833 489.696
vt -524.694 212.749
f 352/396/14 347/397/14 353/398/14

f 347/397/14 352/396/14 348/390/14

vt 199.628 299.213
vn 0.0507329 0 0.998712
vt -162.892 0
vt 199.628 0
f 350/399/19 348/400/19 352/401/19

vt -162.892 299.213
f 348/400/19 350/399/19 346/402/19

vt 183.689 0
vn 0.0715763 0 -0.997435
vt -182.689 299.213
vt -182.689 0
f 347/403/20 351/404/20 353/405/20

vt 183.689 299.213
f 351/404/20 347/403/20 349/406/20

g Mesh83 Group20 Model

l 348 347

l 348 346

l 352 348

l 353 352

l 353 351

l 347 353

l 347 349

l 346 349

l 350 346

l 351 350

l 349 351

l 352 350

g Mesh84 Group21 Model

v 80.012 18.432 -56.9569
vt 1120.6 705.984
vn 0.999445 0 0.0333074
v 79.6007 0.5 -44.6158
vt 634.453 0
v 80.012 0.5 -56.9569
vt 1120.6 0
f 354/407/21 355/408/21 356/409/21

v 79.6007 18.432 -44.6158
vt 634.453 705.984
f 355/408/21 354/407/21 357/410/21

v 49.338 18.432 -57.9792
vt 398.34 1214.5
vt 868.797 0
vt 1223.81 332.114
f 358/411/1 357/412/1 354/413/1

v 48.8765 18.432 -44.1318
vt 0 841.853
f 357/412/1 358/411/1 359/414/1

v 49.338 0.5 -57.9792
vt -1120.6 0
vn -0.999445 0 -0.0333074
vt -575.123 705.984
vt -1120.6 705.984
f 360/415/22 359/416/22 358/417/22

v 48.8765 0.5 -44.1318
vt -575.123 0
f 359/416/22 360/415/22 361/418/22

vt -398.34 1214.5
vt -868.797 0
f 360/419/14 355/420/14 361/414/14

vt -1223.81 332.114
f 355/420/14 360/419/14 356/421/14

vt 614.777 0
vn 0.0333074 0 -0.999445
vt -593.53 705.984
vt -593.53 0
f 360/422/23 354/423/23 356/424/23

vt 614.777 705.984
f 354/423/23 360/422/23 358/425/23

vt 623.931 705.984
vn 0.0157488 0 0.999876
vt -585.832 0
vt 623.931 0
f 357/426/24 361/427/24 355/428/24

vt -585.832 705.984
f 361/427/24 357/426/24 359/429/24

g Mesh85 Group21 Model

l 360 358

l 361 360

l 355 361

l 356 355

l 356 354

l 360 356

l 354 357

l 358 354

l 359 358

l 357 359

l 355 357

l 361 359

g Mesh86 Group22 Model

v 63.6622 11.3 -64.3967
vt 335.668 0
v 51.4765 11.3 -79.6804
vt 421.913 764.714
v 51.1417 11.3 -64.8596
vt 0 361.441
f 362/430/1 363/431/1 364/432/1

v 64.2098 11.3 -79.2096
vt 763.288 397.128
f 363/431/1 362/430/1 365/433/1

v 63.6622 0.5 -64.3967
vt 245.961 0
vn 0.999317 0 0.0369459
vt 829.543 425.197
vt 245.961 425.197
f 366/434/25 365/435/25 362/436/25

v 64.2098 0.5 -79.2096
vt 829.543 0
f 365/435/25 366/434/25 367/437/25

vt -335.668 0
v 51.4765 0.5 -79.6804
vt -421.913 764.714
vt -763.288 397.128
f 366/438/14 368/439/14 367/440/14

v 51.1417 0.5 -64.8596
f 368/439/14 366/438/14 369/432/14

vt 228.422 0
vn -0.0369459 0 0.999317
vt -264.846 425.197
vt -264.846 0
f 366/441/26 364/442/26 369/443/26

vt 228.422 425.197
f 364/442/26 366/441/26 362/444/26

vt -249.74 425.197
vn -0.999745 0 -0.0225838
vt -833.383 0
vt -249.74 0
f 364/445/27 368/446/27 369/447/27

vt -833.383 425.197
f 368/446/27 364/445/27 363/448/27

vt -228.422 425.197
vn 0.0369459 0 -0.999317
vt 273.231 0
vt 273.231 425.197
f 365/449/28 368/450/28 363/451/28

vt -228.422 0
f 368/450/28 365/449/28 367/452/28

g Mesh87 Group22 Model

l 369 364

l 368 369

l 367 368

l 366 367

l 369 366

l 366 362

l 364 362

l 363 364

l 365 363

l 362 365

l 367 365

l 368 363

g Mesh88 Group23 Model

v 94.91 0.5 -131.696
vt -2542.97 3615.76
vn 1.29298e-16 -1 -5.43126e-17
v 130.468 0.5 -37.3718
vt -906.984 4.54747e-13
v 94.2567 0.5 -41.0032
vt 0 1109.17
f 370/453/29 371/454/29 372/455/29

v 139.571 0.5 -131.374
vt -3777.32 2363.5
f 371/454/29 370/453/29 373/456/29

vt 789.93 2.1448e-13
vn 0.00720337 5.52426e-17 -0.999974
v 139.571 18.432 -131.374
vt -968.417 705.984
vt -968.417 2.1448e-13
f 370/457/30 374/458/30 373/459/30

v 94.91 18.432 -131.696
vt 789.93 705.984
f 374/458/30 370/457/30 375/460/30

vt -4349.3 5.56571e-13
vn -0.999974 -1.28904e-16 -0.00720337
v 94.2567 18.432 -41.0032
vt -778.631 705.984
vt -4349.3 705.984
f 370/461/31 376/462/31 375/463/31

vt -778.631 1.01825e-13
f 376/462/31 370/461/31 372/464/31

vt 574.14 4.07745e-13
vn -0.0997819 -6.69432e-17 0.995009
vt -858.645 705.984
vt -858.645 -4.70026e-14
f 371/465/32 376/466/32 372/467/32

v 130.468 18.432 -37.3718
vt 574.14 705.984
f 376/466/32 371/465/32 377/468/32

vt 700.165 3.83568e-13
vn 0.995344 1.23461e-16 0.0963874
vt 4418.35 705.984
vt 700.165 705.984
f 371/469/33 374/470/33 377/471/33

vt 4418.35 3.83567e-13
f 374/470/33 371/469/33 373/472/33

vt 2542.97 3615.76
vn -1.29298e-16 1 5.43126e-17
vt 906.984 4.17314e-13
vt 3777.32 2363.5
f 375/473/34 377/474/34 374/475/34

vt 9.16598e-14 1109.17
f 377/474/34 375/473/34 376/476/34

g Mesh89 Group23 Model

l 370 373

l 372 370

l 371 372

l 373 371

l 373 374

l 374 377

l 375 374

l 376 375

l 377 376

l 371 377

l 372 376

l 370 375

g Mesh90 Group24 Model

v 72.1004 10.8 -70.8038
vt -70.8661 125.984
v 72.1004 7.6 -72.6038
v 72.1004 10.8 -72.6038
f 378/477/2 379/7/2 380/76/2

v 72.1004 7.6 -70.8038
vt -70.8661 0
f 379/7/2 378/477/2 381/478/2

vt 4.54747e-13 125.984
v 70.7504 7.6 -70.8038
vt -53.1496 0
f 378/479/10 382/480/10 381/250/10

v 70.7504 10.8 -70.8038
vt -53.1496 125.984
f 382/480/10 378/479/10 383/481/10

vt 53.1496 70.8661
vt -4.54747e-13 70.8661
f 380/7/1 383/482/1 378/483/1

v 70.7504 10.8 -72.6038
vt 53.1496 1.36424e-12
f 383/482/1 380/7/1 384/484/1

vt 53.1496 125.984
f 379/7/3 384/485/3 380/76/3

v 70.7504 7.6 -72.6038
vt 53.1496 0
f 384/485/3 379/7/3 385/486/3

vt -53.1496 70.8661
vt -53.1496 1.36424e-12
f 379/7/8 382/487/8 385/488/8

vt 4.54747e-13 70.8661
f 382/487/8 379/7/8 381/489/8

v 70.7504 8.97101 -72.0224
vt 22.8881 53.9768
vt 1.36424e-12 0
f 386/490/9 385/491/9 382/281/9

vt 1.36424e-12 125.984
f 385/491/9 386/490/9 384/492/9

v 70.7504 9.87101 -72.0224
vt 22.8881 89.4099
f 387/493/9 384/492/9 386/490/9

f 384/492/9 387/493/9 383/282/9

v 70.7504 9.87101 -71.1224
vt 58.3212 89.4099
f 383/282/9 387/493/9 388/494/9

v 70.7504 8.97101 -71.1224
vt 58.3212 53.9768
f 387/493/9 389/495/9 388/494/9

f 389/495/9 387/493/9 386/490/9

f 386/490/9 382/281/9 389/495/9

f 389/495/9 382/281/9 388/494/9

f 383/282/9 388/494/9 382/281/9

g Mesh91 Group24 Model

l 385 384

l 385 379

l 382 385

l 382 383

l 382 381

l 381 379

l 381 378

l 378 380

l 383 378

l 383 384

l 384 380

l 379 380

g Mesh92 Group24 Model

l 386 387

l 389 386

l 388 389

l 387 388

