# Alias OBJ Model File
# Exported from SketchUp, (c) 2000-2012 Trimble Navigation Limited
# File units = meters

mtllib 화곡동 0418V3.mtl

g Mesh1 Group1 Model

usemtl FrontColor
v 27.5661 4.4 -71.4492
vt -94.4882 78.7402
vn 0 -1 -0
v 25.1661 4.4 -69.4492
vt -2.27374e-12 0
v 25.1661 4.4 -71.4492
vt 0 78.7402
f 1/1/1 2/2/1 3/3/1

v 26.5161 4.4 -69.4492
vt -53.1496 0
f 2/2/1 1/1/1 4/4/1

v 27.5661 4.4 -69.4492
vt -94.4882 0
f 4/4/1 1/1/1 5/5/1

vt 78.7402 0
vn 1 0 -0
v 27.5661 7.6 -69.4492
vt 0 125.984
vt 0 0
f 1/6/2 6/7/2 5/8/2

v 27.5661 7.6 -71.4492
vt 78.7402 125.984
f 6/7/2 1/6/2 7/9/2

vn 3.91685e-11 0 -1
v 25.1661 7.6 -71.4492
vt 3.08413e-09 125.984
vt -94.4882 125.984
f 1/5/3 8/10/3 7/11/3

vt 3.08413e-09 0
f 8/10/3 1/5/3 3/12/3

vt 6.56575e-26 0
vn -1 0 2.88765e-14
vt -78.7402 125.984
vt -78.7402 0
f 2/13/4 8/14/4 3/15/4

v 25.1661 7.6 -69.4492
vt 6.56575e-26 125.984
f 8/14/4 2/13/4 9/16/4

vt 2.27374e-12 0
vn 0 0 1
v 26.5161 7.6 -69.4492
vt 53.1496 125.984
vt 2.27374e-12 125.984
f 2/17/5 10/18/5 9/19/5

vt 53.1496 0
f 10/18/5 2/17/5 4/20/5

vt 94.4882 125.984
f 4/20/5 6/21/5 10/18/5

vt 94.4882 0
f 6/21/5 4/20/5 5/22/5

vt 94.4882 78.7402
vn 0 1 -0
f 7/23/6 10/20/6 6/22/6

f 7/23/6 9/17/6 10/20/6

f 9/17/6 7/23/6 8/3/6

g Mesh2 Group1 Model

l 1 3

l 5 1

l 4 5

l 2 4

l 2 3

l 2 9

l 9 10

l 9 8

l 7 8

l 6 7

l 10 6

l 4 10

l 5 6

l 1 7

l 3 8

g Mesh3 Group2 Model

v 25.1661 13.6 -64.3492
vt -275.591 110.236
vn -1 0 -0
v 25.1661 10.8 -57.3492
v 25.1661 13.6 -57.3492
vt 0 110.236
f 11/24/7 12/8/7 13/25/7

v 25.1661 10.8 -64.3492
vt -275.591 0
f 12/8/7 11/24/7 14/26/7

vn 0 0 -1
v 27.5661 10.8 -64.3492
f 11/25/8 15/5/8 14/8/8

v 27.5661 13.6 -64.3492
vt -94.4882 110.236
f 15/5/8 11/25/8 16/27/8

vt 0 275.591
v 27.5661 13.6 -57.3492
vt 94.4882 275.591
f 11/28/6 17/22/6 16/29/6

f 17/22/6 11/28/6 13/8/6

vn -2.46687e-26 -6.37627e-12 1
v 25.8661 11.85 -57.3492
vt 27.5591 41.3386
vt 94.4882 110.236
f 13/25/9 18/30/9 17/31/9

f 12/8/9 18/30/9 13/25/9

v 25.8661 10.8 -57.3492
vt 27.5591 -1.06444e-20
f 18/30/9 12/8/9 19/32/9

vt -94.4882 275.591
vt -27.5591 1.66938e-09
f 12/8/1 15/33/1 19/34/1

f 15/33/1 12/8/1 14/28/1

v 26.8661 10.8 -57.3492
vt -66.9291 1.66938e-09
f 19/34/1 15/33/1 20/35/1

v 27.5661 10.8 -57.3492
f 20/35/1 15/33/1 21/5/1

vt 275.591 0
f 15/36/2 17/25/2 21/8/2

v 27.5661 11.95 -61.9492
vt 181.102 45.2756
f 17/25/2 15/36/2 22/37/2

v 27.5661 11.95 -62.9492
vt 220.472 45.2756
f 22/37/2 15/36/2 23/38/2

v 27.5661 12.95 -62.9492
vt 220.472 84.6457
f 23/38/2 15/36/2 24/39/2

vt 275.591 110.236
f 16/40/2 24/39/2 15/36/2

v 27.5661 12.95 -61.9492
vt 181.102 84.6457
f 16/40/2 25/41/2 24/39/2

f 17/25/2 25/41/2 16/40/2

f 25/41/2 17/25/2 22/37/2

f 23/38/2 25/41/2 22/37/2

f 25/41/2 23/38/2 24/39/2

vt 66.9291 -1.06444e-20
vt 94.4882 -1.48625e-35
f 17/31/9 20/42/9 21/43/9

v 26.8661 11.85 -57.3492
vt 66.9291 41.3386
f 20/42/9 17/31/9 26/44/9

f 26/44/9 17/31/9 18/30/9

vt 27.5591 6.74145e-20
vn 1.48097e-27 4.0383e-11 1
f 19/45/10 26/44/10 18/30/10

vt 66.9291 6.74145e-20
f 26/44/10 19/45/10 20/46/10

g Mesh4 Group2 Model

l 12 14

l 12 13

l 19 12

l 20 19

l 21 20

l 15 21

l 14 15

l 14 11

l 13 11

l 17 13

l 16 17

l 11 16

l 15 16

l 21 17

l 26 20

l 18 26

l 19 18

g Mesh5 Group2 Model

l 24 23

l 25 24

l 22 25

l 23 22

g Mesh6 Group3 Model

v 19.9661 6.8 -67.0492
vt -106.299 94.4882
v 19.9661 5.5 -65.5492
vt -47.2441 43.3071
v 19.9661 6.8 -65.5492
vt -47.2441 94.4882
f 27/47/7 28/48/7 29/49/7

v 19.9661 5.5 -67.0492
vt -106.299 43.3071
f 28/48/7 27/47/7 30/50/7

v 25.1661 7.6 -67.0492
vt -204.724 125.984
vt 0 43.3071
vt 0 94.4882
f 31/51/8 30/52/8 27/53/8

v 25.1661 4.4 -67.0492
vt -204.724 0
f 32/54/8 30/52/8 31/51/8

v 19.9661 4.4 -67.0492
vt -5.68434e-14 0
f 30/52/8 32/54/8 33/55/8

vt -204.724 106.299
v 19.9661 4.4 -64.3492
vt -5.68434e-14 106.299
f 32/56/1 34/55/1 33/57/1

v 25.1661 4.4 -64.3492
f 34/55/1 32/56/1 35/54/1

vt 106.299 0
v 25.1661 7.6 -64.3492
f 32/58/2 36/7/2 35/8/2

vt 106.299 125.984
f 36/7/2 32/58/2 31/59/2

v 19.9661 7.6 -67.0492
vt 5.68434e-14 106.299
vt 204.724 0
vt 204.724 106.299
f 37/60/6 36/61/6 31/62/6

v 19.9661 7.6 -64.3492
vt 5.68434e-14 0
f 36/61/6 37/60/6 38/63/6

vn -1 -8.03565e-19 5.30727e-17
vt 3.01683e-30 125.984
vt -106.299 125.984
f 29/49/11 38/64/11 37/65/11

vt 3.01683e-30 -4.56774e-32
f 38/64/11 29/49/11 34/66/11

f 28/48/11 34/66/11 29/49/11

vt -106.299 -5.02108e-32
f 34/66/11 28/48/11 33/67/11

f 33/67/11 28/48/11 30/50/11

vt 204.724 125.984
vt 5.68434e-14 125.984
f 34/63/5 36/68/5 38/69/5

f 36/68/5 34/63/5 35/61/5

f 29/49/11 37/65/11 27/47/11

vt -5.68434e-14 125.984
f 31/51/8 27/53/8 37/70/8

g Mesh7 Group3 Model

l 28 29

l 30 28

l 30 27

l 33 30

l 33 34

l 33 32

l 32 35

l 32 31

l 37 31

l 37 38

l 27 37

l 29 27

l 36 38

l 35 36

l 35 34

l 34 38

l 31 36

g Mesh8 Group4 Model

v 23.0661 7.6 -64.3492
vt -122.047 110.236
v 19.9661 7.6 -61.5492
v 19.9661 7.6 -64.3492
vt -5.68434e-14 110.236
f 39/71/1 40/55/1 41/72/1

v 23.0661 7.6 -61.5492
vt -122.047 0
f 40/55/1 39/71/1 42/73/1

vt 110.236 0
v 23.0661 10.8 -61.5492
f 39/74/2 43/7/2 42/8/2

v 23.0661 10.8 -64.3492
vt 110.236 125.984
f 43/7/2 39/74/2 44/75/2

v 19.9661 10.8 -64.3492
vt -122.047 125.984
f 39/73/8 45/70/8 44/76/8

f 45/70/8 39/73/8 41/55/8

vt -110.236 -1.52617e-31
vn -1 -3.9434e-18 -1.6457e-16
v 19.9661 8.7 -63.6992
vt -84.6457 43.3071
vt -110.236 125.984
f 41/77/12 46/78/12 45/79/12

v 19.9661 8.7 -62.1992
vt -25.5906 43.3071
f 41/77/12 47/80/12 46/78/12

vt -9.35474e-30 -2.24156e-31
f 40/81/12 47/80/12 41/77/12

v 19.9661 10 -62.1992
vt -25.5906 94.4882
f 47/80/12 40/81/12 48/82/12

v 19.9661 10.8 -61.5492
vt -9.35474e-30 125.984
f 49/83/12 48/82/12 40/81/12

f 48/82/12 49/83/12 45/79/12

vt 122.047 0
vt 5.68434e-14 110.236
f 43/84/6 45/85/6 49/63/6

vt 122.047 110.236
f 45/85/6 43/84/6 44/86/6

vt 122.047 125.984
f 40/63/5 43/87/5 49/69/5

f 43/87/5 40/63/5 42/84/5

v 19.9661 10 -63.6992
vt -84.6457 94.4882
f 48/82/12 45/79/12 50/88/12

f 50/88/12 45/79/12 46/78/12

f 47/80/7 50/88/7 46/78/7

f 50/88/7 47/80/7 48/82/7

f 50/88/7 47/80/7 48/82/7

f 47/80/7 50/88/7 46/78/7

g Mesh9 Group4 Model

l 39 41

l 39 42

l 39 44

l 44 43

l 44 45

l 49 45

l 43 49

l 42 43

l 42 40

l 40 41

l 40 49

l 41 45

g Mesh10 Group4 Model

l 47 48

l 46 47

l 46 50

l 48 50

g Mesh11 Group5 Model

v 22.1661 6.9 -56.1492
vt 86.6142 98.4252
v 20.6661 5.6 -56.1492
vt 27.5591 47.2441
v 22.1661 5.6 -56.1492
vt 86.6142 47.2441
f 51/89/5 52/90/5 53/91/5

v 20.6661 6.9 -56.1492
vt 27.5591 98.4252
f 52/90/5 51/89/5 54/92/5

v 25.1661 7.6 -56.1492
f 51/89/5 55/68/5 54/92/5

v 22.8661 6.9 -56.1492
vt 114.173 98.4252
f 56/93/5 55/68/5 51/89/5

v 24.3661 6.9 -56.1492
vt 173.228 98.4252
f 57/94/5 55/68/5 56/93/5

v 24.3661 5.6 -56.1492
vt 173.228 47.2441
f 58/95/5 55/68/5 57/94/5

v 25.1661 4.4 -56.1492
f 58/95/5 59/61/5 55/68/5

v 19.9661 4.4 -56.1492
f 59/61/5 58/95/5 60/63/5

f 52/90/5 60/63/5 58/95/5

v 19.9661 7.6 -56.1492
f 60/63/5 52/90/5 61/69/5

f 61/69/5 52/90/5 54/92/5

f 61/69/5 54/92/5 55/68/5

v 19.9661 7.6 -64.3492
vt 5.68434e-14 322.835
f 55/61/6 62/96/6 61/63/6

v 25.1661 7.6 -64.3492
vt 204.724 322.835
f 62/96/6 55/61/6 63/97/6

v 25.1661 7.6 -57.3492
vt 204.724 47.2441
f 63/97/6 55/61/6 64/98/6

v 25.1661 4.4 -57.3492
vt 47.2441 0
vt 47.2441 125.984
f 55/7/2 65/99/2 64/100/2

f 65/99/2 55/7/2 59/8/2

v 25.1661 4.4 -61.9492
vt -204.724 228.346
vt -204.724 47.2441
f 59/54/1 66/101/1 65/102/1

v 25.1661 4.4 -64.3492
vt -204.724 322.835
f 59/54/1 67/103/1 66/101/1

f 60/55/1 67/103/1 59/54/1

v 19.9661 4.4 -64.3492
vt -5.68434e-14 322.835
f 67/103/1 60/55/1 68/104/1

v 19.9661 5.5 -58.2492
vt -82.6772 43.3071
vt -322.835 0
f 60/8/7 69/105/7 68/106/7

v 19.9661 6.8 -58.2492
vt -82.6772 94.4882
f 69/105/7 60/8/7 70/107/7

f 61/7/7 70/107/7 60/8/7

vt -322.835 125.984
f 70/107/7 61/7/7 62/108/7

v 19.9661 6.8 -60.6492
vt -177.165 94.4882
f 70/107/7 62/108/7 71/109/7

v 19.9661 6.8 -62.1992
vt -238.189 94.4882
f 71/109/7 62/108/7 72/110/7

v 19.9661 6.8 -63.6992
vt -297.244 94.4882
f 72/110/7 62/108/7 73/111/7

v 19.9661 5.5 -63.6992
vt -297.244 43.3071
f 73/111/7 62/108/7 74/112/7

f 68/106/7 74/112/7 62/108/7

v 19.9661 5.5 -62.1992
vt -238.189 43.3071
f 68/106/7 75/113/7 74/112/7

v 19.9661 5.5 -60.6492
vt -177.165 43.3071
f 68/106/7 76/114/7 75/113/7

f 68/106/7 69/105/7 76/114/7

f 69/105/7 71/109/7 76/114/7

f 71/109/7 69/105/7 70/107/7

f 71/109/7 72/110/7 76/114/7

f 75/113/7 76/114/7 72/110/7

f 73/111/7 75/113/7 72/110/7

f 75/113/7 73/111/7 74/112/7

f 62/70/8 67/54/8 68/55/8

f 67/54/8 62/70/8 63/51/8

v 25.1661 7.6 -61.9492
vt 228.346 125.984
vt 322.835 0
vt 322.835 125.984
f 77/115/2 67/116/2 63/117/2

vt 228.346 0
f 67/116/2 77/115/2 66/118/2

f 64/100/2 66/118/2 77/115/2

f 66/118/2 64/100/2 65/99/2

vt 204.724 228.346
f 63/97/6 64/98/6 77/119/6

v 22.8661 5.6 -56.1492
vt 114.173 47.2441
f 52/90/5 58/95/5 78/120/5

f 57/94/5 78/120/5 58/95/5

f 78/120/5 57/94/5 56/93/5

f 56/93/5 53/91/5 78/120/5

f 53/91/5 56/93/5 51/89/5

f 52/90/5 78/120/5 53/91/5

g Mesh12 Group5 Model

l 52 54

l 53 52

l 51 53

l 54 51

g Mesh13 Group5 Model

l 56 57

l 78 56

l 58 78

l 57 58

g Mesh14 Group5 Model

l 65 64

l 59 65

l 59 55

l 60 59

l 68 60

l 68 62

l 67 68

l 67 66

l 67 63

l 63 77

l 63 62

l 62 61

l 61 55

l 60 61

l 55 64

l 64 77

l 66 77

l 65 66

g Mesh15 Group5 Model

l 70 71

l 69 70

l 76 69

l 71 76

g Mesh16 Group5 Model

l 75 72

l 74 75

l 74 73

l 72 73

g Mesh17 Group6 Model

v 25.1661 4.4 -64.3492
vt -275.591 173.228
v 25.1661 0 -57.3492
v 25.1661 4.4 -57.3492
vt 0 173.228
f 79/121/7 80/8/7 81/122/7

v 25.1661 0 -64.3492
f 80/8/7 79/121/7 82/26/7

v 27.5661 0 -64.3492
f 79/122/8 83/5/8 82/8/8

v 27.5661 4.4 -64.3492
vt -94.4882 173.228
f 83/5/8 79/122/8 84/123/8

v 25.8661 4.4 -57.3492
vt 27.5591 2.11298e-09
f 79/28/6 85/124/6 84/29/6

f 85/124/6 79/28/6 81/8/6

vn 8.52597e-22 6.09884e-12 1
v 25.8661 4.15 -57.3492
vt 27.5591 163.386
vt 27.5591 173.228
f 81/122/13 86/125/13 85/126/13

f 80/8/13 86/125/13 81/122/13

v 26.8661 4.15 -57.3492
vt 66.9291 163.386
f 86/125/13 80/8/13 87/127/13

v 27.5661 4.4 -57.3492
vt 94.4882 173.228
f 80/8/13 88/128/13 87/127/13

v 27.5661 0 -57.3492
vt 94.4882 -4.91324e-31
f 88/128/13 80/8/13 89/129/13

f 80/8/1 83/33/1 89/5/1

f 83/33/1 80/8/1 82/28/1

v 27.5661 0 -61.5492
vt -94.4882 165.354
f 89/5/1 83/33/1 90/130/1

vn 1 0 -2.5071e-11
v 27.5661 4.4 -61.5492
vt 165.354 173.228
vt 165.354 0
f 83/36/14 91/131/14 90/132/14

vt 275.591 173.228
f 91/131/14 83/36/14 84/133/14

vt 94.4882 165.354
f 84/29/6 88/22/6 91/134/6

v 26.8661 4.4 -57.3492
vt 66.9291 2.11298e-09
f 84/29/6 92/135/6 88/22/6

f 84/29/6 85/124/6 92/135/6

vt 66.9291 173.228
f 86/125/5 92/136/5 85/126/5

f 92/136/5 86/125/5 87/127/5

f 87/127/13 88/128/13 92/136/13

vt 1.57927e-09 173.228
vn 1 0 1.6714e-11
f 88/137/15 90/132/15 91/131/15

vt 1.57927e-09 0
f 90/132/15 88/137/15 89/138/15

g Mesh18 Group6 Model

l 84 79

l 91 84

l 88 91

l 92 88

l 85 92

l 81 85

l 80 81

l 82 80

l 83 82

l 90 83

l 89 90

l 80 89

l 89 88

l 90 91

l 83 84

l 82 79

l 79 81

l 86 85

l 87 86

l 92 87

g Mesh19 Group7 Model

vt -2.27374e-12 295.276
v 25.1661 4.4 -64.3492
v 25.1661 4.4 -67.0492
vt 0 200.787
f 2/139/1 93/53/1 94/140/1

v 25.1661 4.4 -61.9492
f 93/53/1 2/139/1 95/8/1

v 26.5161 4.4 -64.3492
vt -53.1496 94.4882
f 95/8/1 2/139/1 96/141/1

vt -53.1496 295.276
f 96/141/1 2/139/1 4/142/1

vt -2.27374e-12 125.984
f 9/143/8 4/4/8 2/2/8

vt -53.1496 125.984
f 4/4/8 9/143/8 10/144/8

v 26.5161 7.6 -64.3492
vt 53.1496 94.4882
vt 53.1496 295.276
vt 2.27374e-12 295.276
f 97/145/6 10/146/6 9/147/6

v 26.5161 7.6 -67.2492
vt 53.1496 208.661
f 10/146/6 97/145/6 98/148/6

v 26.5161 4.4 -67.2492
vt 208.661 0
vt 208.661 125.984
f 97/21/2 99/149/2 98/150/2

f 99/149/2 97/21/2 96/22/2

vn 1.80739e-11 0 -1
v 27.5661 4.4 -64.3492
f 97/144/16 100/5/16 96/4/16

v 27.5661 7.6 -64.3492
f 100/5/16 97/144/16 101/11/16

v 27.5661 7.6 -61.9492
vt 94.4882 94.4882
f 97/145/6 102/22/6 101/151/6

v 25.1661 7.6 -67.0492
f 103/140/6 102/22/6 97/145/6

v 25.1661 7.6 -64.3492
f 104/53/6 102/22/6 103/140/6

v 25.1661 7.6 -61.9492
f 102/22/6 104/53/6 105/8/6

f 104/11/7 95/8/7 105/7/7

f 95/8/7 104/11/7 93/5/7

vt -200.787 125.984
f 103/152/7 93/5/7 104/11/7

vt -200.787 0
f 93/5/7 103/152/7 94/153/7

vt -295.276 125.984
vn -1 0 -2.40637e-14
f 9/154/17 94/153/17 103/152/17

vt -295.276 0
f 94/153/17 9/154/17 2/155/17

f 103/140/6 97/145/6 9/147/6

f 95/8/5 102/21/5 105/7/5

v 27.5661 4.4 -61.9492
f 102/21/5 95/8/5 106/22/5

f 95/8/1 96/141/1 106/5/1

vt -94.4882 94.4882
f 106/5/1 96/141/1 100/156/1

f 100/22/2 102/7/2 106/8/2

f 102/7/2 100/22/2 101/21/2

vt -53.1496 208.661
f 96/141/1 4/142/1 99/157/1

vt 295.276 0
f 4/158/2 98/150/2 99/149/2

vt 295.276 125.984
f 98/150/2 4/158/2 10/159/2

g Mesh20 Group7 Model

l 106 95

l 100 106

l 100 96

l 100 101

l 101 97

l 101 102

l 102 105

l 106 102

l 104 105

l 103 104

l 9 103

l 9 10

l 2 9

l 2 94

l 2 4

l 99 4

l 96 99

l 96 97

l 97 98

l 98 10

l 99 98

l 4 10

l 94 93

l 94 103

l 93 95

l 93 104

l 95 105

g Mesh21 Group8 Model

v 22.9661 6.9 -71.4492
vt -118.11 98.4252
v 24.4661 5.6 -71.4492
vt -177.165 47.2441
v 22.9661 5.6 -71.4492
vt -118.11 47.2441
f 107/160/8 108/161/8 109/162/8

v 24.4661 6.9 -71.4492
vt -177.165 98.4252
f 108/161/8 107/160/8 110/163/8

v 19.9661 7.6 -71.4492
f 107/160/8 111/70/8 110/163/8

v 22.2661 6.9 -71.4492
vt -90.5512 98.4252
f 112/164/8 111/70/8 107/160/8

v 20.7661 6.9 -71.4492
vt -31.4961 98.4252
f 113/165/8 111/70/8 112/164/8

v 20.7661 5.6 -71.4492
vt -31.4961 47.2441
f 114/166/8 111/70/8 113/165/8

v 19.9661 4.4 -71.4492
f 114/166/8 115/55/8 111/70/8

v 25.1661 4.4 -71.4492
f 115/55/8 114/166/8 116/54/8

f 108/161/8 116/54/8 114/166/8

v 25.1661 7.6 -71.4492
f 116/54/8 108/161/8 117/51/8

f 117/51/8 108/161/8 110/163/8

f 117/51/8 110/163/8 111/70/8

vt 5.68434e-14 173.228
v 25.1661 7.6 -67.0492
vt 204.724 173.228
f 111/167/6 118/61/6 117/168/6

v 19.9661 7.6 -67.0492
f 118/61/6 111/167/6 119/63/6

v 19.9661 6.8 -68.4492
vt -55.1181 94.4882
vn -1 -2.78586e-18 -1.14487e-16
vt -6.50783e-30 125.984
vt -173.228 125.984
f 120/169/18 119/170/18 111/171/18

v 19.9661 4.4 -67.0492
vt -6.50783e-30 -1.58358e-31
f 119/170/18 120/169/18 121/172/18

v 19.9661 5.5 -68.4492
vt -55.1181 43.3071
f 122/173/18 121/172/18 120/169/18

vt -173.228 -1.03108e-31
f 121/172/18 122/173/18 115/174/18

v 19.9661 5.5 -69.9492
vt -114.173 43.3071
f 115/174/18 122/173/18 123/175/18

v 19.9661 6.8 -69.9492
vt -114.173 94.4882
f 122/173/7 124/176/7 123/175/7

f 124/176/7 122/173/7 120/169/7

f 120/169/18 111/171/18 124/176/18

f 124/176/18 111/171/18 123/175/18

f 115/174/18 123/175/18 111/171/18

vt -204.724 173.228
vt -5.68434e-14 173.228
f 116/177/1 121/55/1 115/178/1

v 25.1661 4.4 -67.0492
f 121/55/1 116/177/1 125/54/1

v 25.1661 4.4 -69.4492
vt -204.724 94.4882
f 125/54/1 116/177/1 126/179/1

vt 173.228 0
vn 1 0 -2.88765e-14
v 25.1661 7.6 -69.4492
f 116/180/19 127/21/19 126/22/19

vt 173.228 125.984
f 127/21/19 116/180/19 117/181/19

vt 204.724 94.4882
f 117/168/6 118/61/6 127/182/6

vt 4.92643e-12 125.984
vn 1 0 2.40637e-14
f 118/183/20 126/22/20 127/21/20

vt 4.92643e-12 0
f 126/22/20 118/183/20 125/184/20

f 118/68/5 121/63/5 125/61/5

f 121/63/5 118/68/5 119/69/5

v 22.2661 5.6 -71.4492
vt -90.5512 47.2441
f 108/161/8 114/166/8 128/185/8

f 113/165/8 128/185/8 114/166/8

f 128/185/8 113/165/8 112/164/8

f 112/164/8 109/162/8 128/185/8

f 109/162/8 112/164/8 107/160/8

f 108/161/8 128/185/8 109/162/8

g Mesh22 Group8 Model

l 110 107

l 108 110

l 109 108

l 107 109

g Mesh23 Group8 Model

l 113 114

l 112 113

l 128 112

l 114 128

g Mesh24 Group8 Model

l 118 119

l 118 125

l 127 118

l 126 127

l 125 126

l 125 121

l 121 119

l 121 115

l 116 115

l 126 116

l 116 117

l 117 111

l 117 127

l 115 111

l 111 119

g Mesh25 Group8 Model

l 124 123

l 120 124

l 122 120

l 123 122

g Mesh26 Group9 Model

vt -122.047 212.598
v 19.9661 7.6 -56.1492
vt -5.68434e-14 2.23849e-09
vt -5.68434e-14 212.598
f 42/186/1 129/187/1 40/188/1

v 25.1661 7.6 -56.1492
vt -204.724 2.23849e-09
f 129/187/1 42/186/1 130/189/1

v 25.1661 7.6 -61.5492
vt -204.724 212.598
f 130/189/1 42/186/1 131/190/1

f 43/76/8 131/54/8 42/73/8

v 25.1661 10.8 -61.5492
f 131/54/8 43/76/8 132/51/8

vt 122.047 212.598
v 25.1661 10.8 -56.1492
vt 204.724 2.23849e-09
vt 204.724 212.598
f 43/191/6 133/192/6 132/193/6

vt 5.68434e-14 212.598
f 49/194/6 133/192/6 43/191/6

v 19.9661 10.8 -56.1492
vt 5.68434e-14 2.23849e-09
f 133/192/6 49/194/6 134/195/6

v 19.9661 10 -58.2492
vn -1 -6.896e-17 1.18034e-16
vt -2.23849e-09 125.984
vt -212.598 125.984
f 135/107/21 134/196/21 49/197/21

vt -2.23849e-09 -3.91992e-30
f 134/196/21 135/107/21 129/198/21

v 19.9661 8.7 -58.2492
f 136/105/21 129/198/21 135/107/21

vt -212.598 -5.65039e-30
f 129/198/21 136/105/21 40/199/21

v 19.9661 8.7 -60.6492
f 40/199/21 136/105/21 137/114/21

v 19.9661 10 -60.6492
f 136/105/7 138/109/7 137/114/7

f 138/109/7 136/105/7 135/107/7

f 138/109/7 136/105/7 135/107/7

f 136/105/7 138/109/7 137/114/7

f 138/109/21 49/197/21 137/114/21

f 135/107/21 49/197/21 138/109/21

f 40/199/21 137/114/21 49/197/21

f 49/70/8 42/73/8 40/55/8

f 42/73/8 49/70/8 43/76/8

v 20.6661 8.8 -56.1492
f 129/63/5 139/90/5 134/69/5

v 24.3661 8.8 -56.1492
f 139/90/5 129/63/5 140/95/5

f 130/61/5 140/95/5 129/63/5

f 140/95/5 130/61/5 133/68/5

v 25.1661 7.6 -57.3492
vt 2.23849e-09 125.984
vt 2.23849e-09 0
f 141/99/2 133/200/2 130/201/2

v 25.1661 10.8 -57.3492
f 133/200/2 141/99/2 142/100/2

vt 212.598 0
f 131/202/2 142/100/2 141/99/2

vt 212.598 125.984
f 142/100/2 131/202/2 132/203/2

f 132/193/6 133/192/6 142/98/6

f 130/189/1 131/190/1 141/102/1

v 24.3661 10.1 -56.1492
f 140/95/5 133/68/5 143/94/5

v 22.8661 10.1 -56.1492
f 143/94/5 133/68/5 144/93/5

v 22.1661 10.1 -56.1492
f 144/93/5 133/68/5 145/89/5

v 20.6661 10.1 -56.1492
f 145/89/5 133/68/5 146/92/5

f 134/69/5 146/92/5 133/68/5

f 134/69/5 139/90/5 146/92/5

vn -2.40714e-11 -4.84236e-12 1
f 139/90/22 145/89/22 146/92/22

v 22.1661 8.8 -56.1492
f 145/89/22 139/90/22 147/91/22

v 22.8661 8.8 -56.1492
f 139/90/5 148/120/5 147/91/5

f 139/90/5 140/95/5 148/120/5

vn 3.37104e-11 -4.84014e-12 1
f 143/94/23 148/120/23 140/95/23

f 148/120/23 143/94/23 144/93/23

f 144/93/5 147/91/5 148/120/5

f 147/91/5 144/93/5 145/89/5

g Mesh27 Group9 Model

l 141 131

l 130 141

l 129 130

l 40 129

l 42 40

l 131 42

l 131 132

l 142 132

l 141 142

l 133 142

l 130 133

l 134 133

l 129 134

l 49 134

l 40 49

l 43 49

l 132 43

l 42 43

g Mesh28 Group9 Model

l 147 139

l 147 145

l 146 145

l 139 146

g Mesh29 Group9 Model

l 144 143

l 148 144

l 140 148

l 143 140

g Mesh30 Group9 Model

l 135 138

l 136 135

l 137 136

l 137 138

g Mesh31 Group10 Model

vn 1.80927e-28 -5.07327e-12 1
v 26.8661 7.6 -57.3492
vt 66.9291 -8.46921e-21
v 27.5661 7.6 -57.3492
vt 94.4882 -8.46921e-21
f 21/21/24 149/204/24 150/205/24

v 26.8661 8.65 -57.3492
f 149/204/24 21/21/24 151/44/24

v 25.8661 8.65 -57.3492
f 151/44/24 21/21/24 152/30/24

v 26.8661 10.55 -57.3492
vt 66.9291 116.142
f 152/30/24 21/21/24 153/206/24

v 26.8661 10.8 -57.3492
vt 66.9291 125.984
f 153/206/24 21/21/24 154/207/24

v 27.5661 10.8 -61.9492
vt 94.4882 181.102
vt 66.9291 0
vt 94.4882 1.66938e-09
f 155/208/6 154/209/6 21/210/6

v 25.8661 10.8 -57.3492
vt 27.5591 0
f 155/208/6 156/211/6 154/209/6

v 25.1661 10.8 -61.9492
vt 0 181.102
f 157/212/6 156/211/6 155/208/6

v 25.1661 10.8 -61.5492
vt 0 165.354
f 158/213/6 156/211/6 157/212/6

vt 0 1.66938e-09
f 156/211/6 158/213/6 12/214/6

vt -165.354 125.984
v 25.1661 7.6 -57.3492
vt -1.66938e-09 0
vt -1.66938e-09 125.984
f 158/215/7 159/216/7 12/217/7

v 25.1661 7.6 -61.5492
vt -165.354 0
f 159/216/7 158/215/7 160/218/7

vt -181.102 125.984
f 157/219/7 160/218/7 158/215/7

v 25.1661 7.6 -61.9492
vt -181.102 0
f 160/218/7 157/219/7 161/220/7

v 27.5661 7.6 -61.9492
f 157/7/8 162/5/8 161/8/8

f 162/5/8 157/7/8 155/11/8

vt 1.66938e-09 125.984
vt 181.102 0
vt 181.102 125.984
f 21/221/2 162/222/2 155/223/2

vt 1.66938e-09 0
f 162/222/2 21/221/2 150/224/2

vt -94.4882 181.102
vt -94.4882 1.66938e-09
f 149/35/1 162/225/1 150/226/1

v 25.8661 7.6 -57.3492
f 163/34/1 162/225/1 149/35/1

f 159/214/1 162/225/1 163/34/1

f 160/213/1 162/225/1 159/214/1

f 162/225/1 160/213/1 161/212/1

vt 3.02036e-37 -8.46921e-21
vt 27.5591 -8.46921e-21
f 152/30/24 159/227/24 163/228/24

vt 3.02036e-37 125.984
f 159/227/24 152/30/24 12/229/24

v 25.8661 10.55 -57.3492
vt 27.5591 116.142
f 12/229/24 152/30/24 164/230/24

f 164/230/24 152/30/24 153/206/24

vn -7.07141e-40 -1.69609e-10 1
f 154/207/25 164/230/25 153/206/25

vt 27.5591 125.984
f 164/230/25 154/207/25 156/231/25

f 12/229/24 164/230/24 156/231/24

f 163/211/5 151/44/5 152/30/5

f 151/44/5 163/211/5 149/209/5

g Mesh32 Group10 Model

l 163 159

l 163 152

l 163 149

l 150 149

l 150 21

l 162 150

l 161 162

l 161 157

l 160 161

l 160 158

l 159 160

l 159 12

l 156 12

l 164 156

l 153 164

l 154 153

l 21 154

l 155 21

l 157 155

l 158 157

l 12 158

l 162 155

l 154 156

l 149 151

l 151 152

g Mesh33 Group11 Model

v 19.9661 2.6 -63.5492
vt -291.339 102.362
v 19.9661 1.3 -62.0492
vt -232.283 51.1811
v 19.9661 2.6 -62.0492
vt -232.283 102.362
f 165/232/7 166/233/7 167/234/7

v 19.9661 1.3 -63.5492
vt -291.339 51.1811
f 166/233/7 165/232/7 168/235/7

v 19.9661 4.4 -64.3492
vt -322.835 173.228
f 165/232/7 169/236/7 168/235/7

f 167/234/7 169/236/7 165/232/7

v 19.9661 0 -56.1492
f 170/8/7 169/236/7 167/234/7

f 169/236/7 170/8/7 60/122/7

v 20.7661 1.3 -56.1492
vt 31.4961 51.1811
f 170/8/5 171/237/5 60/122/5

v 24.5661 1.3 -56.1492
vt 181.102 51.1811
f 171/237/5 170/8/5 172/238/5

v 25.1661 0 -56.1492
f 173/61/5 172/238/5 170/8/5

v 25.1661 4.4 -56.1492
f 172/238/5 173/61/5 174/168/5

v 25.1661 0 -57.3492
f 175/99/2 174/122/2 173/8/2

v 25.1661 4.4 -57.3492
vt 47.2441 173.228
f 174/122/2 175/99/2 176/239/2

v 25.1661 0 -64.3492
f 177/116/2 176/239/2 175/99/2

v 25.1661 4.4 -64.3492
vt 322.835 173.228
f 176/239/2 177/116/2 178/240/2

f 177/54/8 169/122/8 178/177/8

v 19.9661 0 -64.3492
f 169/122/8 177/54/8 179/8/8

vt 0 322.835
f 177/103/1 170/8/1 179/241/1

f 170/8/1 177/103/1 173/54/1

f 173/54/1 177/103/1 175/102/1

f 170/8/7 166/233/7 179/106/7

f 166/233/7 170/8/7 167/234/7

f 179/106/7 166/233/7 168/235/7

f 179/106/7 168/235/7 169/236/7

f 169/241/6 174/61/6 178/97/6

f 174/61/6 169/241/6 60/8/6

v 20.7661 2.6 -56.1492
vt 31.4961 102.362
f 60/122/5 180/242/5 174/168/5

f 60/122/5 171/237/5 180/242/5

v 22.2661 2.6 -56.1492
vt 90.5512 102.362
f 171/237/5 181/243/5 180/242/5

v 22.2661 1.3 -56.1492
vt 90.5512 51.1811
f 181/243/5 171/237/5 182/244/5

v 23.0661 1.3 -56.1492
vt 122.047 51.1811
f 171/237/5 183/245/5 182/244/5

f 171/237/5 172/238/5 183/245/5

v 24.5661 2.6 -56.1492
vt 181.102 102.362
f 184/246/5 183/245/5 172/238/5

v 23.0661 2.6 -56.1492
vt 122.047 102.362
f 183/245/5 184/246/5 185/247/5

f 184/246/5 174/168/5 185/247/5

f 172/238/5 174/168/5 184/246/5

f 185/247/5 174/168/5 181/243/5

f 181/243/5 174/168/5 180/242/5

f 182/244/5 185/247/5 181/243/5

f 185/247/5 182/244/5 183/245/5

f 178/97/6 174/61/6 176/98/6

g Mesh34 Group11 Model

l 168 166

l 165 168

l 167 165

l 166 167

g Mesh35 Group11 Model

l 172 184

l 183 172

l 185 183

l 184 185

g Mesh36 Group11 Model

l 177 175

l 179 177

l 170 179

l 173 170

l 175 173

l 175 176

l 178 176

l 169 178

l 60 169

l 174 60

l 176 174

l 173 174

l 170 60

l 179 169

l 177 178

g Mesh37 Group11 Model

l 171 182

l 180 171

l 181 180

l 182 181

g Mesh38 Group12 Model

v 25.8661 7.6 -57.3492
vt 27.5591 3.51292e-09
v 25.1661 7.6 -57.3492
f 186/248/6 105/212/6 187/8/6

f 105/212/6 186/248/6 102/208/6

v 26.8661 7.6 -57.3492
vt 66.9291 3.51292e-09
f 102/208/6 186/248/6 188/249/6

v 25.8661 7.35 -57.3492
f 189/230/5 188/207/5 186/231/5

v 26.8661 7.35 -57.3492
f 188/207/5 189/230/5 190/206/5

vn 2.94854e-26 1.95319e-11 1
v 25.8661 5.45 -57.3492
f 189/230/26 191/30/26 190/206/26

f 187/7/26 191/30/26 189/230/26

v 25.1661 4.4 -57.3492
f 192/8/26 191/30/26 187/7/26

v 25.8661 4.4 -57.3492
vt 27.5591 -1.58715e-35
f 191/30/26 192/8/26 193/250/26

vt -27.5591 0
f 192/8/1 106/225/1 193/251/1

f 106/225/1 192/8/1 95/212/1

f 192/8/7 105/219/7 95/220/7

f 105/219/7 192/8/7 187/7/7

f 105/7/8 106/5/8 95/8/8

f 106/5/8 105/7/8 102/11/8

v 27.5661 7.6 -57.3492
f 194/7/2 106/222/2 102/223/2

v 27.5661 4.4 -57.3492
f 106/222/2 194/7/2 195/8/2

v 26.8661 4.4 -57.3492
vt 66.9291 -3.8545e-35
vt 94.4882 -5.44165e-35
f 194/21/26 196/252/26 195/253/26

v 26.8661 5.45 -57.3492
f 196/252/26 194/21/26 197/44/26

f 197/44/26 194/21/26 191/30/26

f 191/30/26 194/21/26 190/206/26

f 190/206/26 194/21/26 188/207/26

f 102/208/6 188/249/6 194/22/6

f 193/211/5 197/44/5 191/30/5

f 197/44/5 193/211/5 196/209/5

vt -66.9291 0
f 193/251/1 106/225/1 196/254/1

f 196/254/1 106/225/1 195/5/1

f 187/7/26 189/230/26 186/231/26

g Mesh39 Group12 Model

l 191 197

l 193 191

l 193 196

l 192 193

l 192 95

l 192 187

l 187 186

l 187 105

l 102 105

l 102 194

l 106 102

l 106 95

l 106 195

l 195 194

l 196 195

l 197 196

l 188 194

l 186 188

l 189 186

l 190 189

l 188 190

l 95 105

g Mesh40 Group13 Model

v 30.1661 1.3 -60.0492
vt 106.299 51.1811
v 30.1661 2.3 -59.0492
vt 66.9291 90.5512
v 30.1661 1.3 -59.0492
vt 66.9291 51.1811
f 198/255/2 199/256/2 200/257/2

v 30.1661 2.3 -60.0492
vt 106.299 90.5512
f 199/256/2 198/255/2 201/258/2

v 30.1661 0 -61.5492
f 198/255/2 202/132/2 201/258/2

f 200/257/2 202/132/2 198/255/2

v 30.1661 0 -57.3492
f 200/257/2 203/8/2 202/132/2

v 30.1661 4.4 -57.3492
f 203/8/2 200/257/2 204/122/2

f 199/256/2 204/122/2 200/257/2

v 30.1661 4.4 -61.5492
f 204/122/2 199/256/2 205/131/2

f 205/131/2 199/256/2 201/258/2

f 205/131/2 201/258/2 202/132/2

vt -102.362 0
v 27.5661 4.4 -61.5492
vt -2.76373e-09 173.228
vt -102.362 173.228
f 202/259/8 206/260/8 205/261/8

v 27.5661 0 -61.5492
vt -2.76373e-09 0
f 206/260/8 202/259/8 207/262/8

vt -2.76373e-09 165.354
vt -102.362 165.354
f 203/259/1 207/263/1 202/264/1

v 27.5661 0 -57.3492
vt 0 1.7094e-09
f 207/263/1 203/259/1 208/265/1

vt 102.362 173.228
vn -1.66995e-11 0 1
vt -2.8546e-20 0
vt 102.362 0
f 204/266/27 208/267/27 203/268/27

v 27.5661 4.4 -57.3492
vt -2.8546e-20 173.228
f 208/267/27 204/266/27 209/269/27

vt 2.76373e-09 165.354
f 204/268/6 206/270/6 209/265/6

vt 102.362 165.354
f 206/270/6 204/268/6 205/271/6

vt -165.354 173.228
vn -1 0 -1.6714e-11
vt -1.7094e-09 0
vt -1.7094e-09 173.228
f 206/272/28 208/273/28 209/274/28

f 208/273/28 206/272/28 207/218/28

g Mesh41 Group13 Model

l 198 201

l 200 198

l 199 200

l 201 199

g Mesh42 Group13 Model

l 202 207

l 202 205

l 203 202

l 203 204

l 208 203

l 208 207

l 208 209

l 209 206

l 209 204

l 204 205

l 205 206

l 207 206

g Mesh43 Group14 Model

v 26.2161 7.6 -64.3492
vt -124.016 110.236
v 25.1661 7.6 -61.9492
vt -82.6772 15.748
v 25.1661 7.6 -64.3492
vt -82.6772 110.236
f 210/275/1 211/276/1 212/277/1

v 26.2161 7.6 -63.3492
vt -124.016 70.8661
f 211/276/1 210/275/1 213/278/1

v 26.2161 10.8 -63.3492
vt 70.8661 125.984
vt 70.8661 0
f 210/74/2 214/279/2 213/280/2

v 26.2161 10.8 -64.3492
f 214/279/2 210/74/2 215/75/2

vt -124.016 0
vn 1.74634e-11 0 -1
v 25.1661 10.8 -64.3492
vt -82.6772 125.984
vt -124.016 125.984
f 210/281/29 216/282/29 215/283/29

vt -82.6772 0
f 216/282/29 210/281/29 212/284/29

v 23.0661 10.8 -64.3492
f 212/284/8 217/7/8 216/282/8

v 23.0661 7.6 -64.3492
f 217/7/8 212/284/8 218/8/8

v 23.0661 7.6 -61.5492
f 212/277/1 219/8/1 218/25/1

v 25.1661 7.6 -61.5492
f 219/8/1 212/277/1 220/284/1

f 220/284/1 212/277/1 211/276/1

vt 15.748 0
v 25.1661 10.8 -61.5492
f 211/285/2 221/7/2 220/8/2

v 25.1661 10.8 -61.9492
vt 15.748 125.984
f 221/7/2 211/285/2 222/286/2

vt 82.6772 0
v 27.5661 10.8 -61.9492
vt 177.165 125.984
vt 82.6772 125.984
f 211/287/5 223/288/5 222/289/5

v 27.5661 7.6 -61.9492
vt 177.165 0
f 223/288/5 211/287/5 224/290/5

vt -177.165 15.748
f 211/276/1 213/278/1 224/291/1

v 27.5661 7.6 -63.3492
vt -177.165 70.8661
f 224/291/1 213/278/1 225/292/1

vt -177.165 0
f 214/283/8 225/293/8 213/281/8

v 27.5661 10.8 -63.3492
vt -177.165 125.984
f 225/293/8 214/283/8 226/294/8

vt 124.016 70.8661
vt 177.165 15.748
vt 177.165 70.8661
f 214/295/6 223/296/6 226/297/6

vt 82.6772 110.236
f 216/298/6 223/296/6 214/295/6

vt 82.6772 15.748
f 216/298/6 222/299/6 223/296/6

f 216/298/6 221/287/6 222/299/6

f 217/25/6 221/287/6 216/298/6

v 23.0661 10.8 -61.5492
f 221/287/6 217/25/6 227/8/6

f 217/79/7 219/8/7 227/7/7

vt -110.236 0
f 219/8/7 217/79/7 218/300/7

f 219/8/5 221/289/5 227/7/5

f 221/289/5 219/8/5 220/287/5

vt 124.016 110.236
f 215/301/6 216/298/6 214/295/6

f 223/286/2 225/280/2 226/279/2

f 225/280/2 223/286/2 224/285/2

g Mesh44 Group14 Model

l 218 219

l 212 218

l 212 210

l 212 216

l 216 217

l 216 215

l 214 215

l 226 214

l 226 223

l 225 226

l 225 224

l 225 213

l 213 210

l 213 214

l 210 215

l 211 224

l 220 211

l 220 219

l 220 221

l 221 222

l 221 227

l 217 227

l 218 217

l 219 227

l 222 223

l 211 222

l 224 223

g Mesh45 Group15 Model

v 27.5661 4.4 -64.3492
v 30.1661 0 -64.3492
v 27.5661 0 -64.3492
f 228/122/8 229/259/8 230/8/8

v 30.1661 4.4 -64.3492
f 229/259/8 228/122/8 231/261/8

v 27.5661 4.4 -61.5492
vt 2.76373e-09 0
vt 102.362 110.236
f 232/302/6 231/303/6 228/25/6

v 30.1661 4.4 -61.5492
f 231/303/6 232/302/6 233/268/6

v 27.5661 0 -61.5492
vt 2.76373e-09 173.228
f 234/302/5 233/266/5 232/304/5

v 30.1661 0 -61.5492
f 233/266/5 234/302/5 235/268/5

vt -102.362 110.236
f 234/262/1 229/305/1 235/259/1

f 229/305/1 234/262/1 230/25/1

vt 6.92893e-20 0
vn -1 0 2.5071e-11
vt -110.236 173.228
f 234/306/30 228/307/30 230/300/30

vt 6.92893e-20 173.228
f 228/307/30 234/306/30 232/308/30

v 30.1661 1.3 -61.7492
vt 7.87402 51.1811
f 236/309/2 235/8/2 229/74/2

f 235/8/2 236/309/2 233/122/2

v 30.1661 2.6 -61.7492
vt 7.87402 102.362
f 237/310/2 233/122/2 236/309/2

vt 110.236 173.228
f 233/122/2 237/310/2 231/311/2

v 30.1661 2.6 -62.7492
vt 47.2441 102.362
f 231/311/2 237/310/2 238/312/2

v 30.1661 1.3 -62.7492
vt 47.2441 51.1811
f 237/310/2 239/313/2 238/312/2

f 239/313/2 237/310/2 236/309/2

f 236/309/2 229/74/2 239/313/2

f 239/313/2 229/74/2 238/312/2

f 231/311/2 238/312/2 229/74/2

g Mesh46 Group15 Model

l 236 237

l 239 236

l 238 239

l 237 238

g Mesh47 Group15 Model

l 230 228

l 229 230

l 229 231

l 235 229

l 235 234

l 235 233

l 233 231

l 233 232

l 234 232

l 234 230

l 232 228

l 231 228

g Mesh48 Group16 Model

v 30.1661 5.5 -60.0492
vt 106.299 43.3071
v 30.1661 6.5 -59.0492
vt 66.9291 82.6772
v 30.1661 5.5 -59.0492
vt 66.9291 43.3071
f 240/314/2 241/315/2 242/316/2

v 30.1661 6.5 -60.0492
vt 106.299 82.6772
f 241/315/2 240/314/2 243/317/2

v 30.1661 5.5 -61.7492
vt 173.228 43.3071
f 240/314/2 244/318/2 243/317/2

v 30.1661 4.4 -64.3492
f 240/314/2 245/36/2 244/318/2

f 242/316/2 245/36/2 240/314/2

v 30.1661 4.4 -57.3492
f 242/316/2 246/8/2 245/36/2

v 30.1661 7.6 -57.3492
f 246/8/2 242/316/2 247/7/2

f 241/315/2 247/7/2 242/316/2

v 30.1661 7.6 -64.3492
vt 275.591 125.984
f 247/7/2 241/315/2 248/319/2

f 248/319/2 241/315/2 243/317/2

v 30.1661 6.5 -61.7492
vt 173.228 82.6772
f 248/319/2 243/317/2 249/320/2

f 249/320/2 243/317/2 244/318/2

v 30.1661 5.5 -62.7492
vt 212.598 43.3071
f 250/321/2 249/320/2 244/318/2

v 30.1661 6.5 -62.7492
vt 212.598 82.6772
f 249/320/2 250/321/2 251/322/2

f 250/321/2 245/36/2 251/322/2

f 244/318/2 245/36/2 250/321/2

f 248/319/2 251/322/2 245/36/2

f 248/319/2 249/320/2 251/322/2

vn 1.80656e-11 0 -1
v 27.5661 7.6 -64.3492
vt 4.9787e-09 125.984
vt -102.362 125.984
f 245/259/31 252/323/31 248/324/31

v 27.5661 4.4 -64.3492
vt 4.9787e-09 0
f 252/323/31 245/259/31 253/325/31

vt -102.362 275.591
v 27.5661 4.4 -61.9492
f 245/326/1 254/212/1 253/28/1

v 27.5661 4.4 -57.3492
f 254/212/1 245/326/1 255/8/1

f 255/8/1 245/326/1 246/259/1

vt 102.362 125.984
f 247/327/5 255/8/5 246/268/5

v 27.5661 7.6 -57.3492
f 255/8/5 247/327/5 256/7/5

v 27.5661 7.6 -61.9492
f 247/268/6 257/212/6 256/8/6

f 257/212/6 247/268/6 252/28/6

vt 102.362 275.591
f 252/28/6 247/268/6 248/328/6

vt -275.591 125.984
f 252/329/7 254/220/7 257/219/7

f 254/220/7 252/329/7 253/26/7

f 255/8/7 257/219/7 254/220/7

f 257/219/7 255/8/7 256/7/7

g Mesh49 Group16 Model

l 241 242

l 243 241

l 240 243

l 242 240

g Mesh50 Group16 Model

l 251 249

l 250 251

l 244 250

l 249 244

g Mesh51 Group16 Model

l 246 247

l 246 245

l 255 246

l 255 256

l 254 255

l 253 254

l 245 253

l 245 248

l 247 248

l 256 247

l 257 256

l 252 257

l 253 252

l 248 252

l 254 257

g Mesh52 Group17 Model

v 27.5661 7.6 -71.4492
vt -94.4882 100.984
v 25.1661 7.6 -68.8842
v 25.1661 7.6 -71.4492
vt 0 100.984
f 258/330/1 259/8/1 260/331/1

v 27.5661 7.6 -68.8842
f 259/8/1 258/330/1 261/5/1

vt 100.984 0
v 27.5661 10.8 -68.8842
f 258/332/2 262/7/2 261/8/2

v 27.5661 10.8 -71.4492
vt 100.984 125.984
f 262/7/2 258/332/2 263/333/2

v 25.1661 10.8 -71.4492
f 258/5/8 264/7/8 263/11/8

f 264/7/8 258/5/8 260/8/8

vt -100.984 125.984
vt -100.984 0
f 259/8/7 264/334/7 260/335/7

v 25.1661 10.8 -68.8842
f 264/334/7 259/8/7 265/7/7

f 259/8/5 262/21/5 265/7/5

f 262/21/5 259/8/5 261/22/5

f 262/22/6 264/331/6 265/8/6

vt 94.4882 100.984
f 264/331/6 262/22/6 263/336/6

g Mesh53 Group17 Model

l 258 260

l 261 258

l 259 261

l 260 259

l 260 264

l 263 264

l 262 263

l 265 262

l 264 265

l 259 265

l 261 262

l 258 263

g Mesh54 Group18 Model

vt -94.4882 178.543
v 25.1661 7.6 -64.3492
vt 0 7.21911e-10
vt 0 178.543
f 261/337/1 266/338/1 259/339/1

v 26.2161 7.6 -66.1492
vt -41.3386 70.8661
f 266/338/1 261/337/1 267/340/1

v 27.5661 7.6 -66.1492
vt -94.4882 70.8661
f 267/340/1 261/337/1 268/341/1

vt 178.543 0
vn 1 0 3.39243e-11
v 27.5661 10.8 -66.1492
f 261/342/32 269/279/32 268/280/32

vt 178.543 125.984
f 269/279/32 261/342/32 262/343/32

f 261/5/8 265/7/8 262/11/8

f 265/7/8 261/5/8 259/8/8

vt -7.21911e-10 0
vt -178.543 125.984
vt -178.543 0
f 266/344/7 265/345/7 259/346/7

v 25.1661 10.8 -64.3492
vt -7.21911e-10 125.984
f 265/345/7 266/344/7 270/347/7

vt -1.2607e-20 0
vn -1.74634e-11 0 1
v 26.2161 10.8 -64.3492
vt 41.3386 125.984
vt -1.2607e-20 125.984
f 266/348/33 271/349/33 270/350/33

v 26.2161 7.6 -64.3492
vt 41.3386 0
f 271/349/33 266/348/33 272/351/33

vt -41.3386 0
f 272/352/1 266/338/1 267/340/1

f 267/280/2 271/7/2 272/8/2

v 26.2161 10.8 -66.1492
f 271/7/2 267/280/2 273/279/2

f 267/351/5 269/21/5 273/349/5

f 269/21/5 267/351/5 268/22/5

vt 94.4882 178.543
vt 41.3386 70.8661
vt 94.4882 70.8661
f 262/353/6 273/354/6 269/355/6

f 265/339/6 273/354/6 262/353/6

f 265/339/6 271/351/6 273/354/6

f 271/351/6 265/339/6 270/338/6

g Mesh55 Group18 Model

l 266 272

l 259 266

l 259 261

l 259 265

l 265 262

l 265 270

l 270 271

l 266 270

l 273 271

l 273 269

l 267 273

l 267 268

l 267 272

l 272 271

l 268 261

l 268 269

l 269 262

l 261 262

g Mesh56 Group19 Model

v 30.1661 5.5 -71.1492
vt 153.543 43.3071
v 30.1661 6.8 -69.6492
v 30.1661 5.5 -69.6492
vt 94.4882 43.3071
f 274/356/2 275/151/2 276/357/2

v 30.1661 6.8 -71.1492
vt 153.543 94.4882
f 275/151/2 274/356/2 277/358/2

vn 1 0 1.80725e-11
v 30.1661 4.4 -71.4492
f 274/356/34 278/132/34 277/358/34

f 276/357/34 278/132/34 274/356/34

v 30.1661 5.5 -69.0492
vt 70.8661 43.3071
f 279/359/34 278/132/34 276/357/34

v 30.1661 5.5 -67.5492
vt 11.811 43.3071
f 280/360/34 278/132/34 279/359/34

v 30.1661 4.4 -67.2492
vt 2.59704e-09 0
f 280/360/34 281/361/34 278/132/34

v 30.1661 7.6 -67.2492
vt 2.59704e-09 125.984
f 281/361/34 280/360/34 282/362/34

v 30.1661 6.8 -67.5492
vt 11.811 94.4882
f 283/363/34 282/362/34 280/360/34

v 30.1661 7.6 -71.4492
vt 165.354 125.984
f 282/362/34 283/363/34 284/364/34

v 30.1661 6.8 -69.0492
vt 70.8661 94.4882
f 284/364/34 283/363/34 285/365/34

f 283/363/2 279/359/2 285/365/2

f 279/359/2 283/363/2 280/360/2

f 279/359/34 276/357/34 285/365/34

f 275/151/34 285/365/34 276/357/34

f 284/364/34 285/365/34 275/151/34

f 284/364/34 275/151/34 277/358/34

f 284/364/34 277/358/34 278/132/34

vt -143.701 0
vn 3.4745e-11 0 -1
v 27.5661 7.6 -71.4492
vt -41.3386 125.984
vt -143.701 125.984
f 278/366/35 286/367/35 284/368/35

v 27.5661 4.4 -71.4492
f 286/367/35 278/366/35 287/352/35

vt -143.701 165.354
v 27.5661 4.4 -69.4492
vt -41.3386 86.6142
vt -41.3386 165.354
f 278/369/1 288/370/1 287/371/1

f 288/370/1 278/369/1 281/366/1

f 99/8/1 288/370/1 281/366/1

v 26.5161 4.4 -69.4492
vt 0 86.6142
f 288/370/1 99/8/1 289/372/1

v 26.5161 7.6 -69.4492
vt -86.6142 125.984
vt -86.6142 0
f 99/8/7 290/373/7 289/374/7

f 290/373/7 99/8/7 98/7/7

vt 143.701 125.984
f 99/8/5 282/375/5 98/7/5

vt 143.701 0
f 282/375/5 99/8/5 281/376/5

f 282/376/6 290/372/6 98/8/6

v 27.5661 7.6 -69.4492
vt 41.3386 86.6142
f 290/372/6 282/376/6 291/377/6

vt 41.3386 165.354
f 291/377/6 282/376/6 286/378/6

vt 143.701 165.354
f 286/378/6 282/376/6 284/379/6

f 286/215/7 288/374/7 291/373/7

f 288/374/7 286/215/7 287/218/7

f 288/352/8 290/7/8 291/367/8

f 290/7/8 288/352/8 289/8/8

g Mesh57 Group19 Model

l 276 274

l 275 276

l 277 275

l 274 277

g Mesh58 Group19 Model

l 278 287

l 278 284

l 281 278

l 99 281

l 99 289

l 99 98

l 98 290

l 98 282

l 282 284

l 281 282

l 284 286

l 287 286

l 288 287

l 289 288

l 289 290

l 290 291

l 288 291

l 291 286

g Mesh59 Group19 Model

l 285 283

l 279 285

l 280 279

l 283 280

g Mesh60 Group20 Model

vt -53.1496 110.236
vt 0 39.3701
f 268/380/1 272/381/1 267/25/1

v 26.2161 7.6 -63.3492
f 272/381/1 268/380/1 292/8/1

v 27.5661 7.6 -63.3492
f 292/8/1 268/380/1 293/4/1

v 27.5661 8.9 -64.9492
vt 62.9921 51.1811
f 294/382/2 293/8/2 268/74/2

v 27.5661 10.8 -63.3492
f 293/8/2 294/382/2 295/7/2

v 27.5661 9.8 -64.9492
vt 62.9921 86.6142
f 296/383/2 295/7/2 294/382/2

f 295/7/2 296/383/2 269/75/2

v 27.5661 9.8 -65.8492
vt 98.4252 86.6142
f 269/75/2 296/383/2 297/384/2

v 27.5661 8.9 -65.8492
vt 98.4252 51.1811
f 296/383/2 298/385/2 297/384/2

f 298/385/2 296/383/2 294/382/2

f 294/382/2 268/74/2 298/385/2

f 298/385/2 268/74/2 297/384/2

f 269/75/2 297/384/2 268/74/2

f 268/4/8 273/7/8 269/144/8

f 273/7/8 268/4/8 267/8/8

vt -39.3701 0
f 272/386/7 273/79/7 267/300/7

vt -39.3701 125.984
f 273/79/7 272/386/7 271/387/7

f 292/8/7 271/387/7 272/386/7

v 26.2161 10.8 -63.3492
f 271/387/7 292/8/7 299/7/7

f 292/8/5 295/18/5 299/7/5

f 295/18/5 292/8/5 293/20/5

f 295/20/6 271/381/6 299/8/6

f 271/381/6 295/20/6 273/25/6

vt 53.1496 110.236
f 273/25/6 295/20/6 269/388/6

g Mesh61 Group20 Model

l 272 292

l 267 272

l 267 268

l 267 273

l 273 271

l 273 269

l 295 269

l 299 295

l 271 299

l 272 271

l 292 299

l 292 293

l 293 268

l 293 295

l 268 269

g Mesh62 Group20 Model

l 298 294

l 297 298

l 296 297

l 294 296

g Mesh63 Group21 Model

v 30.1661 7.6 -64.3492
vn -1.80656e-11 0 1
v 30.1661 4.4 -64.3492
f 300/375/36 100/351/36 301/376/36

f 100/351/36 300/375/36 101/349/36

vt 143.701 114.173
vt 41.3386 1.849e-09
f 282/389/6 101/390/6 300/376/6

vt 0 114.173
f 98/391/6 101/390/6 282/389/6

vt 0 2.59661e-09
f 101/390/6 98/391/6 97/392/6

vt -114.173 125.984
vt -2.59661e-09 0
vt -2.59661e-09 125.984
f 98/393/7 96/394/7 97/395/7

vt -114.173 0
f 96/394/7 98/393/7 99/396/7

f 98/7/8 281/366/8 99/8/8

f 281/366/8 98/7/8 282/368/8

vt 114.173 125.984
v 30.1661 6.8 -66.6492
vt 90.5512 94.4882
vt 114.173 0
f 282/397/2 302/398/2 281/399/2

v 30.1661 6.8 -65.1492
vt 31.4961 94.4882
f 282/397/2 303/400/2 302/398/2

f 300/7/2 303/400/2 282/397/2

v 30.1661 5.5 -65.1492
vt 31.4961 43.3071
f 303/400/2 300/7/2 304/401/2

f 301/8/2 304/401/2 300/7/2

f 304/401/2 301/8/2 281/399/2

vt -41.3386 1.849e-09
vt -143.701 114.173
f 100/402/1 281/403/1 301/366/1

f 96/392/1 281/403/1 100/402/1

f 281/403/1 96/392/1 99/391/1

vn -1.80739e-11 0 1
vt -4.69309e-20 0
f 101/349/37 96/404/37 100/351/37

vt -4.69309e-20 125.984
f 96/404/37 101/349/37 97/405/37

v 30.1661 5.5 -66.6492
vt 90.5512 43.3071
f 304/401/2 281/399/2 305/406/2

f 305/406/2 281/399/2 302/398/2

f 303/400/2 305/406/2 302/398/2

f 305/406/2 303/400/2 304/401/2

g Mesh64 Group21 Model

l 100 101

l 301 100

l 301 300

l 281 301

l 281 282

l 99 281

l 96 99

l 100 96

l 96 97

l 101 97

l 300 101

l 282 300

l 98 282

l 97 98

l 99 98

g Mesh65 Group21 Model

l 302 303

l 305 302

l 304 305

l 303 304

g Mesh66 Group22 Model

v 24.4661 6.99 -56.1492
vt 876.618 105.906
v 22.9661 6.91 -56.1492
vt 817.563 102.756
v 24.4661 6.91 -56.1492
vt 876.618 102.756
f 306/407/5 307/408/5 308/409/5

v 22.9661 6.99 -56.1492
vt 817.563 105.906
f 307/408/5 306/407/5 309/410/5

vt 817.563 2210.6
v 24.4661 6.99 -55.3492
vt 876.618 2179.1
vt 876.618 2210.6
f 309/411/6 310/412/6 306/413/6

v 22.9661 6.99 -55.3492
vt 817.563 2179.1
f 310/412/6 309/411/6 311/414/6

vt -2210.6 105.906
v 22.9661 6.91 -55.3492
vt -2179.1 102.756
vt -2179.1 105.906
f 309/415/7 312/416/7 311/417/7

vt -2210.6 102.756
f 312/416/7 309/415/7 307/418/7

vt -876.618 2210.6
vt -817.563 2179.1
vt -817.563 2210.6
f 308/419/1 312/420/1 307/421/1

v 24.4661 6.91 -55.3492
vt -876.618 2179.1
f 312/420/1 308/419/1 313/422/1

vt 2210.6 102.756
vt 2179.1 105.906
vt 2179.1 102.756
f 308/423/2 310/424/2 313/425/2

vt 2210.6 105.906
f 310/424/2 308/423/2 306/426/2

f 310/407/5 312/408/5 313/409/5

f 312/408/5 310/407/5 311/410/5

g Mesh67 Group22 Model

l 307 308

l 309 307

l 306 309

l 308 306

l 308 313

l 312 313

l 311 312

l 310 311

l 313 310

l 306 310

l 309 311

l 307 312

g Mesh68 Group23 Model

v 22.1661 6.99 -56.1492
v 20.6661 6.91 -56.1492
v 22.1661 6.91 -56.1492
f 314/407/5 315/408/5 316/409/5

v 20.6661 6.99 -56.1492
f 315/408/5 314/407/5 317/410/5

v 22.1661 6.99 -55.3492
f 317/411/6 318/412/6 314/413/6

v 20.6661 6.99 -55.3492
f 318/412/6 317/411/6 319/414/6

v 20.6661 6.91 -55.3492
f 317/415/7 320/416/7 319/417/7

f 320/416/7 317/415/7 315/418/7

f 316/419/1 320/420/1 315/421/1

v 22.1661 6.91 -55.3492
f 320/420/1 316/419/1 321/422/1

f 316/423/2 318/424/2 321/425/2

f 318/424/2 316/423/2 314/426/2

f 318/407/5 320/408/5 321/409/5

f 320/408/5 318/407/5 319/410/5

g Mesh69 Group23 Model

l 315 316

l 317 315

l 314 317

l 316 314

l 316 321

l 320 321

l 319 320

l 318 319

l 321 318

l 314 318

l 317 319

l 315 320

g Mesh70 Group24 Model

v 24.4661 10.19 -56.1492
v 22.9661 10.11 -56.1492
v 24.4661 10.11 -56.1492
f 322/407/5 323/408/5 324/409/5

v 22.9661 10.19 -56.1492
f 323/408/5 322/407/5 325/410/5

v 24.4661 10.19 -55.3492
f 325/411/6 326/412/6 322/413/6

v 22.9661 10.19 -55.3492
f 326/412/6 325/411/6 327/414/6

v 22.9661 10.11 -55.3492
f 325/415/7 328/416/7 327/417/7

f 328/416/7 325/415/7 323/418/7

f 324/419/1 328/420/1 323/421/1

v 24.4661 10.11 -55.3492
f 328/420/1 324/419/1 329/422/1

f 324/423/2 326/424/2 329/425/2

f 326/424/2 324/423/2 322/426/2

f 326/407/5 328/408/5 329/409/5

f 328/408/5 326/407/5 327/410/5

g Mesh71 Group24 Model

l 323 324

l 325 323

l 322 325

l 324 322

l 324 329

l 328 329

l 327 328

l 326 327

l 329 326

l 322 326

l 325 327

l 323 328

g Mesh72 Group25 Model

v 22.1661 10.19 -56.1492
v 20.6661 10.11 -56.1492
v 22.1661 10.11 -56.1492
f 330/407/5 331/408/5 332/409/5

v 20.6661 10.19 -56.1492
f 331/408/5 330/407/5 333/410/5

v 22.1661 10.19 -55.3492
f 333/411/6 334/412/6 330/413/6

v 20.6661 10.19 -55.3492
f 334/412/6 333/411/6 335/414/6

v 20.6661 10.11 -55.3492
f 333/415/7 336/416/7 335/417/7

f 336/416/7 333/415/7 331/418/7

f 332/419/1 336/420/1 331/421/1

v 22.1661 10.11 -55.3492
f 336/420/1 332/419/1 337/422/1

f 332/423/2 334/424/2 337/425/2

f 334/424/2 332/423/2 330/426/2

f 334/407/5 336/408/5 337/409/5

f 336/408/5 334/407/5 335/410/5

g Mesh73 Group25 Model

l 331 332

l 333 331

l 330 333

l 332 330

l 332 337

l 336 337

l 335 336

l 334 335

l 337 334

l 330 334

l 333 335

l 331 336

g Mesh74 Group26 Model

v 22.2661 2.69 -56.1492
v 20.7661 2.61 -56.1492
v 22.2661 2.61 -56.1492
f 338/407/5 339/408/5 340/409/5

v 20.7661 2.69 -56.1492
f 339/408/5 338/407/5 341/410/5

v 22.2661 2.69 -55.3492
f 341/411/6 342/412/6 338/413/6

v 20.7661 2.69 -55.3492
f 342/412/6 341/411/6 343/414/6

v 20.7661 2.61 -55.3492
f 341/415/7 344/416/7 343/417/7

f 344/416/7 341/415/7 339/418/7

f 340/419/1 344/420/1 339/421/1

v 22.2661 2.61 -55.3492
f 344/420/1 340/419/1 345/422/1

f 340/423/2 342/424/2 345/425/2

f 342/424/2 340/423/2 338/426/2

f 342/407/5 344/408/5 345/409/5

f 344/408/5 342/407/5 343/410/5

g Mesh75 Group26 Model

l 339 340

l 341 339

l 338 341

l 340 338

l 340 345

l 344 345

l 343 344

l 342 343

l 345 342

l 338 342

l 341 343

l 339 344

g Mesh76 Group27 Model

v 24.5661 2.69 -56.1492
v 23.0661 2.61 -56.1492
v 24.5661 2.61 -56.1492
f 346/407/5 347/408/5 348/409/5

v 23.0661 2.69 -56.1492
f 347/408/5 346/407/5 349/410/5

v 24.5661 2.69 -55.3492
f 349/411/6 350/412/6 346/413/6

v 23.0661 2.69 -55.3492
f 350/412/6 349/411/6 351/414/6

v 23.0661 2.61 -55.3492
f 349/415/7 352/416/7 351/417/7

f 352/416/7 349/415/7 347/418/7

f 348/419/1 352/420/1 347/421/1

v 24.5661 2.61 -55.3492
f 352/420/1 348/419/1 353/422/1

f 348/423/2 350/424/2 353/425/2

f 350/424/2 348/423/2 346/426/2

f 350/407/5 352/408/5 353/409/5

f 352/408/5 350/407/5 351/410/5

g Mesh77 Group27 Model

l 347 348

l 349 347

l 346 349

l 348 346

l 348 353

l 352 353

l 351 352

l 350 351

l 353 350

l 346 350

l 349 351

l 347 352

g Mesh78 Group28 Model

v 19.9661 10 -69.9492
vt -220.472 94.4882
v 19.9661 8.7 -68.4492
vt -161.417 43.3071
v 19.9661 10 -68.4492
vt -161.417 94.4882
f 354/427/7 355/428/7 356/429/7

v 19.9661 8.7 -69.9492
vt -220.472 43.3071
f 355/428/7 354/427/7 357/430/7

vn -1 -3.51224e-18 -1.24747e-16
v 19.9661 10.8 -71.4492
vt -279.528 125.984
f 354/427/38 358/431/38 357/430/38

f 356/429/38 358/431/38 354/427/38

v 19.9661 10 -67.0492
f 359/47/38 358/431/38 356/429/38

v 19.9661 10 -65.5492
f 360/49/38 358/431/38 359/47/38

f 360/49/38 45/7/38 358/431/38

f 45/7/38 360/49/38 41/8/38

v 19.9661 8.7 -65.5492
f 361/48/38 41/8/38 360/49/38

v 19.9661 7.6 -71.4492
vt -279.528 1.22473e-31
f 41/8/38 361/48/38 362/432/38

v 19.9661 8.7 -67.0492
f 362/432/38 361/48/38 363/50/38

f 361/48/7 359/47/7 363/50/7

f 359/47/7 361/48/7 360/49/7

f 359/47/38 356/429/38 363/50/38

f 355/428/38 363/50/38 356/429/38

f 362/432/38 363/50/38 355/428/38

f 362/432/38 355/428/38 357/430/38

f 362/432/38 357/430/38 358/431/38

v 20.7661 8.8 -71.4492
f 364/166/8 362/8/8 358/7/8

v 25.1661 7.6 -71.4492
f 362/8/8 364/166/8 365/54/8

v 24.4661 8.8 -71.4492
f 366/161/8 365/54/8 364/166/8

v 25.1661 10.8 -71.4492
f 365/54/8 366/161/8 367/51/8

v 24.4661 10.1 -71.4492
f 367/51/8 366/161/8 368/163/8

v 22.9661 10.1 -71.4492
f 366/161/8 369/160/8 368/163/8

v 22.9661 8.8 -71.4492
f 369/160/8 366/161/8 370/162/8

v 22.2661 8.8 -71.4492
f 366/161/8 371/185/8 370/162/8

f 366/161/8 364/166/8 371/185/8

v 20.7661 10.1 -71.4492
f 372/165/8 371/185/8 364/166/8

v 22.2661 10.1 -71.4492
f 371/185/8 372/165/8 373/164/8

f 372/165/8 358/7/8 373/164/8

f 364/166/8 358/7/8 372/165/8

f 373/164/8 358/7/8 369/160/8

f 369/160/8 358/7/8 368/163/8

f 367/51/8 368/163/8 358/7/8

vt 0 279.528
vt 204.724 279.528
f 358/433/6 44/84/6 367/434/6

f 44/84/6 358/433/6 45/8/6

f 41/8/5 44/87/5 45/7/5

f 44/87/5 41/8/5 39/84/5

vt -204.724 279.528
f 41/8/1 365/435/1 39/73/1

f 365/435/1 41/8/1 362/433/1

v 25.1661 7.6 -64.3492
f 39/73/1 365/435/1 374/54/1

v 25.1661 7.6 -68.8842
vt -204.724 178.543
f 374/54/1 365/435/1 375/436/1

vt 279.528 0
v 25.1661 10.8 -68.8842
f 365/437/2 376/343/2 375/342/2

vt 279.528 125.984
f 376/343/2 365/437/2 367/438/2

v 25.1661 10.8 -64.3492
vt 204.724 178.543
f 367/434/6 377/61/6 376/439/6

f 367/434/6 44/84/6 377/61/6

f 39/84/5 377/68/5 44/87/5

f 377/68/5 39/84/5 374/61/5

f 375/342/2 377/7/2 374/8/2

f 377/7/2 375/342/2 376/343/2

f 370/162/8 373/164/8 369/160/8

f 373/164/8 370/162/8 371/185/8

g Mesh79 Group28 Model

l 356 354

l 355 356

l 357 355

l 354 357

g Mesh80 Group28 Model

l 363 359

l 363 361

l 361 360

l 360 359

g Mesh81 Group28 Model

l 362 358

l 41 362

l 39 41

l 374 39

l 375 374

l 365 375

l 365 367

l 362 365

l 367 376

l 358 367

l 45 358

l 44 45

l 39 44

l 377 44

l 376 377

l 375 376

l 374 377

l 41 45

g Mesh82 Group28 Model

l 366 368

l 370 366

l 370 369

l 368 369

g Mesh83 Group28 Model

l 372 364

l 373 372

l 371 373

l 364 371

