<?xml version="1.0" encoding="utf-8"?>
<!-- Generator: Adobe Illustrator 27.3.0, SVG Export Plug-In . SVG Version: 6.00 Build 0)  -->
<svg version="1.1" id="Layer_1" xmlns="http://www.w3.org/2000/svg" xmlns:xlink="http://www.w3.org/1999/xlink" x="0px" y="0px"
	 viewBox="0 0 24 24" style="enable-background:new 0 0 24 24;" xml:space="preserve">
<path d="M9.9,5.2L5.4,5.4L7,7L3,10.9L4.1,12L8,8.1l1.6,1.6L9.9,5.2z"/>
<rect x="0" y="22" width="24" height="2"/>
<rect x="2.3" y="18.4" transform="matrix(6.123234e-17 -1 1 6.123234e-17 -12.9418 25.82)" width="8.3" height="2"/>
<rect x="5.4" y="15.2" width="8" height="2"/>
<rect x="8.6" y="12.4" transform="matrix(6.123234e-17 -1 1 6.123234e-17 -0.9241 25.809)" width="7.7" height="2"/>
<rect x="11.4" y="9.5" width="8" height="2"/>
<rect x="14.7" y="6.7" transform="matrix(6.123234e-17 -1 1 6.123234e-17 10.8554 26.2228)" width="7.7" height="2"/>
<rect x="17.5" y="3.8" width="6.5" height="2"/>
</svg>
