# Alias OBJ Model File
# Exported from SketchUp, (c) 2000-2012 Trimble Navigation Limited
# File units = meters

mtllib 민석팀장님께7.mtl

g Mesh1 Group1 Model

usemtl FrontColor
v 12.1974 7.6 -59.2696
vt -204.724 212.598
vn 0 -1 -0
v 6.99745 7.6 -53.8696
vt 0 0
v 6.99745 7.6 -59.2696
vt 0 212.598
f 1/1/1 2/2/1 3/3/1

v 12.1974 7.6 -53.8696
vt -204.724 0
f 2/2/1 1/1/1 4/4/1

vt 212.598 0
vn 1 0 -0
v 12.1974 10.8 -53.8696
vt 0 125.984
f 1/5/2 5/6/2 4/2/2

v 12.1974 10.8 -59.2696
vt 212.598 125.984
f 5/6/2 1/5/2 6/7/2

vn 0 0 -1
v 6.99745 10.8 -59.2696
vt -204.724 125.984
f 1/4/3 7/6/3 6/8/3

f 7/6/3 1/4/3 3/2/3

vt -212.598 0
vn -1 0 -0
v 6.99745 8.71495 -58.3696
vt -177.165 43.8958
vt -212.598 125.984
f 3/9/4 8/10/4 7/11/4

v 6.99745 8.71495 -55.9696
vt -82.6772 43.8958
f 3/9/4 9/12/4 8/10/4

f 2/2/4 9/12/4 3/9/4

v 6.99745 10.015 -55.9696
vt -82.6772 95.0769
f 9/12/4 2/2/4 10/13/4

v 6.99745 10.8 -53.8696
f 11/6/4 10/13/4 2/2/4

f 10/13/4 11/6/4 7/11/4

vt 204.724 0
vn 0 1 -0
f 5/14/5 7/3/5 11/2/5

vt 204.724 212.598
f 7/3/5 5/14/5 6/15/5

vn 0 0 1
v 7.71945 9.96996 -53.8696
vt 28.4255 93.3057
vt 204.724 125.984
f 11/6/6 12/16/6 5/17/6

v 7.71945 8.66996 -53.8696
vt 28.4255 42.1246
f 11/6/6 13/18/6 12/16/6

f 2/2/6 13/18/6 11/6/6

v 11.4195 8.66996 -53.8696
vt 174.095 42.1246
f 13/18/6 2/2/6 14/19/6

f 4/14/6 14/19/6 2/2/6

f 14/19/6 4/14/6 5/17/6

v 11.4195 9.96996 -53.8696
vt 174.095 93.3057
f 14/19/6 5/17/6 15/20/6

v 9.91945 9.96996 -53.8696
vt 115.04 93.3057
f 15/20/6 5/17/6 16/21/6

v 9.21945 9.96996 -53.8696
vt 87.4806 93.3057
f 16/21/6 5/17/6 17/22/6

f 17/22/6 5/17/6 12/16/6

f 13/18/6 17/22/6 12/16/6

v 9.21945 8.66996 -53.8696
vt 87.4806 42.1246
f 17/22/6 13/18/6 18/23/6

v 9.91945 8.66996 -53.8696
vt 115.04 42.1246
f 13/18/6 19/24/6 18/23/6

f 13/18/6 14/19/6 19/24/6

f 15/20/6 19/24/6 14/19/6

f 19/24/6 15/20/6 16/21/6

f 16/21/6 18/23/6 19/24/6

f 18/23/6 16/21/6 17/22/6

v 6.99745 10.015 -58.3696
vt -177.165 95.0769
f 10/13/4 7/11/4 20/25/4

f 20/25/4 7/11/4 8/10/4

f 9/12/4 20/25/4 8/10/4

f 20/25/4 9/12/4 10/13/4

g Mesh2 Group1 Model

l 17 18

l 12 17

l 13 12

l 18 13

g Mesh3 Group1 Model

l 16 19

l 16 15

l 15 14

l 14 19

g Mesh4 Group1 Model

l 2 3

l 4 2

l 1 4

l 3 1

l 3 7

l 7 6

l 11 7

l 5 11

l 6 5

l 1 6

l 4 5

l 2 11

g Mesh5 Group1 Model

l 8 20

l 9 8

l 10 9

l 20 10

g Mesh6 Group2 Model

v 6.99745 7.6 -64.7696
v 6.99745 6.56968 -66.1696
vt -55.1181 85.4207
v 6.99745 4.4 -64.7696
f 21/6/4 22/26/4 23/2/4

v 6.99745 7.6 -69.1696
vt -173.228 125.984
f 22/26/4 21/6/4 24/27/4

v 12.1974 7.6 -64.7696
vt 0 173.228
f 25/14/5 24/28/5 21/2/5

v 12.1974 7.6 -69.1696
vt 204.724 173.228
f 24/28/5 25/14/5 26/29/5

v 12.1974 4.4 -69.1696
vt 173.228 0
vt 173.228 125.984
f 25/6/2 27/30/2 26/31/2

v 12.1974 4.4 -64.7696
f 27/30/2 25/6/2 28/2/2

f 25/17/6 23/2/6 28/14/6

f 23/2/6 25/17/6 21/6/6

vt -204.724 173.228
f 23/2/1 27/32/1 28/4/1

v 6.99745 4.4 -69.1696
f 27/32/1 23/2/1 29/28/1

v 6.99745 5.26968 -66.1696
vt -55.1181 34.2396
vt -173.228 0
f 23/2/4 30/33/4 29/34/4

f 30/33/4 23/2/4 22/26/4

v 6.99745 6.56968 -67.6696
vt -114.173 85.4207
f 31/35/4 30/33/4 22/26/4

v 6.99745 5.26968 -67.6696
vt -114.173 34.2396
f 30/33/4 31/35/4 32/36/4

f 31/35/4 24/27/4 32/36/4

f 22/26/4 24/27/4 31/35/4

f 29/34/4 32/36/4 24/27/4

f 29/34/4 30/33/4 32/36/4

v 7.63629 5.51448 -69.1696
vt -25.1512 43.8772
f 33/37/3 29/2/3 24/6/3

f 29/2/3 33/37/3 27/4/3

v 11.3363 5.51448 -69.1696
vt -170.82 43.8772
f 34/38/3 27/4/3 33/37/3

f 27/4/3 34/38/3 26/8/3

v 11.3363 6.81448 -69.1696
vt -170.82 95.0583
f 26/8/3 34/38/3 35/39/3

v 9.83629 6.81448 -69.1696
vt -111.765 95.0583
f 34/38/3 36/40/3 35/39/3

v 9.83629 5.51448 -69.1696
vt -111.765 43.8772
f 36/40/3 34/38/3 37/41/3

v 9.13629 5.51448 -69.1696
vt -84.2063 43.8772
f 34/38/3 38/42/3 37/41/3

f 34/38/3 33/37/3 38/42/3

v 7.63629 6.81448 -69.1696
vt -25.1512 95.0583
f 39/43/3 38/42/3 33/37/3

v 9.13629 6.81448 -69.1696
vt -84.2063 95.0583
f 38/42/3 39/43/3 40/44/3

f 39/43/3 24/6/3 40/44/3

f 33/37/3 24/6/3 39/43/3

f 40/44/3 24/6/3 36/40/3

f 36/40/3 24/6/3 35/39/3

f 26/8/3 35/39/3 24/6/3

f 37/41/3 40/44/3 36/40/3

f 40/44/3 37/41/3 38/42/3

g Mesh7 Group2 Model

l 22 30

l 22 31

l 31 32

l 32 30

g Mesh8 Group2 Model

l 29 27

l 29 24

l 23 29

l 23 21

l 28 23

l 27 28

l 27 26

l 24 26

l 21 24

l 25 21

l 26 25

l 28 25

g Mesh9 Group2 Model

l 38 33

l 40 38

l 39 40

l 33 39

g Mesh10 Group2 Model

l 34 37

l 35 34

l 36 35

l 37 36

g Mesh11 Group3 Model

v 17.1974 7.6 -64.9696
vt 143.701 0
v 13.5474 7.6 -67.1696
vt 0 86.6142
v 13.5474 7.6 -64.9696
f 41/45/5 42/46/5 43/2/5

v 14.5974 7.6 -67.1696
vt 41.3386 86.6142
f 42/46/5 41/45/5 44/47/5

v 17.1974 7.6 -69.1696
vt 143.701 165.354
f 45/48/5 44/47/5 41/45/5

v 14.5974 7.6 -69.1696
vt 41.3386 165.354
f 44/47/5 45/48/5 46/49/5

vt -143.701 125.984
vn 4.56582e-33 6.57761e-17 -1
v 14.5974 4.4 -69.1696
vt -41.3386 1.75453e-14
vt -41.3386 125.984
f 45/50/7 47/51/7 46/52/7

v 17.1974 4.4 -69.1696
vt -143.701 -1.08764e-14
f 47/51/7 45/50/7 48/53/7

vt 165.354 125.984
v 17.1974 6.99376 -68.6782
vt 146.005 102.116
vt 165.354 0
f 45/54/2 49/55/2 48/56/2

v 17.1974 6.99376 -67.1782
vt 86.9498 102.116
f 45/54/2 50/57/2 49/55/2

v 17.1974 6.99376 -66.8712
vt 74.8632 102.116
f 45/54/2 51/58/2 50/57/2

v 17.1974 6.99376 -65.3712
vt 15.8081 102.116
f 45/54/2 52/59/2 51/58/2

f 41/6/2 52/59/2 45/54/2

v 17.1974 5.69376 -65.3712
vt 15.8081 50.9353
f 52/59/2 41/6/2 53/60/2

v 17.1974 4.4 -64.9696
f 54/2/2 53/60/2 41/6/2

f 53/60/2 54/2/2 48/56/2

vt -143.701 9.01301e-31
vn -6.62108e-17 -1 -9.47288e-17
v 14.5974 4.4 -67.1696
vt -41.3386 86.6142
vt -143.701 165.354
f 54/61/8 55/62/8 48/63/8

v 13.5474 4.4 -64.9696
f 56/2/8 55/62/8 54/61/8

v 13.5474 4.4 -67.1696
f 55/62/8 56/2/8 57/46/8

vt -86.6142 125.984
vt -86.6142 0
f 56/2/4 42/64/4 57/65/4

f 42/64/4 56/2/4 43/6/4

vn 0 -6.57761e-17 1
vt 143.701 125.984
f 56/2/9 41/66/9 43/6/9

f 41/66/9 56/2/9 54/45/9

vt -2.85841e-12 125.984
vn -3.30017e-14 1.96829e-31 -1
vt -41.3386 2.84217e-14
vt -2.85841e-12 -1.70482e-29
f 42/67/10 55/68/10 57/69/10

f 55/68/10 42/67/10 44/52/10

vt -165.354 125.984
vn -1 0 1.15506e-14
vt -86.6142 2.84217e-14
f 46/70/11 55/71/11 44/64/11

vt -165.354 2.84217e-14
f 55/71/11 46/70/11 47/72/11

vt -41.3386 165.354
f 48/63/8 55/62/8 47/73/8

v 17.1974 5.69376 -66.8712
vt 74.8632 50.9353
f 53/60/2 48/56/2 58/74/2

v 17.1974 5.69376 -67.1782
vt 86.9498 50.9353
f 58/74/2 48/56/2 59/75/2

v 17.1974 5.69376 -68.6782
vt 146.005 50.9353
f 59/75/2 48/56/2 60/76/2

f 60/76/2 48/56/2 49/55/2

f 50/57/2 60/76/2 49/55/2

f 60/76/2 50/57/2 59/75/2

f 50/57/2 51/58/2 59/75/2

f 58/74/2 59/75/2 51/58/2

f 52/59/2 58/74/2 51/58/2

f 58/74/2 52/59/2 53/60/2

g Mesh12 Group3 Model

l 46 44

l 46 45

l 47 46

l 47 55

l 47 48

l 54 48

l 56 54

l 57 56

l 55 57

l 44 55

l 42 44

l 42 43

l 57 42

l 43 41

l 56 43

l 41 45

l 54 41

l 48 45

g Mesh13 Group3 Model

l 52 51

l 52 53

l 53 58

l 58 51

g Mesh14 Group3 Model

l 59 60

l 50 59

l 50 49

l 60 49

g Mesh15 Group4 Model

vn 0 3.28881e-17 -1
v 17.1974 4.4 -64.9696
vt -143.701 3.75494e-15
vt 0 3.75494e-15
f 43/6/12 61/77/12 56/78/12

v 17.1974 7.6 -64.9696
f 61/77/12 43/6/12 62/50/12

vt -3.292e-15 114.173
vn 2.61302e-17 1 3.28881e-17
v 17.1974 7.6 -62.0696
vt 143.701 4.14338e-15
vt 143.701 114.173
f 43/79/13 63/80/13 62/81/13

v 13.5474 7.6 -62.0696
vt -3.292e-15 4.14338e-15
f 63/80/13 43/79/13 64/82/13

vt -114.173 125.984
vn -1 2.61302e-17 -0
v 13.5474 4.4 -62.0696
vt 0 7.50987e-15
f 43/83/14 65/84/14 64/6/14

vt -114.173 7.50987e-15
f 65/84/14 43/83/14 56/85/14

vt -143.701 114.173
vn -2.61302e-17 -1 -3.28881e-17
vt 1.96235e-31 2.46985e-31
vt 1.96235e-31 114.173
f 61/86/15 65/87/15 56/88/15

v 17.1974 4.4 -62.0696
vt -143.701 1.23493e-31
f 65/87/15 61/86/15 66/89/15

v 17.1974 5.60996 -62.7653
vt 27.3876 47.6363
vn 1 -2.61302e-17 -1.71875e-33
vt -2.46985e-31 3.75494e-15
vt 114.173 1.12648e-14
f 67/90/16 66/91/16 61/92/16

vt -2.46985e-31 125.984
f 66/91/16 67/90/16 63/93/16

v 17.1974 6.90996 -62.7653
vt 27.3876 98.8174
f 68/94/16 63/93/16 67/90/16

vt 114.173 125.984
f 63/93/16 68/94/16 62/95/16

v 17.1974 6.90996 -64.2653
vt 86.4427 98.8174
f 62/95/16 68/94/16 69/96/16

v 17.1974 5.60996 -64.2653
vt 86.4427 47.6363
f 68/94/16 70/97/16 69/96/16

f 70/97/16 68/94/16 67/90/16

f 67/90/16 61/92/16 70/97/16

f 70/97/16 61/92/16 69/96/16

f 62/95/16 69/96/16 61/92/16

vn -1.71875e-33 -3.28881e-17 1
vt 143.701 -8.12287e-48
f 63/66/17 65/84/17 66/98/17

f 65/84/17 63/66/17 64/6/17

g Mesh16 Group4 Model

l 62 43

l 63 62

l 64 63

l 43 64

l 56 43

l 61 56

l 61 62

l 66 61

l 65 66

l 56 65

l 65 64

l 66 63

g Mesh17 Group4 Model

l 70 69

l 67 70

l 68 67

l 68 69

g Mesh18 Group5 Model

v 13.5474 4.4 -67.1696
vt 476.378 1.72524e-14
vn 1 -3.24601e-16 -0
v 13.5474 7.6 -62.0696
vt 275.591 125.984
v 13.5474 4.4 -62.0696
vt 275.591 1.72524e-14
f 71/99/18 72/100/18 73/101/18

v 13.5474 7.6 -67.1696
vt 476.378 125.984
f 72/100/18 71/99/18 74/102/18

v 12.1974 4.4 -67.1696
vt -1.13687e-13 3.53078e-14
vn -7.72989e-33 -1.44552e-17 -1
vt -53.1496 125.984
vt -53.1496 6.88612e-15
f 75/103/19 74/104/19 71/105/19

v 12.1974 7.6 -67.1696
vt -1.13687e-13 125.984
f 74/104/19 75/103/19 76/106/19

v 12.1974 4.4 -55.0696
vt -2.27374e-12 2.84217e-14
vn -1 3.24601e-16 -1.19324e-16
vt -476.378 125.984
vt -476.378 2.84217e-14
f 77/107/20 76/108/20 75/109/20

v 12.1974 7.6 -55.0696
vt -2.27374e-12 125.984
f 76/108/20 77/107/20 78/110/20

vt -4.2307e-26 2.84217e-14
vn -1.86068e-14 3.02953e-15 1
v 12.8557 5.7 -55.0696
vt 25.9152 51.1811
vt 1.13687e-13 125.984
f 77/111/21 79/112/21 78/113/21

v 12.8557 4.4 -55.0696
vt 25.9152 2.84217e-14
f 79/112/21 77/111/21 80/114/21

vt -1.13687e-13 476.378
vn -3.17812e-16 -1 3.07867e-17
vt -25.9152 1.36424e-12
vt 9.03277e-30 2.27374e-12
f 75/115/22 80/116/22 77/117/22

vt -53.1496 476.378
f 80/116/22 75/115/22 71/118/22

vt -53.1496 275.591
f 80/116/22 71/118/22 73/119/22

v 13.8557 4.4 -55.0696
vt -65.2853 1.36424e-12
f 80/116/22 73/119/22 81/120/22

v 14.5974 4.4 -62.0696
vt -94.4882 275.591
f 81/120/22 73/119/22 82/121/22

vn 0 -1.44552e-17 -1
vt -94.4882 3.98371e-15
vt -53.1496 3.98371e-15
f 72/104/23 82/122/23 73/123/23

v 14.5974 7.6 -62.0696
vt -94.4882 125.984
f 82/122/23 72/104/23 83/124/23

vt 53.1496 275.591
v 13.8916 7.6 -55.0696
vt 66.6976 1.81899e-12
vt 94.4882 275.591
f 72/125/5 84/126/5 83/127/5

v 12.8916 7.6 -55.0696
vt 27.3276 1.81899e-12
f 84/126/5 72/125/5 85/128/5

vt 53.1496 476.378
f 74/129/5 85/128/5 72/125/5

vt 1.13687e-13 476.378
f 76/130/5 85/128/5 74/129/5

vt 1.13687e-13 2.27374e-12
f 85/128/5 76/130/5 78/131/5

v 12.8916 7.35 -55.0696
vt 27.3276 116.142
vt 27.3276 125.984
f 78/113/21 86/132/21 85/133/21

f 78/113/21 79/112/21 86/132/21

v 13.8916 7.35 -55.0696
vt 66.6976 116.142
f 86/132/21 79/112/21 87/134/21

v 14.5974 7.6 -55.0696
vt 94.4882 125.984
f 79/112/21 88/135/21 87/134/21

v 13.8557 5.7 -55.0696
vt 65.2853 51.1811
f 89/136/21 88/135/21 79/112/21

vt 65.2853 2.84217e-14
f 81/137/21 88/135/21 89/136/21

v 14.5974 4.4 -55.0696
vt 94.4882 5.32629e-27
f 88/135/21 81/137/21 90/138/21

vt -94.4882 -9.24508e-31
f 81/120/22 82/121/22 90/139/22

vt 275.591 3.0671e-14
vt 0 3.0671e-14
f 82/140/18 88/6/18 90/141/18

f 88/6/18 82/140/18 83/100/18

vt 94.4882 0
f 83/127/5 84/126/5 88/142/5

vt 66.6976 125.984
f 87/134/21 88/135/21 84/143/21

f 84/143/6 86/132/6 87/134/6

f 86/132/6 84/143/6 85/133/6

vn -5.77529e-15 -4.44253e-15 1
f 89/136/24 80/114/24 81/137/24

f 80/114/24 89/136/24 79/112/24

g Mesh19 Group5 Model

l 75 76

l 75 77

l 71 75

l 73 71

l 73 72

l 82 73

l 82 83

l 90 82

l 90 88

l 81 90

l 81 89

l 80 81

l 77 80

l 77 78

l 76 78

l 74 76

l 71 74

l 72 74

l 83 72

l 88 83

l 84 88

l 84 87

l 85 84

l 78 85

l 86 85

l 86 87

l 79 80

l 89 79

g Mesh20 Group6 Model

v 14.5974 7.6 -67.1696
vt 94.4882 1.36424e-12
v 12.1974 7.6 -69.1696
vt 1.81899e-12 78.7402
v 12.1974 7.6 -67.1696
f 91/144/5 92/145/5 93/2/5

v 14.5974 7.6 -69.1696
vt 94.4882 78.7402
f 92/145/5 91/144/5 94/146/5

vt 2.72848e-13 125.984
vn 1 0 -1.15506e-14
vt 78.7402 0
vt 78.7402 125.984
f 91/147/25 47/148/25 94/149/25

v 14.5974 4.4 -67.1696
vt 2.72848e-13 0
f 47/148/25 91/147/25 95/150/25

vn 1.44382e-14 0 1
v 12.1974 4.4 -67.1696
f 91/135/26 96/2/26 95/142/26

f 96/2/26 91/135/26 93/6/26

vt -78.7402 125.984
vn -1 0 -2.31012e-14
f 92/151/27 96/2/27 93/6/27

v 12.1974 4.4 -69.1696
vt -78.7402 0
f 96/2/27 92/151/27 97/152/27

vt -2.19795e-12 125.984
vn -4.81274e-15 0 -1
vt -94.4882 0
vt -2.19795e-12 0
f 92/153/28 47/154/28 97/155/28

f 47/154/28 92/153/28 94/124/28

vt -94.4882 1.36424e-12
vt -1.81899e-12 78.7402
vt -94.4882 78.7402
f 95/156/1 97/157/1 47/158/1

f 97/157/1 95/156/1 96/2/1

g Mesh21 Group6 Model

l 91 93

l 94 91

l 92 94

l 93 92

l 96 93

l 95 96

l 95 91

l 47 95

l 47 94

l 97 47

l 97 92

l 96 97

g Mesh22 Group7 Model

vt -102.362 275.591
vn -4.9748e-17 -1 8.7723e-18
v 14.5974 4.4 -55.0696
vt 3.73601e-31 -6.58789e-32
v 14.5974 4.4 -62.0696
vt 1.33063e-31 275.591
f 66/159/29 98/160/29 99/161/29

v 17.1974 4.4 -55.0696
vt -102.362 -4.46713e-32
f 98/160/29 66/159/29 100/162/29

v 17.1974 5.90991 -56.4683
vt 55.0667 59.4451
vt 275.591 0
f 101/163/2 100/2/2 66/164/2

v 17.1974 7.6 -55.0696
f 100/2/2 101/163/2 102/6/2

v 17.1974 6.90991 -56.4683
vt 55.0667 98.8152
f 103/165/2 102/6/2 101/163/2

v 17.1974 7.6 -62.0696
f 102/6/2 103/165/2 104/100/2

v 17.1974 6.90991 -57.4683
vt 94.4368 98.8152
f 104/100/2 103/165/2 105/166/2

v 17.1974 5.90991 -57.4683
vt 94.4368 59.4451
f 103/165/2 106/167/2 105/166/2

f 106/167/2 103/165/2 101/163/2

f 101/163/2 66/164/2 106/167/2

f 106/167/2 66/164/2 105/166/2

f 104/100/2 105/166/2 66/164/2

vt -6.31715e-32 5.09231e-15
vn -2.29222e-34 -8.7723e-18 -1
vt -102.362 125.984
vt -102.362 2.41756e-15
f 99/168/30 104/169/30 66/170/30

v 14.5974 7.6 -62.0696
vt -6.31715e-32 125.984
f 104/169/30 99/168/30 107/171/30

vn -1 4.9748e-17 -8.72808e-34
vt -275.591 125.984
vt -275.591 2.67475e-15
f 98/84/31 107/172/31 99/173/31

v 14.5974 7.6 -55.0696
f 107/172/31 98/84/31 108/6/31

vn 6.43586e-34 8.7723e-18 1
vt 102.362 125.984
f 98/84/32 102/174/32 108/6/32

vt 102.362 -5.77909e-49
f 102/174/32 98/84/32 100/175/32

vt 102.362 -1.10517e-15
vn 4.9748e-17 1 -8.7723e-18
vt -6.26746e-15 275.591
vt -6.26746e-15 -1.10517e-15
f 102/176/33 107/177/33 108/178/33

vt 102.362 275.591
f 107/177/33 102/176/33 104/179/33

g Mesh23 Group7 Model

l 102 108

l 104 102

l 107 104

l 108 107

l 98 108

l 100 98

l 66 100

l 99 66

l 98 99

l 99 107

l 66 104

l 100 102

g Mesh24 Group7 Model

l 105 106

l 103 105

l 101 103

l 106 101

g Mesh25 Group8 Model

v 7.45026 0 -62.0696
vt -17.8273 322.835
v 6.99745 0 -58.7332
vt 0 191.48
v 6.99745 0 -62.0696
vt 0 322.835
f 109/180/1 110/181/1 111/182/1

v 6.99745 0 -54.5332
vt 0 26.1254
f 110/181/1 109/180/1 112/183/1

v 6.99745 0 -53.8696
f 112/183/1 109/180/1 113/2/1

v 12.1974 0 -53.8696
f 113/2/1 109/180/1 114/4/1

v 9.03026 0 -62.0696
vt -80.0321 322.835
f 114/4/1 109/180/1 115/184/1

v 7.45026 2.13 -62.0696
vt -17.8273 83.8583
vt -80.0321 0
vt -17.8273 0
f 116/185/3 115/186/3 109/187/3

v 9.03026 2.13 -62.0696
vt -80.0321 83.8583
f 115/186/3 116/185/3 117/188/3

v 6.99745 4.4 -62.0696
f 116/185/3 118/28/3 117/188/3

f 109/187/3 118/28/3 116/185/3

f 118/28/3 109/187/3 111/2/3

vt -322.835 0
v 6.99745 1.06682 -60.9908
vt -280.36 42.0008
vt -322.835 173.228
f 111/189/4 119/190/4 118/191/4

v 6.99745 1.06682 -59.4908
vt -221.305 42.0008
f 111/189/4 120/192/4 119/190/4

vt -191.48 0
f 110/193/4 120/192/4 111/189/4

v 6.99745 2.36682 -59.4908
vt -221.305 93.1819
f 120/192/4 110/193/4 121/194/4

v 6.99745 2.55 -58.7332
vt -191.48 100.394
f 122/195/4 121/194/4 110/193/4

f 122/195/4 118/191/4 121/194/4

v 6.99745 2.55 -54.5332
vt -26.1254 100.394
f 123/196/4 118/191/4 122/195/4

v 6.99745 4.4 -53.8696
f 123/196/4 124/28/4 118/191/4

f 124/28/4 123/196/4 113/2/4

vt -26.1254 0
f 112/197/4 113/2/4 123/196/4

f 122/195/4 112/197/4 123/196/4

f 112/197/4 122/195/4 110/193/4

v 7.80692 1.21296 -53.8696
vt 31.8689 47.7542
f 113/2/6 125/198/6 124/28/6

v 11.4409 1.21296 -53.8696
vt 174.94 47.7542
f 125/198/6 113/2/6 126/199/6

f 114/14/6 126/199/6 113/2/6

v 12.1974 4.4 -53.8696
f 126/199/6 114/14/6 127/29/6

v 12.1974 0 -62.0696
vt 322.835 0
f 128/200/2 127/28/2 114/2/2

v 12.1974 4.4 -62.0696
vt 322.835 173.228
f 127/28/2 128/200/2 129/201/2

f 128/4/3 117/188/3 129/32/3

f 117/188/3 128/4/3 115/186/3

vt -204.724 322.835
f 114/4/1 115/184/1 128/202/1

f 129/32/3 117/188/3 118/28/3

vt 204.724 322.835
f 118/182/5 127/14/5 129/203/5

f 127/14/5 118/182/5 124/2/5

v 7.80692 2.51296 -53.8696
vt 31.8689 98.9353
f 124/28/6 130/204/6 127/29/6

f 124/28/6 125/198/6 130/204/6

v 9.30692 2.51296 -53.8696
vt 90.924 98.9353
f 125/198/6 131/205/6 130/204/6

v 9.30692 1.21296 -53.8696
vt 90.924 47.7542
f 131/205/6 125/198/6 132/206/6

v 9.94092 1.21296 -53.8696
vt 115.885 47.7542
f 125/198/6 133/207/6 132/206/6

f 125/198/6 126/199/6 133/207/6

v 11.4409 2.51296 -53.8696
vt 174.94 98.9353
f 134/208/6 133/207/6 126/199/6

v 9.94092 2.51296 -53.8696
vt 115.885 98.9353
f 133/207/6 134/208/6 135/209/6

f 134/208/6 127/29/6 135/209/6

f 126/199/6 127/29/6 134/208/6

f 135/209/6 127/29/6 131/205/6

f 131/205/6 127/29/6 130/204/6

f 132/206/6 135/209/6 131/205/6

f 135/209/6 132/206/6 133/207/6

v 6.99745 2.36682 -60.9908
vt -280.36 93.1819
f 121/194/4 118/191/4 136/210/4

f 136/210/4 118/191/4 119/190/4

f 120/192/4 136/210/4 119/190/4

f 136/210/4 120/192/4 121/194/4

g Mesh26 Group8 Model

l 130 131

l 125 130

l 132 125

l 131 132

g Mesh27 Group8 Model

l 111 109

l 110 111

l 112 110

l 113 112

l 114 113

l 128 114

l 115 128

l 109 115

l 109 116

l 116 117

l 117 115

l 128 129

l 129 127

l 118 129

l 124 118

l 127 124

l 114 127

l 113 124

l 111 118

l 112 123

l 123 122

l 122 110

g Mesh28 Group8 Model

l 135 134

l 133 135

l 126 133

l 134 126

g Mesh29 Group8 Model

l 120 119

l 121 120

l 136 121

l 119 136

g Mesh30 Group9 Model

v 14.1945 2.07 -62.0696
vt -78.6252 81.4961
v 15.8266 7.21911e-16 -62.0696
vt -142.88 0
v 14.1945 7.21911e-16 -62.0696
vt -78.6252 0
f 137/211/3 138/212/3 139/213/3

v 15.8266 2.02 -62.0696
vt -142.88 79.5276
f 138/212/3 137/211/3 140/214/3

v 16.6366 2.02 -62.0696
vt -174.77 79.5276
f 140/214/3 137/211/3 141/215/3

v 17.1974 4.4 -62.0696
vt -196.85 173.228
f 142/216/3 141/215/3 137/211/3

v 17.1974 7.21911e-16 -62.0696
vt -196.85 0
f 143/217/3 141/215/3 142/216/3

v 16.6366 7.21911e-16 -62.0696
vt -174.77 0
f 141/215/3 143/217/3 144/218/3

v 17.1974 7.21911e-16 -59.2696
vt -196.85 165.354
vt -174.77 275.591
vt -196.85 275.591
f 145/219/1 144/220/1 143/221/1

vt -142.88 275.591
f 145/219/1 138/222/1 144/220/1

v 14.5974 7.21911e-16 -59.2696
vt -94.4882 165.354
f 146/223/1 138/222/1 145/219/1

vt -78.6252 275.591
f 138/222/1 146/223/1 139/224/1

v 14.5974 7.21911e-16 -55.0696
f 147/154/1 139/224/1 146/223/1

v 13.8163 7.21911e-16 -55.0696
vt -63.7331 0
f 148/225/1 139/224/1 147/154/1

v 12.9163 7.21911e-16 -55.0696
vt -28.3 0
f 149/226/1 139/224/1 148/225/1

v 12.4245 7.21911e-16 -62.0696
vt -8.94012 275.591
f 149/226/1 150/227/1 139/224/1

v 12.1974 7.21911e-16 -55.0696
f 151/2/1 150/227/1 149/226/1

v 12.1974 7.21911e-16 -62.0696
vt 0 275.591
f 150/227/1 151/2/1 152/228/1

v 12.1974 4.4 -62.0696
vt -275.591 173.228
vt -275.591 0
f 151/2/4 153/229/4 152/230/4

f 153/229/4 151/2/4 77/28/4

vn 1.18126e-16 -2.56448e-15 1
v 12.9163 2.43 -55.0696
vt 28.3 95.6693
f 151/2/34 154/231/34 77/28/34

vt 28.3 8.57295e-30
f 154/231/34 151/2/34 149/232/34

vt 28.3 0
v 13.8163 2.43 -55.0696
vt 63.7331 95.6693
f 149/233/6 155/234/6 154/231/6

vt 63.7331 0
f 155/234/6 149/233/6 148/235/6

vt 63.7331 1.93067e-29
v 14.5974 4.4 -55.0696
vt 94.4882 173.228
f 148/236/34 156/237/34 155/234/34

vt 94.4882 2.86234e-29
f 156/237/34 148/236/34 147/238/34

f 146/56/2 156/28/2 147/2/2

v 14.5974 4.4 -59.2696
vt 165.354 173.228
f 156/28/2 146/56/2 157/239/2

v 17.1974 4.4 -59.2696
vt 196.85 173.228
f 146/142/6 158/240/6 157/237/6

vt 196.85 0
f 158/240/6 146/142/6 145/241/6

v 17.1974 1.62369 -60.1254
vt 199.045 63.9246
f 145/56/2 159/242/2 158/239/2

f 159/242/2 145/56/2 143/164/2

v 17.1974 1.62369 -61.1254
vt 238.415 63.9246
f 159/242/2 143/164/2 160/243/2

v 17.1974 2.92369 -61.1254
vt 238.415 115.106
f 160/243/2 143/164/2 161/244/2

vt 275.591 173.228
f 142/245/2 161/244/2 143/164/2

v 17.1974 2.92369 -60.1254
vt 199.045 115.106
f 142/245/2 162/246/2 161/244/2

f 158/239/2 162/246/2 142/245/2

f 162/246/2 158/239/2 159/242/2

f 160/243/2 162/246/2 159/242/2

f 162/246/2 160/243/2 161/244/2

vt 196.85 275.591
vt 94.4882 165.354
vt 196.85 165.354
f 142/247/5 157/248/5 158/249/5

f 153/228/5 157/248/5 142/247/5

f 153/228/5 156/142/5 157/248/5

f 156/142/5 153/228/5 77/2/5

f 77/28/34 154/231/34 156/237/34

f 155/234/34 156/237/34 154/231/34

f 142/216/3 137/211/3 153/28/3

v 12.4245 2.07 -62.0696
vt -8.94012 81.4961
f 163/250/3 153/28/3 137/211/3

vt -8.94012 0
f 150/251/3 153/28/3 163/250/3

f 153/28/3 150/251/3 152/2/3

f 163/250/3 139/213/3 150/251/3

f 139/213/3 163/250/3 137/211/3

f 140/214/3 144/218/3 138/212/3

f 144/218/3 140/214/3 141/215/3

g Mesh31 Group9 Model

l 162 159

l 161 162

l 160 161

l 159 160

g Mesh32 Group9 Model

l 138 144

l 138 140

l 139 138

l 137 139

l 163 137

l 150 163

l 152 150

l 152 153

l 151 152

l 151 77

l 149 151

l 148 149

l 147 148

l 147 156

l 146 147

l 146 145

l 157 146

l 157 156

l 157 158

l 142 158

l 153 142

l 77 153

l 156 77

l 143 142

l 144 143

l 141 144

l 140 141

l 143 145

l 158 145

l 148 155

l 155 154

l 154 149

l 150 139

g Mesh33 Group10 Model

v 17.1974 4.4 -55.0696
vt 102.362 173.228
v 14.5974 3.97051e-15 -55.0696
v 17.1974 3.97051e-15 -55.0696
vt 102.362 0
f 164/252/6 165/2/6 166/253/6

v 14.5974 4.4 -55.0696
f 165/2/6 164/252/6 167/28/6

v 14.5974 4.4 -59.2696
vt 0 165.354
f 164/253/5 168/254/5 167/2/5

v 17.1974 4.4 -59.2696
vt 102.362 165.354
f 168/254/5 164/253/5 169/255/5

v 17.1974 2.85462 -56.523
vt 57.2199 112.387
f 164/28/2 170/256/2 169/239/2

v 17.1974 1.85462 -56.523
vt 57.2199 73.0165
f 170/256/2 164/28/2 171/257/2

f 166/2/2 171/257/2 164/28/2

v 17.1974 3.97051e-15 -59.2696
f 171/257/2 166/2/2 172/56/2

vt -102.362 165.354
vt -102.362 0
f 165/2/1 172/258/1 166/259/1

v 14.5974 3.97051e-15 -59.2696
f 172/258/1 165/2/1 173/254/1

vt -165.354 173.228
vt -165.354 0
f 165/2/4 168/260/4 173/261/4

f 168/260/4 165/2/4 167/28/4

f 168/28/3 172/259/3 173/2/3

vt -102.362 173.228
f 172/259/3 168/28/3 169/262/3

v 17.1974 2.85462 -57.523
vt 96.59 112.387
f 169/239/2 174/263/2 172/56/2

f 169/239/2 170/256/2 174/263/2

v 17.1974 1.85462 -57.523
vt 96.59 73.0165
f 170/256/2 175/264/2 174/263/2

f 175/264/2 170/256/2 171/257/2

f 171/257/2 172/56/2 175/264/2

f 175/264/2 172/56/2 174/263/2

g Mesh34 Group10 Model

l 164 167

l 164 166

l 169 164

l 168 169

l 168 173

l 167 168

l 167 165

l 166 165

l 172 166

l 169 172

l 173 172

l 165 173

g Mesh35 Group10 Model

l 174 170

l 175 174

l 171 175

l 170 171

g Mesh36 Group11 Model

v 6.99745 6.56968 -61.4196
vt -297.244 85.4207
v 6.99745 5.26968 -59.9196
vt -238.189 34.2396
v 6.99745 6.56968 -59.9196
vt -238.189 85.4207
f 176/265/4 177/266/4 178/267/4

v 6.99745 5.26968 -61.4196
vt -297.244 34.2396
f 177/266/4 176/265/4 179/268/4

v 6.99745 7.6 -62.0696
vt -322.835 125.984
f 176/265/4 180/269/4 179/268/4

f 178/267/4 180/269/4 176/265/4

v 6.99745 6.56968 -58.3696
vt -177.165 85.4207
f 181/270/4 180/269/4 178/267/4

v 6.99745 6.56968 -55.9696
vt -82.6772 85.4207
f 182/271/4 180/269/4 181/270/4

v 6.99745 7.6 -53.8696
f 182/271/4 183/6/4 180/269/4

f 183/6/4 182/271/4 124/2/4

v 6.99745 5.26968 -55.9696
vt -82.6772 34.2396
f 184/272/4 124/2/4 182/271/4

v 6.99745 4.4 -62.0696
f 124/2/4 184/272/4 185/189/4

v 6.99745 5.26968 -58.3696
vt -177.165 34.2396
f 185/189/4 184/272/4 186/273/4

f 184/272/4 181/270/4 186/273/4

f 181/270/4 184/272/4 182/271/4

f 181/270/4 178/267/4 186/273/4

f 177/266/4 186/273/4 178/267/4

f 185/189/4 186/273/4 177/266/4

f 185/189/4 177/266/4 179/268/4

f 185/189/4 179/268/4 180/269/4

v 12.1974 4.4 -62.0696
f 180/6/3 187/4/3 185/2/3

v 12.1974 7.6 -62.0696
f 187/4/3 180/6/3 188/8/3

v 12.1974 7.6 -53.8696
f 180/182/5 189/14/5 188/203/5

f 189/14/5 180/182/5 183/2/5

v 7.54641 6.63339 -53.8696
vt 21.6128 87.9288
f 183/6/6 190/274/6 189/17/6

v 7.54641 5.33339 -53.8696
vt 21.6128 36.7477
f 183/6/6 191/275/6 190/274/6

f 124/2/6 191/275/6 183/6/6

v 11.2464 5.33339 -53.8696
vt 167.282 36.7477
f 191/275/6 124/2/6 192/276/6

f 127/14/6 192/276/6 124/2/6

f 192/276/6 127/14/6 189/17/6

f 187/200/2 189/6/2 127/2/2

vt 322.835 125.984
f 189/6/2 187/200/2 188/277/2

f 124/2/1 187/202/1 127/4/1

f 187/202/1 124/2/1 185/182/1

v 11.2464 6.63339 -53.8696
vt 167.282 87.9288
f 192/276/6 189/17/6 193/278/6

v 9.74641 6.63339 -53.8696
vt 108.227 87.9288
f 193/278/6 189/17/6 194/279/6

v 9.04641 6.63339 -53.8696
vt 80.6679 87.9288
f 194/279/6 189/17/6 195/280/6

f 195/280/6 189/17/6 190/274/6

f 191/275/6 195/280/6 190/274/6

v 9.04641 5.33339 -53.8696
vt 80.6679 36.7477
f 195/280/6 191/275/6 196/281/6

v 9.74641 5.33339 -53.8696
vt 108.227 36.7477
f 191/275/6 197/282/6 196/281/6

f 191/275/6 192/276/6 197/282/6

f 193/278/6 197/282/6 192/276/6

f 197/282/6 193/278/6 194/279/6

f 194/279/6 196/281/6 197/282/6

f 196/281/6 194/279/6 195/280/6

g Mesh37 Group11 Model

l 178 177

l 178 176

l 176 179

l 179 177

g Mesh38 Group11 Model

l 186 181

l 184 186

l 182 184

l 181 182

g Mesh39 Group11 Model

l 183 180

l 189 183

l 188 189

l 187 188

l 187 127

l 185 187

l 185 180

l 124 185

l 124 183

l 127 124

l 127 189

l 180 188

g Mesh40 Group11 Model

l 190 195

l 191 190

l 196 191

l 195 196

g Mesh41 Group11 Model

l 194 193

l 197 194

l 192 197

l 193 192

g Mesh42 Group12 Model

v 12.1974 7.6 -62.0696
vt 0 106.299
v 6.99745 7.6 -62.0696
f 198/14/5 21/283/5 199/2/5

vt 204.724 106.299
f 21/283/5 198/14/5 25/284/5

vt 106.299 0
vt 106.299 125.984
f 198/6/2 28/285/2 25/286/2

v 12.1974 4.4 -62.0696
f 28/285/2 198/6/2 200/2/2

v 6.99745 4.4 -62.0696
f 198/17/6 201/2/6 200/14/6

f 201/2/6 198/17/6 199/6/6

v 6.99745 6.56968 -63.2696
vt -47.2441 85.4207
f 199/6/4 202/287/4 201/2/4

vt -106.299 125.984
f 202/287/4 199/6/4 21/288/4

v 6.99745 6.56968 -64.7696
vt -106.299 85.4207
f 202/287/4 21/288/4 203/289/4

vt 0 85.4207
f 25/8/3 203/290/3 21/6/3

v 6.99745 5.26968 -64.7696
vt 0 34.2396
f 25/8/3 204/291/3 203/290/3

f 28/4/3 204/291/3 25/8/3

f 204/291/3 28/4/3 23/2/3

vt -204.724 106.299
f 28/292/1 201/2/1 23/283/1

f 201/2/1 28/292/1 200/4/1

v 6.99745 5.26968 -63.2696
vt -47.2441 34.2396
vt -106.299 0
f 201/2/4 205/293/4 23/294/4

f 205/293/4 201/2/4 202/287/4

f 203/289/4 205/293/4 202/287/4

vt -106.299 34.2396
f 205/293/4 203/289/4 204/295/4

f 23/294/4 205/293/4 204/295/4

g Mesh43 Group12 Model

l 201 23

l 201 199

l 200 201

l 200 198

l 28 200

l 23 28

l 23 204

l 204 203

l 205 204

l 202 205

l 202 203

l 203 21

l 199 21

l 198 199

l 25 198

l 21 25

l 28 25

g Mesh44 Group13 Model

v 12.1974 10.8 -62.0696
v 6.99745 10.8 -69.1696
vt 0 279.528
v 6.99745 10.8 -62.0696
f 206/14/5 207/296/5 208/2/5

v 12.1974 10.8 -69.1696
vt 204.724 279.528
f 207/296/5 206/14/5 209/297/5

v 12.1974 7.6 -69.1696
vt 279.528 0
vt 279.528 125.984
f 206/6/2 210/298/2 209/299/2

v 12.1974 7.6 -62.0696
f 210/298/2 206/6/2 211/2/2

v 6.99745 7.6 -62.0696
f 206/17/6 212/2/6 211/14/6

f 212/2/6 206/17/6 208/6/6

v 6.99745 10.015 -63.2696
vt -47.2441 95.0769
f 208/6/4 213/300/4 212/2/4

vt -279.528 125.984
f 213/300/4 208/6/4 207/301/4

v 6.99745 10.015 -64.7696
vt -106.299 95.0769
f 213/300/4 207/301/4 214/302/4

v 6.99745 10.015 -66.1696
vt -161.417 95.0769
f 214/302/4 207/301/4 215/303/4

v 6.99745 10.015 -67.6696
vt -220.472 95.0769
f 215/303/4 207/301/4 216/304/4

v 6.99745 8.71495 -67.6696
vt -220.472 43.8958
f 216/304/4 207/301/4 217/305/4

v 6.99745 7.6 -69.1696
vt -279.528 0
f 218/306/4 217/305/4 207/301/4

v 6.99745 8.71495 -66.1696
vt -161.417 43.8958
f 218/306/4 219/307/4 217/305/4

v 6.99745 8.71495 -64.7696
vt -106.299 43.8958
f 218/306/4 220/308/4 219/307/4

v 6.99745 8.71495 -63.2696
vt -47.2441 43.8958
f 218/306/4 221/309/4 220/308/4

f 212/2/4 221/309/4 218/306/4

f 221/309/4 212/2/4 213/300/4

f 214/302/4 221/309/4 213/300/4

f 221/309/4 214/302/4 220/308/4

f 214/302/4 215/303/4 220/308/4

f 219/307/4 220/308/4 215/303/4

f 216/304/4 219/307/4 215/303/4

f 219/307/4 216/304/4 217/305/4

vt -204.724 279.528
f 210/310/1 212/2/1 218/296/1

f 212/2/1 210/310/1 211/4/1

v 7.79745 8.77085 -69.1696
vt -31.4961 46.0965
f 218/2/3 222/311/3 210/4/3

f 222/311/3 218/2/3 207/6/3

v 7.79745 10.0709 -69.1696
vt -31.4961 97.2776
f 222/311/3 207/6/3 223/312/3

v 9.29745 10.0709 -69.1696
vt -90.5512 97.2776
f 223/312/3 207/6/3 224/313/3

v 9.99745 10.0709 -69.1696
vt -118.11 97.2776
f 224/313/3 207/6/3 225/314/3

v 11.4974 10.0709 -69.1696
vt -177.165 97.2776
f 225/314/3 207/6/3 226/315/3

f 209/8/3 226/315/3 207/6/3

v 11.4974 8.77085 -69.1696
vt -177.165 46.0965
f 209/8/3 227/316/3 226/315/3

f 210/4/3 227/316/3 209/8/3

f 227/316/3 210/4/3 222/311/3

v 9.29745 8.77085 -69.1696
vt -90.5512 46.0965
f 227/316/3 222/311/3 228/317/3

f 223/312/3 228/317/3 222/311/3

f 228/317/3 223/312/3 224/313/3

v 9.99745 8.77085 -69.1696
vt -118.11 46.0965
f 224/313/3 229/318/3 228/317/3

f 229/318/3 224/313/3 225/314/3

f 225/314/3 227/316/3 229/318/3

f 227/316/3 225/314/3 226/315/3

f 227/316/3 228/317/3 229/318/3

g Mesh45 Group13 Model

l 208 207

l 206 208

l 209 206

l 207 209

l 218 207

l 212 218

l 211 212

l 210 211

l 210 209

l 218 210

l 211 206

l 212 208

g Mesh46 Group13 Model

l 213 221

l 213 214

l 214 220

l 220 221

g Mesh47 Group13 Model

l 215 219

l 215 216

l 216 217

l 217 219

g Mesh48 Group13 Model

l 228 224

l 222 228

l 223 222

l 224 223

g Mesh49 Group13 Model

l 226 225

l 227 226

l 229 227

l 225 229

g Mesh50 Group14 Model

v 14.5974 10.8 -63.8696
v 13.2474 7.6 -63.8696
vt 41.3386 0
v 14.5974 7.6 -63.8696
f 230/135/6 231/319/6 232/142/6

v 13.2474 10.8 -63.8696
vt 41.3386 125.984
f 231/319/6 230/135/6 233/320/6

v 14.5974 10.8 -66.6046
vt 94.4882 178.543
vt 41.3386 70.8661
vt 94.4882 70.8661
f 234/321/5 233/322/5 230/323/5

v 12.1974 10.8 -66.6046
vt 0 178.543
f 235/324/5 233/322/5 234/321/5

v 13.2474 10.8 -62.0696
f 235/324/5 236/319/5 233/322/5

v 12.1974 10.8 -62.0696
f 236/319/5 235/324/5 237/2/5

vt -178.543 125.984
v 12.1974 7.6 -62.0696
vt 0 7.10543e-15
f 235/325/4 238/326/4 237/6/4

v 12.1974 7.6 -66.6046
vt -178.543 7.10543e-15
f 238/326/4 235/325/4 239/327/4

v 14.5974 7.6 -66.6046
vt -94.4882 7.10543e-15
f 235/6/3 240/328/3 239/326/3

f 240/328/3 235/6/3 234/124/3

vt 178.543 125.984
v 14.5974 10.0788 -65.8619
vt 149.303 97.5895
vt 178.543 7.10543e-15
f 234/329/2 241/330/2 240/331/2

v 14.5974 10.0788 -64.4119
vt 92.2165 97.5895
f 234/329/2 242/332/2 241/330/2

vt 70.8661 125.984
f 230/333/2 242/332/2 234/329/2

v 14.5974 8.81877 -64.4119
vt 92.2165 47.9832
f 242/332/2 230/333/2 243/334/2

vt 70.8661 0
f 232/335/2 243/334/2 230/333/2

f 243/334/2 232/335/2 240/331/2

vt -41.3386 70.8661
vn -1.84437e-17 -1 -1.35263e-17
vt -94.4882 178.543
vt -94.4882 70.8661
f 231/336/35 240/337/35 232/338/35

vt 1.31051e-31 9.61104e-32
f 238/339/35 240/337/35 231/336/35

vt 1.31051e-31 178.543
f 240/337/35 238/339/35 239/340/35

v 13.2474 7.6 -62.0696
vt -41.3386 1.0313e-32
f 244/341/35 238/339/35 231/336/35

f 236/320/6 238/326/6 244/319/6

f 238/326/6 236/320/6 237/6/6

f 231/335/2 236/6/2 244/2/2

f 236/6/2 231/335/2 233/333/2

v 14.5974 8.81877 -65.8619
vt 149.303 47.9832
f 243/334/2 240/331/2 245/342/2

f 245/342/2 240/331/2 241/330/2

f 242/332/2 245/342/2 241/330/2

f 245/342/2 242/332/2 243/334/2

g Mesh51 Group14 Model

l 244 238

l 244 231

l 236 244

l 236 233

l 236 237

l 238 237

l 238 239

l 239 240

l 239 235

l 235 234

l 237 235

l 234 230

l 240 234

l 240 232

l 231 232

l 233 231

l 233 230

l 230 232

g Mesh52 Group14 Model

l 242 241

l 242 243

l 245 243

l 241 245

g Mesh53 Group15 Model

v 10.0974 10.8 -59.2696
vt 122.047 125.984
v 6.99745 7.6 -59.2696
v 10.0974 7.6 -59.2696
vt 122.047 0
f 246/343/6 247/2/6 248/344/6

f 247/2/6 246/343/6 7/6/6

vt 0 110.236
f 246/344/5 208/345/5 7/2/5

v 10.0974 10.8 -62.0696
vt 122.047 110.236
f 208/345/5 246/344/5 249/346/5

v 10.0974 7.6 -62.0696
vt 110.236 0
vt 110.236 125.984
f 246/6/2 250/347/2 249/348/2

f 250/347/2 246/6/2 248/2/2

vt -122.047 110.236
vt -122.047 0
f 247/2/1 250/349/1 248/350/1

v 6.99745 7.6 -62.0696
f 250/349/1 247/2/1 251/345/1

v 6.99745 8.71495 -59.9196
vt -25.5906 43.8958
vt -110.236 0
f 247/2/4 252/351/4 251/352/4

v 6.99745 10.015 -59.9196
vt -25.5906 95.0769
f 252/351/4 247/2/4 253/353/4

f 7/6/4 253/353/4 247/2/4

vt -110.236 125.984
f 253/353/4 7/6/4 208/354/4

v 6.99745 10.015 -61.4196
vt -84.6457 95.0769
f 253/353/4 208/354/4 254/355/4

v 6.99745 8.71495 -61.4196
vt -84.6457 43.8958
f 254/355/4 208/354/4 255/356/4

f 251/352/4 255/356/4 208/354/4

f 251/352/4 252/351/4 255/356/4

f 252/351/4 254/355/4 255/356/4

f 254/355/4 252/351/4 253/353/4

f 208/6/3 250/350/3 251/2/3

vt -122.047 125.984
f 250/350/3 208/6/3 249/357/3

g Mesh54 Group15 Model

l 7 208

l 246 7

l 248 246

l 250 248

l 250 249

l 251 250

l 247 251

l 248 247

l 247 7

l 251 208

l 208 249

l 249 246

g Mesh55 Group15 Model

l 253 252

l 254 253

l 255 254

l 255 252

g Mesh56 Group16 Model

v 13.2474 7.6 -62.0696
vt -124.016 275.591
vn -5.08217e-16 -1 -2.74535e-16
vt 1.15555e-28 165.354
v 10.0974 7.6 -62.0696
vt 1.15555e-28 275.591
f 256/358/36 248/359/36 257/360/36

vt -82.6772 165.354
f 248/359/36 256/358/36 1/361/36

v 12.1974 7.6 -55.0696
vt -82.6772 1.15354e-29
f 1/361/36 256/358/36 258/362/36

v 12.8916 7.6 -55.0696
vt -110.005 -4.54747e-13
f 258/362/36 256/358/36 259/363/36

v 13.2474 7.6 -61.0696
vt -124.016 236.22
f 259/363/36 256/358/36 260/364/36

vt 275.591 8.87979e-14
vn 1 -7.16021e-16 2.06762e-30
v 13.2474 10.8 -61.0696
vt 236.22 125.984
vt 236.22 2.02485e-13
f 256/365/37 261/366/37 260/367/37

v 13.2474 10.8 -62.0696
f 261/366/37 256/365/37 262/100/37

vt 1.19412e-28 1.62243e-13
vn 4.33293e-31 2.3633e-16 -1
vt -124.016 125.984
vt -124.016 -6.51303e-14
f 257/368/38 262/369/38 256/370/38

v 10.0974 10.8 -62.0696
vt 1.19412e-28 125.984
f 262/369/38 257/368/38 263/371/38

vt -165.354 2.27374e-13
vn -1 7.16021e-16 -0
vt -275.591 2.27374e-13
f 248/372/39 263/172/39 257/373/39

f 263/172/39 248/372/39 246/70/39

vt -1.0747e-28 1.88296e-13
vn -6.4994e-31 -2.3633e-16 1
vt 82.6772 125.984
vt -1.0747e-28 125.984
f 248/374/40 6/375/40 246/376/40

vt 82.6772 -3.90782e-14
f 6/375/40 248/374/40 1/377/40

f 258/2/4 6/70/4 1/261/4

v 12.1974 10.8 -55.0696
f 6/70/4 258/2/4 264/6/4

vt 110.005 3.97904e-13
vn -1.68527e-15 3.61806e-15 1
vt 82.6772 5.04117e-28
f 259/378/41 264/375/41 258/379/41

v 12.8916 8.65 -55.0696
vt 110.005 41.3386
f 264/375/41 259/378/41 265/380/41

vn -1.15506e-14 1.10006e-14 1
v 13.8916 8.65 -55.0696
vt 149.375 41.3386
f 259/378/42 266/381/42 265/380/42

v 13.8916 7.6 -55.0696
vt 149.375 3.97904e-13
f 266/381/42 259/378/42 267/382/42

vt -149.375 -1.36424e-12
f 259/363/36 260/364/36 267/383/36

v 14.5974 7.6 -61.0696
vt -177.165 236.22
f 267/383/36 260/364/36 268/384/36

vn 0 2.3633e-16 -1
vt -177.165 5.78609e-14
vt -124.016 5.78609e-14
f 261/369/43 268/385/43 260/386/43

v 14.5974 10.8 -61.0696
vt -177.165 125.984
f 268/385/43 261/369/43 269/387/43

vt 124.016 236.22
vn 5.49076e-16 1 8.94385e-17
v 14.5974 10.8 -55.0696
vt 177.165 1.12678e-14
vt 177.165 236.22
f 261/388/44 270/389/44 269/390/44

vt 82.6772 165.354
f 6/391/44 270/389/44 261/388/44

vt 82.6772 1.12678e-14
f 270/389/44 6/391/44 264/392/44

vt 177.165 125.984
f 265/380/41 270/393/41 264/375/41

f 266/381/41 270/393/41 265/380/41

f 267/382/41 270/393/41 266/381/41

v 14.5974 7.6 -55.0696
vt 177.165 5.68434e-14
f 270/393/41 267/382/41 271/394/41

vt -177.165 4.03242e-29
f 267/383/36 268/384/36 271/395/36

v 14.5974 7.6 -60.2255
vt -177.165 202.986
f 271/395/36 268/384/36 272/396/36

vt 236.22 1.13687e-13
v 14.5974 9.7 -60.2255
vt 202.986 82.6772
vt 202.986 1.13687e-13
f 268/397/2 273/398/2 272/399/2

f 269/366/2 273/398/2 268/397/2

v 14.5974 9.7 -59.3255
vt 167.553 82.6772
f 269/366/2 274/400/2 273/398/2

f 270/6/2 274/400/2 269/366/2

v 14.5974 7.6 -59.3255
vt 167.553 1.13687e-13
f 270/6/2 275/401/2 274/400/2

vt 0 5.68434e-14
f 275/401/2 270/6/2 271/402/2

vt -177.165 167.553
f 271/395/36 272/396/36 275/403/36

f 272/399/2 274/400/2 275/401/2

f 274/400/2 272/399/2 273/398/2

vt 124.016 275.591
f 262/404/44 6/391/44 261/388/44

vt -6.9175e-14 275.591
f 263/405/44 6/391/44 262/404/44

vt -6.9175e-14 165.354
f 6/391/44 263/405/44 246/406/44

g Mesh57 Group16 Model

l 260 268

l 256 260

l 257 256

l 257 248

l 257 263

l 263 262

l 263 246

l 246 6

l 248 246

l 248 1

l 1 258

l 1 6

l 6 264

l 258 264

l 258 259

l 259 267

l 259 265

l 265 266

l 266 267

l 267 271

l 275 271

l 272 275

l 268 272

l 268 269

l 261 269

l 262 261

l 256 262

l 260 261

l 269 270

l 271 270

l 264 270

l 273 272

l 274 273

l 274 275

g Mesh58 Group17 Model

v 14.5974 7.6 -69.1696
vt -94.4882 100.984
v 12.1974 7.6 -66.6046
vt 0 100.984
f 276/407/1 277/2/1 210/408/1

f 277/2/1 276/407/1 240/154/1

vt 100.984 0
f 276/409/2 234/6/2 240/2/2

v 14.5974 10.8 -69.1696
vt 100.984 125.984
f 234/6/2 276/409/2 278/410/2

v 14.1474 8.77085 -69.1696
vt -76.7717 46.0965
f 276/154/3 279/411/3 278/124/3

v 12.6474 8.77085 -69.1696
vt -17.7165 46.0965
f 279/411/3 276/154/3 280/412/3

f 210/2/3 280/412/3 276/154/3

f 280/412/3 210/2/3 209/6/3

vt -100.984 125.984
vt -100.984 0
f 277/2/4 209/413/4 210/414/4

v 12.1974 10.8 -66.6046
f 209/413/4 277/2/4 281/6/4

f 277/2/6 234/135/6 281/6/6

f 234/135/6 277/2/6 240/142/6

f 234/142/5 209/408/5 281/2/5

vt 94.4882 100.984
f 209/408/5 234/142/5 278/415/5

v 14.1474 10.0709 -69.1696
vt -76.7717 97.2776
f 278/124/3 282/416/3 209/6/3

f 278/124/3 279/411/3 282/416/3

v 12.6474 10.0709 -69.1696
vt -17.7165 97.2776
f 279/411/3 283/417/3 282/416/3

f 283/417/3 279/411/3 280/412/3

f 280/412/3 209/6/3 283/417/3

f 283/417/3 209/6/3 282/416/3

g Mesh59 Group17 Model

l 240 277

l 276 240

l 210 276

l 277 210

l 277 281

l 234 281

l 278 234

l 276 278

l 209 278

l 210 209

l 281 209

l 240 234

g Mesh60 Group17 Model

l 283 280

l 283 282

l 282 279

l 279 280

g Mesh61 Group18 Model

v 14.5974 7.6 -63.8696
vt -53.1496 110.236
v 13.2474 7.6 -61.0696
v 13.2474 7.6 -63.8696
f 284/418/1 285/2/1 286/345/1

v 14.5974 7.6 -61.0696
vt -53.1496 0
f 285/2/1 284/418/1 287/419/1

v 14.5974 9.12813 -62.4212
vt 53.2103 60.1627
f 288/420/2 287/2/2 284/347/2

v 14.5974 10.8 -61.0696
f 287/2/2 288/420/2 289/6/2

v 14.5974 10.0281 -62.4212
vt 53.2103 95.5958
f 290/421/2 289/6/2 288/420/2

v 14.5974 10.8 -63.8696
f 289/6/2 290/421/2 291/348/2

v 14.5974 10.0281 -63.3212
vt 88.6434 95.5958
f 291/348/2 290/421/2 292/422/2

v 14.5974 9.12813 -63.3212
vt 88.6434 60.1627
f 290/421/2 293/423/2 292/422/2

f 293/423/2 290/421/2 288/420/2

f 288/420/2 284/347/2 293/423/2

f 293/423/2 284/347/2 292/422/2

f 291/348/2 292/422/2 284/347/2

v 13.2474 10.8 -63.8696
f 284/419/3 294/6/3 291/104/3

f 294/6/3 284/419/3 286/2/3

f 285/2/4 294/354/4 286/352/4

v 13.2474 10.8 -61.0696
f 294/354/4 285/2/4 295/6/4

vt 53.1496 125.984
f 285/2/6 289/424/6 295/6/6

vt 53.1496 0
f 289/424/6 285/2/6 287/425/6

f 289/425/5 294/345/5 295/2/5

vt 53.1496 110.236
f 294/345/5 289/425/5 291/426/5

g Mesh62 Group18 Model

l 286 284

l 285 286

l 287 285

l 284 287

l 284 291

l 294 291

l 295 294

l 289 295

l 291 289

l 287 289

l 285 295

l 286 294

g Mesh63 Group18 Model

l 290 292

l 288 290

l 293 288

l 292 293

g Mesh64 Group19 Model

v 12.1974 13.6 -62.0696
v 14.5974 10.8 -62.0696
v 12.1974 10.8 -62.0696
f 296/345/3 297/154/3 298/2/3

v 14.5974 13.6 -62.0696
vt -94.4882 110.236
f 297/154/3 296/345/3 299/427/3

v 14.5974 13.6 -55.0696
f 296/228/5 300/142/5 299/127/5

v 12.1974 13.6 -55.0696
f 300/142/5 296/228/5 301/2/5

vt -275.591 110.236
v 12.1974 10.8 -55.0696
f 296/428/4 302/2/4 301/345/4

f 302/2/4 296/428/4 298/230/4

f 297/121/1 302/2/1 298/228/1

v 14.5974 10.8 -55.0696
f 302/2/1 297/121/1 303/154/1

f 297/164/2 300/345/2 303/2/2

v 14.5974 12.0037 -59.8958
vt 190.005 47.3911
f 300/345/2 297/164/2 304/429/2

v 14.5974 12.0037 -60.8958
vt 229.375 47.3911
f 304/429/2 297/164/2 305/430/2

v 14.5974 13.0037 -60.8958
vt 229.375 86.7612
f 305/430/2 297/164/2 306/431/2

vt 275.591 110.236
f 299/432/2 306/431/2 297/164/2

v 14.5974 13.0037 -59.8958
vt 190.005 86.7612
f 299/432/2 307/433/2 306/431/2

f 300/345/2 307/433/2 299/432/2

f 307/433/2 300/345/2 304/429/2

f 305/430/2 307/433/2 304/429/2

f 307/433/2 305/430/2 306/431/2

v 13.8937 11.5931 -55.0696
vt 66.7813 31.224
vt 94.4882 110.236
f 308/434/6 303/142/6 300/435/6

f 303/142/6 308/434/6 302/2/6

v 12.8937 11.5931 -55.0696
vt 27.4113 31.224
f 309/436/6 302/2/6 308/434/6

f 302/2/6 309/436/6 301/345/6

v 12.8937 12.8931 -55.0696
vt 27.4113 82.4051
f 301/345/6 309/436/6 310/437/6

v 13.8937 12.8931 -55.0696
vt 66.7813 82.4051
f 309/436/6 311/438/6 310/437/6

f 311/438/6 309/436/6 308/434/6

f 308/434/6 300/435/6 311/438/6

f 311/438/6 300/435/6 310/437/6

f 301/345/6 310/437/6 300/435/6

g Mesh65 Group19 Model

l 305 304

l 306 305

l 307 306

l 304 307

g Mesh66 Group19 Model

l 297 298

l 299 297

l 296 299

l 298 296

l 298 302

l 303 302

l 297 303

l 300 303

l 301 300

l 302 301

l 296 301

l 299 300

g Mesh67 Group19 Model

l 309 310

l 308 309

l 311 308

l 310 311

