# Alias OBJ Model File
# Exported from SketchUp, (c) 2000-2012 Trimble Navigation Limited
# File units = meters

mtllib 소희_별량면 리모델링 전_프로그램_V3_수정버전.mtl

g Mesh1 Group1 Model

usemtl FrontColor
v 35.6837 4.2 -10.6779
vt 285.433 0
vn 1 0 -0
v 35.6837 7.4 -8.8779
vt 214.567 125.984
v 35.6837 4.2 -8.8779
vt 214.567 0
f 1/1/1 2/2/1 3/3/1

v 35.6837 7.4 -10.6779
vt 285.433 125.984
f 2/2/1 1/1/1 4/4/1

vt -444.882 0
vn 0 0 -1
v 27.6837 7.4 -10.6779
vt -129.921 125.984
vt -444.882 125.984
f 1/5/2 5/6/2 4/7/2

v 27.6837 4.2 -10.6779
vt -129.921 0
f 5/6/2 1/5/2 6/8/2

v 27.6837 4.2 -8.8779
vt -129.921 214.567
vn 0 -1 -0
vt -129.921 285.433
vt -444.882 285.433
f 7/9/3 6/10/3 1/11/3

v 27.6837 4.2 -3.4279
f 8/8/3 6/10/3 7/9/3

v 27.6837 4.2 -16.1279
vt -129.921 500
f 8/8/3 9/12/3 6/10/3

v 24.3837 4.2 -16.1279
vt -1.13687e-13 500
f 8/8/3 10/13/3 9/12/3

v 24.3837 4.2 -3.4279
vt 0 0
f 10/13/3 8/8/3 11/14/3

vt 129.921 3.78426e-31
vn 8.32667e-17 -3.49807e-17 1
v 27.4837 4.21 -3.4279
vt 122.047 0.393701
f 8/15/4 12/16/4 11/14/4

v 27.6837 7.4 -3.4279
vt 129.921 125.984
f 12/16/4 8/15/4 13/17/4

vt 0 125.984
f 7/3/1 13/18/1 8/14/1

v 27.6837 7.4 -8.8779
f 13/18/1 7/3/1 14/2/1

vt 129.921 0
vn 0 0 1
vt 444.882 125.984
f 7/19/5 2/20/5 14/17/5

vt 444.882 0
f 2/20/5 7/19/5 3/21/5

vt -444.882 214.567
f 7/9/3 1/11/3 3/22/3

vt 444.882 285.433
vn 0 1 -0
vt 129.921 214.567
vt 444.882 214.567
f 4/23/6 14/24/6 2/25/6

vt 129.921 285.433
f 5/26/6 14/24/6 4/23/6

f 14/24/6 5/26/6 13/19/6

v 27.6837 7.4 -16.1279
vt 129.921 500
f 15/27/6 13/19/6 5/26/6

v 24.3837 7.4 -16.1279
vt 1.13687e-13 500
f 16/28/6 13/19/6 15/27/6

v 24.3837 7.4 -3.4279
f 13/19/6 16/28/6 17/14/6

vt -500 125.984
vn -1 0 -0
f 16/29/7 11/14/7 17/18/7

vt -500 0
f 11/14/7 16/29/7 10/30/7

v 25.4337 4.21 -16.1279
vt -41.3386 0.393701
vn -1.38778e-16 5.75134e-16 -1
vt -1.83076e-13 -2.87567e-13
vt -1.83076e-13 125.984
f 18/31/8 10/32/8 16/33/8

vt -129.921 -2.87567e-13
f 10/32/8 18/31/8 9/34/8

v 26.6337 4.21 -16.1279
vt -88.5827 0.393701
f 19/35/8 9/34/8 18/31/8

f 9/34/8 19/35/8 15/6/8

v 26.6337 7.39 -16.1279
vt -88.5827 125.591
f 15/6/8 19/35/8 20/36/8

vn 1.11022e-16 1.78592e-15 -1
v 25.4337 7.39 -16.1279
vt -41.3386 125.591
f 19/35/9 21/37/9 20/36/9

f 21/37/9 19/35/9 18/31/9

f 18/31/8 16/33/8 21/37/8

f 21/37/8 16/33/8 20/36/8

f 15/6/8 20/36/8 16/33/8

vt 500 0
vt 500 125.984
f 5/4/1 9/38/1 15/39/1

f 9/38/1 5/4/1 6/1/1

v 24.5837 4.21 -3.4279
vt 7.87402 0.393701
f 11/14/4 22/40/4 17/18/4

f 22/40/4 11/14/4 12/16/4

v 27.4837 7.39 -3.4279
vt 122.047 125.591
vn 5.55112e-17 5.68396e-17 1
f 23/41/10 22/40/10 12/16/10

v 24.5837 7.39 -3.4279
vt 7.87402 125.591
f 22/40/10 23/41/10 24/42/10

f 23/41/4 13/17/4 24/42/4

f 12/16/4 13/17/4 23/41/4

f 17/18/4 24/42/4 13/17/4

f 17/18/4 22/40/4 24/42/4

g Mesh2 Group1 Model

l 1 3

l 1 4

l 6 1

l 9 6

l 10 9

l 10 16

l 10 11

l 11 8

l 11 17

l 17 13

l 16 17

l 16 15

l 9 15

l 15 5

l 6 5

l 5 4

l 4 2

l 3 2

l 3 7

l 7 14

l 8 7

l 8 13

l 13 14

l 2 14

g Mesh3 Group1 Model

l 19 18

l 20 19

l 20 21

l 21 18

g Mesh4 Group1 Model

l 24 22

l 24 23

l 23 12

l 22 12

g Mesh5 Group2 Model

v 24.3837 4.2 -16.1279
vt -259.843 118.11
v 17.7837 4.2 -13.1279
v 17.7837 4.2 -16.1279
vt 0 118.11
f 25/43/3 26/14/3 27/44/3

v 24.3837 4.2 -13.1279
vt -259.843 0
f 26/14/3 25/43/3 28/45/3

vt 118.11 0
v 24.3837 7.4 -13.1279
f 25/46/1 29/18/1 28/14/1

v 24.3837 7.4 -16.1279
vt 118.11 125.984
f 29/18/1 25/46/1 30/47/1

v 22.6655 6.72516 -16.1279
vt -192.195 99.4158
vt -259.843 125.984
f 25/45/2 31/48/2 30/49/2

v 19.6655 6.72516 -16.1279
vt -74.0852 99.4158
f 31/48/2 25/45/2 32/50/2

v 17.7837 7.4 -16.1279
f 25/45/2 33/18/2 32/50/2

f 33/18/2 25/45/2 27/14/2

vt -118.11 125.984
vt -118.11 0
f 26/14/7 33/51/7 27/52/7

v 17.7837 7.4 -13.1279
f 33/51/7 26/14/7 34/18/7

vt 259.843 125.984
f 26/14/5 29/53/5 34/18/5

vt 259.843 0
f 29/53/5 26/14/5 28/54/5

f 29/54/6 33/44/6 34/14/6

vt 259.843 118.11
f 33/44/6 29/54/6 30/55/6

v 22.6655 7.32516 -16.1279
vt -192.195 123.038
f 30/49/2 35/56/2 33/18/2

f 30/49/2 31/48/2 35/56/2

v 19.6655 7.32516 -16.1279
vt -74.0852 123.038
f 31/48/2 36/57/2 35/56/2

f 36/57/2 31/48/2 32/50/2

f 32/50/2 33/18/2 36/57/2

f 36/57/2 33/18/2 35/56/2

g Mesh6 Group2 Model

l 26 27

l 28 26

l 25 28

l 27 25

l 27 33

l 34 33

l 29 34

l 30 29

l 33 30

l 25 30

l 28 29

l 26 34

g Mesh7 Group2 Model

l 36 32

l 35 36

l 31 35

l 32 31

g Mesh8 Group3 Model

v 32.4837 7.4 -10.6779
vt 188.976 125.984
v 27.6837 4.2 -10.6779
v 32.4837 4.2 -10.6779
vt 188.976 0
f 37/58/5 38/14/5 39/59/5

v 27.6837 7.4 -10.6779
f 38/14/5 37/58/5 40/18/5

v 27.6837 7.4 -16.1279
vt 0 214.567
f 37/59/6 41/60/6 40/14/6

v 32.4837 7.4 -16.1279
vt 188.976 214.567
f 41/60/6 37/59/6 42/61/6

v 32.4837 4.2 -16.1279
f 37/18/1 43/3/1 42/2/1

f 43/3/1 37/18/1 39/14/1

vt -188.976 214.567
vt -188.976 0
f 38/14/3 43/62/3 39/63/3

v 27.6837 4.2 -16.1279
f 43/62/3 38/14/3 44/60/3

vt -214.567 125.984
vt -214.567 0
f 38/14/7 41/64/7 44/65/7

f 41/64/7 38/14/7 40/18/7

v 28.5893 6.07326 -16.1279
vt -35.6527 73.7504
f 45/66/2 44/14/2 41/18/2

f 44/14/2 45/66/2 43/63/2

v 31.5383 6.07326 -16.1279
vt -151.755 73.7504
f 46/67/2 43/63/2 45/66/2

vt -188.976 125.984
f 43/63/2 46/67/2 42/68/2

v 31.5383 7.07326 -16.1279
vt -151.755 113.12
f 42/68/2 46/67/2 47/69/2

v 30.5383 7.07326 -16.1279
vt -112.385 113.12
f 46/67/2 48/70/2 47/69/2

v 30.5383 6.07326 -16.1279
vt -112.385 73.7504
f 48/70/2 46/67/2 49/71/2

v 29.5893 6.07326 -16.1279
vt -75.0228 73.7504
f 46/67/2 50/72/2 49/71/2

f 46/67/2 45/66/2 50/72/2

v 28.5893 7.07326 -16.1279
vt -35.6527 113.12
f 51/73/2 50/72/2 45/66/2

v 29.5893 7.07326 -16.1279
vt -75.0228 113.12
f 50/72/2 51/73/2 52/74/2

f 51/73/2 41/18/2 52/74/2

f 45/66/2 41/18/2 51/73/2

f 52/74/2 41/18/2 48/70/2

f 48/70/2 41/18/2 47/69/2

f 42/68/2 47/69/2 41/18/2

f 49/71/2 52/74/2 48/70/2

f 52/74/2 49/71/2 50/72/2

g Mesh9 Group3 Model

l 39 38

l 39 37

l 43 39

l 44 43

l 38 44

l 38 40

l 37 40

l 42 37

l 43 42

l 41 42

l 40 41

l 44 41

g Mesh10 Group3 Model

l 52 51

l 50 52

l 45 50

l 51 45

g Mesh11 Group3 Model

l 47 48

l 46 47

l 49 46

l 48 49

g Mesh12 Group4 Model

v 38.9218 7.30357 -16.1279
vt -127.481 122.188
v 40.4218 4.60357 -16.1279
vt -186.536 15.8887
v 38.9218 4.60357 -16.1279
vt -127.481 15.8887
f 53/75/2 54/76/2 55/77/2

v 40.4218 7.30357 -16.1279
vt -186.536 122.188
f 54/76/2 53/75/2 56/78/2

v 35.6837 7.4 -16.1279
f 53/75/2 57/18/2 56/78/2

v 37.7238 7.30357 -16.1279
vt -80.3157 122.188
f 58/79/2 57/18/2 53/75/2

v 36.2238 7.30357 -16.1279
vt -21.2606 122.188
f 59/80/2 57/18/2 58/79/2

v 36.2238 4.60357 -16.1279
vt -21.2606 15.8887
f 60/81/2 57/18/2 59/80/2

v 35.6837 4.2 -16.1279
f 60/81/2 61/14/2 57/18/2

v 40.9837 4.2 -16.1279
vt -208.661 0
f 61/14/2 60/81/2 62/82/2

f 54/76/2 62/82/2 60/81/2

v 40.9837 7.4 -16.1279
vt -208.661 125.984
f 62/82/2 54/76/2 63/83/2

f 63/83/2 54/76/2 56/78/2

f 63/83/2 56/78/2 57/18/2

v 40.9837 7.4 -10.6779
vt 208.661 0
vt 208.661 214.567
f 57/60/6 64/84/6 63/85/6

v 35.6837 7.4 -10.6779
f 64/84/6 57/60/6 65/14/6

v 35.6837 4.2 -10.6779
f 57/64/7 66/14/7 65/18/7

f 66/14/7 57/64/7 61/65/7

vt -208.661 214.567
f 62/86/3 66/14/3 61/60/3

v 40.9837 4.2 -10.6779
f 66/14/3 62/86/3 67/82/3

f 62/3/1 64/18/1 67/14/1

f 64/18/1 62/3/1 63/2/1

vt 208.661 125.984
f 64/87/5 66/14/5 67/84/5

f 66/14/5 64/87/5 65/18/5

v 37.7238 4.60357 -16.1279
vt -80.3157 15.8887
f 54/76/2 60/81/2 68/88/2

f 59/80/2 68/88/2 60/81/2

f 68/88/2 59/80/2 58/79/2

f 58/79/2 55/77/2 68/88/2

f 55/77/2 58/79/2 53/75/2

f 54/76/2 68/88/2 55/77/2

g Mesh13 Group4 Model

l 54 55

l 56 54

l 53 56

l 55 53

g Mesh14 Group4 Model

l 61 62

l 61 57

l 61 66

l 66 67

l 66 65

l 65 64

l 57 65

l 57 63

l 62 63

l 62 67

l 67 64

l 63 64

g Mesh15 Group4 Model

l 60 59

l 68 60

l 58 68

l 59 58

g Mesh16 Group5 Model

v 92.826 6.4 -9.042
vt 689.428 251.969
vn -0.0145834 0 0.999894
v 74.465 0 -9.30979
vt -33.5249 0
v 92.826 0 -9.042
vt 689.428 0
f 69/89/11 70/90/11 71/91/11

v 74.465 6.4 -9.30979
vt -33.5249 251.969
f 70/90/11 69/89/11 72/92/11

vt 705.991 0
v 74.6379 6.4 -21.1645
vt 100.516 611.503
vt 0 155.682
f 69/93/6 73/94/6 72/95/6

v 94.2228 6.4 -20.5536
vt 850.992 432.897
f 73/94/6 69/93/6 74/96/6

vt 224.231 251.969
vn 0.992718 0 0.120458
v 94.2228 0 -20.5536
vt 680.766 0
vt 680.766 251.969
f 69/97/12 75/98/12 74/99/12

vt 224.231 0
f 75/98/12 69/97/12 71/100/12

vt -705.991 0
v 74.6379 0 -21.1645
vt -100.516 611.503
vt -850.992 432.897
f 71/101/3 76/102/3 75/103/3

f 76/102/3 71/101/3 70/95/3

vt -152.03 0
vn -0.999894 0 -0.0145834
vt -618.801 251.969
vt -618.801 0
f 70/104/13 73/105/13 76/106/13

vt -152.03 251.969
f 73/105/13 70/104/13 72/107/13

vt 43.7931 251.969
vn 0.0311807 0 -0.999514
vt -727.644 0
vt 43.7931 0
f 73/108/14 75/109/14 76/110/14

vt -727.644 251.969
f 75/109/14 73/108/14 74/111/14

g Mesh17 Group5 Model

l 70 71

l 70 72

l 76 70

l 76 73

l 75 76

l 71 75

l 71 69

l 72 69

l 73 72

l 74 73

l 69 74

l 75 74

g Mesh18 Group6 Model

v 7.05888 10.2203 -1.4279
vt 97.4465 111.035
v 5.78888 8.22029 -1.4279
vt 47.4465 32.295
v 7.05888 8.22029 -1.4279
vt 97.4465 32.295
f 77/112/5 78/113/5 79/114/5

v 5.78888 10.2203 -1.4279
vt 47.4465 111.035
f 78/113/5 77/112/5 80/115/5

v 8.49016 10.5625 -1.4279
vt 153.796 124.507
f 77/112/5 81/116/5 80/115/5

f 79/114/5 81/116/5 77/112/5

v 8.49016 7.46247 -1.4279
vt 153.796 2.45953
f 81/116/5 79/114/5 82/117/5

f 78/113/5 82/117/5 79/114/5

v 4.58374 7.4 -1.4279
f 78/113/5 83/14/5 82/117/5

v 4.58374 10.6 -1.4279
f 83/14/5 78/113/5 84/18/5

f 84/18/5 78/113/5 80/115/5

f 84/18/5 80/115/5 81/116/5

v 24.3837 10.6 -1.4279
vt 779.528 125.984
f 84/18/5 81/116/5 85/118/5

v 20.4902 10.5625 -1.4279
vt 626.237 124.507
f 86/119/5 85/118/5 81/116/5

v 22.6798 10.0794 -1.4279
vt 712.443 105.49
f 87/120/5 85/118/5 86/119/5

v 23.2798 10.0794 -1.4279
vt 736.065 105.49
f 88/121/5 85/118/5 87/120/5

v 23.2798 7.97944 -1.4279
vt 736.065 22.8124
f 89/122/5 85/118/5 88/121/5

v 24.3837 7.4 -1.4279
vt 779.528 0
f 89/122/5 90/123/5 85/118/5

v 20.4902 7.46247 -1.4279
vt 626.237 2.45953
f 91/124/5 90/123/5 89/122/5

f 90/123/5 91/124/5 83/14/5

f 82/117/5 83/14/5 91/124/5

f 86/119/5 82/117/5 91/124/5

f 82/117/5 86/119/5 81/116/5

v 22.6798 7.97944 -1.4279
vt 712.443 22.8124
f 91/124/5 92/125/5 86/119/5

f 92/125/5 91/124/5 89/122/5

f 88/121/5 92/125/5 89/122/5

f 92/125/5 88/121/5 87/120/5

f 86/119/5 92/125/5 87/120/5

v 24.3837 7.4 -16.1279
vt -779.528 578.74
vt -779.528 0
f 83/14/3 93/126/3 90/127/3

v 4.58374 7.4 -16.1279
vt 0 578.74
f 93/126/3 83/14/3 94/128/3

v 4.58374 10.6 -16.1279
vt -578.74 125.984
vt -578.74 0
f 83/14/7 95/129/7 94/130/7

f 95/129/7 83/14/7 84/18/7

f 85/123/6 95/128/6 84/14/6

v 24.3837 10.6 -16.1279
vt 779.528 578.74
f 95/128/6 85/123/6 96/131/6

vt 578.74 0
vt 578.74 125.984
f 85/18/1 93/132/1 96/133/1

f 93/132/1 85/18/1 90/14/1

v 22.7248 8.12066 -16.1279
vt -714.214 28.3725
vt -779.528 125.984
f 93/127/2 97/134/2 96/135/2

v 12.8658 8.12066 -16.1279
vt -326.064 28.3725
f 97/134/2 93/127/2 98/136/2

f 94/14/2 98/136/2 93/127/2

f 98/136/2 94/14/2 95/18/2

v 12.8658 10.2207 -16.1279
vt -326.064 111.05
f 98/136/2 95/18/2 99/137/2

v 15.8658 10.2207 -16.1279
vt -444.174 111.05
f 99/137/2 95/18/2 100/138/2

v 19.7248 10.2207 -16.1279
vt -596.103 111.05
f 100/138/2 95/18/2 101/139/2

v 22.7248 10.2207 -16.1279
vt -714.214 111.05
f 101/139/2 95/18/2 102/140/2

f 96/135/2 102/140/2 95/18/2

f 96/135/2 97/134/2 102/140/2

f 97/134/2 101/139/2 102/140/2

v 19.7248 8.12066 -16.1279
vt -596.103 28.3725
f 101/139/2 97/134/2 103/141/2

v 15.8658 8.12066 -16.1279
vt -444.174 28.3725
f 97/134/2 104/142/2 103/141/2

f 97/134/2 98/136/2 104/142/2

f 99/137/2 104/142/2 98/136/2

f 104/142/2 99/137/2 100/138/2

f 100/138/2 103/141/2 104/142/2

f 103/141/2 100/138/2 101/139/2

g Mesh19 Group6 Model

l 102 101

l 97 102

l 103 97

l 101 103

g Mesh20 Group6 Model

l 78 80

l 79 78

l 77 79

l 80 77

g Mesh21 Group6 Model

l 94 83

l 94 95

l 93 94

l 90 93

l 83 90

l 83 84

l 84 85

l 95 84

l 96 95

l 85 96

l 90 85

l 93 96

g Mesh22 Group6 Model

l 98 104

l 99 98

l 100 99

l 104 100

g Mesh23 Group6 Model

l 82 81

l 91 82

l 86 91

l 81 86

g Mesh24 Group6 Model

l 88 87

l 89 88

l 92 89

l 87 92

g Mesh25 Group7 Model

v -8.92881 6.4 -42.0202
vt -844.724 251.969
vn -0.999184 0 0.0403913
v -8.27863 0 -25.9363
vt -210.984 0
v -8.27863 6.4 -25.9363
vt -210.984 251.969
f 105/143/15 106/144/15 107/145/15

v -8.92881 0 -42.0202
vt -844.724 0
f 106/144/15 105/143/15 108/146/15

vt 33.8913 251.969
vn -0.0411038 0 -0.999155
v 24.6978 0 -43.4035
vt -1291.11 0
vt 33.8913 0
f 105/147/16 109/148/16 108/149/16

v 24.6978 6.4 -43.4035
vt -1291.11 251.969
f 109/148/16 105/147/16 110/150/16

vt 102.252 839.222
v 25.3489 6.4 -27.2957
vt 1307.64 0
vt 1410.04 626.369
f 105/151/6 111/152/6 110/153/6

vt 0 213.785
f 111/152/6 105/151/6 107/154/6

vt -34.4937 0
vn 0.0403913 0 0.999184
vt 1290.51 251.969
vt -34.4937 251.969
f 106/155/17 111/156/17 107/157/17

v 25.3489 0 -27.2957
vt 1290.51 0
f 111/156/17 106/155/17 112/158/17

vt -102.252 839.222
vt -1307.64 0
f 108/159/3 112/160/3 106/154/3

vt -1410.04 626.369
f 112/160/3 108/159/3 109/161/3

vt 845.669 0
vn 0.999184 0 -0.0403913
vt 210.984 251.969
vt 210.984 0
f 109/162/18 111/163/18 112/164/18

vt 845.669 251.969
f 111/163/18 109/162/18 110/165/18

g Mesh26 Group7 Model

l 108 106

l 108 105

l 109 108

l 109 110

l 112 109

l 112 111

l 106 112

l 106 107

l 105 107

l 110 105

l 111 110

l 107 111

g Mesh27 Group8 Model

v 4.58374 6.41186e-31 -16.1279
vt -2.84217e-14 318.898
v 24.3837 6.41186e-31 -8.0279
v 4.58374 6.41186e-31 -8.0279
f 113/166/3 114/127/3 115/14/3

v 24.3837 6.41186e-31 -16.1279
vt -779.528 318.898
f 114/127/3 113/166/3 116/167/3

v 4.58374 4.2 -16.1279
vt -2.84217e-14 165.354
vt -2.84217e-14 0
f 117/168/2 116/127/2 113/169/2

v 13.5502 2.42005 -16.1279
vt -353.009 95.2777
f 116/127/2 117/168/2 118/170/2

v 13.5502 3.02005 -16.1279
vt -353.009 118.9
f 118/170/2 117/168/2 119/171/2

v 14.7502 3.02005 -16.1279
vt -400.254 118.9
f 119/171/2 117/168/2 120/172/2

v 19.2472 3.02005 -16.1279
vt -577.301 118.9
f 120/172/2 117/168/2 121/173/2

v 20.4472 3.02005 -16.1279
vt -624.545 118.9
f 121/173/2 117/168/2 122/174/2

v 24.3837 4.2 -16.1279
vt -779.528 165.354
f 123/175/2 122/174/2 117/168/2

v 20.4472 2.42005 -16.1279
vt -624.545 95.2777
f 123/175/2 124/176/2 122/174/2

f 116/127/2 124/176/2 123/175/2

f 124/176/2 116/127/2 118/170/2

v 14.7502 2.42005 -16.1279
vt -400.254 95.2777
f 124/176/2 118/170/2 125/177/2

f 119/171/2 125/177/2 118/170/2

f 125/177/2 119/171/2 120/172/2

v 19.2472 2.42005 -16.1279
vt -577.301 95.2777
f 120/172/2 126/178/2 125/177/2

f 126/178/2 120/172/2 121/173/2

f 121/173/2 124/176/2 126/178/2

f 124/176/2 121/173/2 122/174/2

f 124/176/2 125/177/2 126/178/2

v 24.3837 4.2 -8.0279
vt 0 165.354
vt 318.898 0
vt 318.898 165.354
f 127/179/1 116/180/1 123/181/1

f 116/180/1 127/179/1 114/14/1

vt 779.528 165.354
f 127/182/5 115/14/5 114/123/5

v 4.58374 4.2 -8.0279
f 115/14/5 127/182/5 128/179/5

vt 2.84217e-14 318.898
f 127/123/6 117/183/6 128/14/6

vt 779.528 318.898
f 117/183/6 127/123/6 123/184/6

vt -318.898 165.354
f 117/185/7 115/14/7 128/179/7

vt -318.898 0
f 115/14/7 117/185/7 113/186/7

g Mesh28 Group8 Model

l 115 114

l 113 115

l 113 116

l 113 117

l 117 123

l 117 128

l 115 128

l 128 127

l 114 127

l 116 114

l 116 123

l 123 127

g Mesh29 Group8 Model

l 126 124

l 121 126

l 122 121

l 124 122

g Mesh30 Group8 Model

l 125 120

l 118 125

l 119 118

l 120 119

g Mesh31 Group9 Model

v 91.3774 6.4 1.68452
vt 490.763 0
v 78.6593 6.4 -4.98477
vt 53.0742 357.89
v 78.6717 6.4 1.78022
vt 0 96.8928
f 129/187/6 130/188/6 131/189/6

v 81.9523 6.4 -4.99083
vt 180.12 332.055
f 130/188/6 129/187/6 132/190/6

v 81.9013 6.4 -6.39033
vt 189.233 386.432
f 132/190/6 129/187/6 133/191/6

v 91.316 6.4 -6.46125
vt 552.882 314.635
f 133/191/6 129/187/6 134/192/6

vt 95.0578 251.969
vn 0.999972 0 -0.00753201
v 91.316 0 -6.46125
vt 415.766 0
vt 415.766 251.969
f 129/193/19 135/194/19 134/195/19

v 91.3774 0 1.68452
vt 95.0578 0
f 135/194/19 129/193/19 136/196/19

vt 481.469 251.969
vn 0.00753201 0 0.999972
v 78.6717 0 1.78022
vt -18.7676 0
vt 481.469 0
f 129/197/20 137/198/20 136/199/20

vt -18.7676 251.969
f 137/198/20 129/197/20 131/200/20

vt -361.288 251.969
vn -0.999998 0 0.00184197
vt -94.9495 0
vt -94.9495 251.969
f 130/201/21 137/202/21 131/203/21

v 78.6593 0 -4.98477
vt -361.288 0
f 137/202/21 130/201/21 138/204/21

vt 19.3081 251.969
vn -0.00184197 0 -0.999998
v 81.9523 0 -4.99083
vt -110.338 0
vt 19.3081 0
f 130/205/22 139/206/22 138/207/22

vt -110.338 251.969
f 139/206/22 130/205/22 132/208/22

vt -412.394 251.969
vn -0.999337 0 0.036405
vt -357.258 0
vt -357.258 251.969
f 133/209/23 139/210/23 132/211/23

v 81.9013 0 -6.39033
vt -412.394 0
f 139/210/23 133/209/23 140/212/23

vt -110.799 251.969
vn -0.00753201 0 -0.999972
vt -481.469 0
vt -110.799 0
f 133/213/24 135/214/24 140/215/24

vt -481.469 251.969
f 135/214/24 133/213/24 134/216/24

vt -490.763 0
vt -189.233 386.432
vt -552.882 314.635
f 136/217/3 140/218/3 135/219/3

vt -180.12 332.055
f 136/217/3 139/220/3 140/218/3

vt -53.0742 357.89
f 136/217/3 138/221/3 139/220/3

f 138/221/3 136/217/3 137/189/3

g Mesh32 Group9 Model

l 136 129

l 136 137

l 135 136

l 140 135

l 139 140

l 138 139

l 137 138

l 137 131

l 129 131

l 134 129

l 133 134

l 132 133

l 130 132

l 131 130

l 138 130

l 139 132

l 140 133

l 135 134

g Mesh33 Group10 Model

v 17.7837 4.2 -16.1279
v 11.1837 4.2 -13.1279
v 11.1837 4.2 -16.1279
f 141/43/3 142/14/3 143/44/3

v 17.7837 4.2 -13.1279
f 142/14/3 141/43/3 144/45/3

v 17.7837 7.4 -13.1279
f 141/46/1 145/18/1 144/14/1

v 17.7837 7.4 -16.1279
f 145/18/1 141/46/1 146/47/1

v 15.864 6.71766 -16.1279
vt -184.263 99.1205
f 141/45/2 147/222/2 146/49/2

v 12.864 6.71766 -16.1279
vt -66.1529 99.1205
f 147/222/2 141/45/2 148/223/2

v 11.1837 7.4 -16.1279
f 141/45/2 149/18/2 148/223/2

f 149/18/2 141/45/2 143/14/2

f 142/14/7 149/51/7 143/52/7

v 11.1837 7.4 -13.1279
f 149/51/7 142/14/7 150/18/7

f 142/14/5 145/53/5 150/18/5

f 145/53/5 142/14/5 144/54/5

f 145/54/6 149/44/6 150/14/6

f 149/44/6 145/54/6 146/55/6

v 15.864 7.31766 -16.1279
vt -184.263 122.743
f 146/49/2 151/224/2 149/18/2

f 146/49/2 147/222/2 151/224/2

v 12.864 7.31766 -16.1279
vt -66.1529 122.743
f 147/222/2 152/225/2 151/224/2

f 152/225/2 147/222/2 148/223/2

f 148/223/2 149/18/2 152/225/2

f 152/225/2 149/18/2 151/224/2

g Mesh34 Group10 Model

l 142 143

l 144 142

l 141 144

l 143 141

l 143 149

l 150 149

l 145 150

l 146 145

l 149 146

l 141 146

l 144 145

l 142 150

g Mesh35 Group10 Model

l 152 148

l 151 152

l 147 151

l 148 147

g Mesh36 Group11 Model

v 32.4837 10.6 -16.1279
v 32.4837 13.8 -10.6779
vt -5.68434e-14 125.984
v 32.4837 10.6 -10.6779
vt -5.68434e-14 0
f 153/3/1 154/226/1 155/227/1

v 32.4837 13.8 -16.1279
f 154/226/1 153/3/1 156/2/1

v 31.4681 12.171 -16.1279
vt -148.991 61.8487
f 153/63/2 157/228/2 156/68/2

v 28.6781 12.171 -16.1279
vt -39.1484 61.8487
f 157/228/2 153/63/2 158/229/2

v 27.6837 10.6 -16.1279
f 159/14/2 158/229/2 153/63/2

v 27.6837 13.8 -16.1279
f 158/229/2 159/14/2 160/18/2

v 27.6837 10.6 -10.6779
f 161/14/7 160/64/7 159/65/7

v 27.6837 13.8 -10.6779
f 160/64/7 161/14/7 162/18/7

v 31.2463 10.6825 -10.6779
vt 140.26 3.24745
f 161/14/5 163/230/5 162/18/5

v 32.1463 10.6825 -10.6779
vt 175.693 3.24745
f 163/230/5 161/14/5 164/231/5

f 155/59/5 164/231/5 161/14/5

f 164/231/5 155/59/5 154/58/5

v 32.1463 12.7825 -10.6779
vt 175.693 85.9246
f 164/231/5 154/58/5 165/232/5

v 31.2463 12.7825 -10.6779
vt 140.26 85.9246
f 165/232/5 154/58/5 166/233/5

f 162/18/5 166/233/5 154/58/5

f 162/18/5 163/230/5 166/233/5

f 163/230/5 165/232/5 166/233/5

f 165/232/5 163/230/5 164/231/5

vt 188.976 -5.68434e-14
f 154/234/6 160/60/6 162/14/6

f 160/60/6 154/234/6 156/61/6

v 31.4681 13.171 -16.1279
vt -148.991 101.219
f 156/68/2 167/235/2 160/18/2

f 156/68/2 157/228/2 167/235/2

v 30.4681 13.171 -16.1279
vt -109.621 101.219
f 157/228/2 168/236/2 167/235/2

v 30.4681 12.171 -16.1279
vt -109.621 61.8487
f 168/236/2 157/228/2 169/237/2

v 29.6781 12.171 -16.1279
vt -78.5185 61.8487
f 157/228/2 170/238/2 169/237/2

f 157/228/2 158/229/2 170/238/2

v 28.6781 13.171 -16.1279
vt -39.1484 101.219
f 171/239/2 170/238/2 158/229/2

v 29.6781 13.171 -16.1279
vt -78.5185 101.219
f 170/238/2 171/239/2 172/240/2

f 171/239/2 160/18/2 172/240/2

f 158/229/2 160/18/2 171/239/2

f 172/240/2 160/18/2 168/236/2

f 168/236/2 160/18/2 167/235/2

f 169/237/2 172/240/2 168/236/2

f 172/240/2 169/237/2 170/238/2

vt -188.976 -5.68434e-14
f 161/14/3 153/62/3 155/241/3

f 153/62/3 161/14/3 159/60/3

g Mesh37 Group11 Model

l 168 167

l 169 168

l 157 169

l 167 157

g Mesh38 Group11 Model

l 165 166

l 164 165

l 163 164

l 166 163

g Mesh39 Group11 Model

l 158 171

l 170 158

l 172 170

l 171 172

g Mesh40 Group11 Model

l 153 155

l 153 156

l 159 153

l 159 160

l 159 161

l 161 162

l 155 161

l 155 154

l 156 154

l 160 156

l 160 162

l 154 162

g Mesh41 Group12 Model

v 24.3837 10.6 -16.1279
vt 1.4815e-13 -6.59148e-14
vn -2.77556e-16 2.30929e-16 -1
v 25.4437 10.61 -16.1279
vt -41.7323 0.393701
v 27.6837 10.6 -16.1279
vt -129.921 -6.59148e-14
f 173/242/25 174/243/25 175/244/25

v 24.3837 13.8 -16.1279
vt 1.4815e-13 125.984
f 174/243/25 173/242/25 176/245/25

v 24.3837 10.6 -8.8779
vt -285.433 125.984
vt -285.433 0
f 177/14/7 176/246/7 173/247/7

v 24.3837 13.8 -8.8779
f 176/246/7 177/14/7 178/18/7

v 27.6837 13.8 -8.8779
f 177/14/5 179/17/5 178/18/5

v 27.6837 10.6 -8.8779
f 179/17/5 177/14/5 180/19/5

vt -129.921 1.13687e-13
f 177/14/3 175/10/3 180/248/3

vt 2.27374e-13 285.433
f 175/10/3 177/14/3 173/249/3

v 27.6837 10.6 -10.6779
vt -129.921 70.8661
f 180/248/3 175/10/3 181/250/3

v 27.6837 13.8 -16.1279
vn 1 1.44382e-14 -1.05969e-14
vt 70.8661 -1.87583e-12
vt 285.433 -1.87583e-12
f 182/4/26 181/251/26 175/252/26

vt 70.8661 125.984
f 181/251/26 182/4/26 162/253/26

vt 129.921 1.13687e-13
vt 129.921 70.8661
f 182/26/6 179/254/6 162/255/6

f 182/26/6 178/14/6 179/254/6

vt -2.27374e-13 285.433
f 178/14/6 182/26/6 176/256/6

v 26.6237 13.14 -16.1279
vt -88.189 100
f 182/6/25 183/257/25 176/245/25

v 26.6237 10.61 -16.1279
vt -88.189 0.393701
f 182/6/25 184/258/25 183/257/25

f 175/244/25 184/258/25 182/6/25

f 184/258/25 175/244/25 174/243/25

v 25.4437 13.14 -16.1279
vt -41.7323 100
vn -3.88578e-16 6.3805e-31 -1
f 185/259/27 184/258/27 174/243/27

f 184/258/27 185/259/27 183/257/27

f 185/259/25 176/245/25 183/257/25

f 174/243/25 176/245/25 185/259/25

vt 5.11591e-12 125.984
vn 1 1.44382e-14 3.85019e-14
v 27.6837 12.7997 -9.33656
vt 18.0574 86.6022
f 179/260/28 186/261/28 162/253/28

v 27.6837 10.6997 -9.33656
vt 18.0574 3.92506
f 186/261/28 179/260/28 187/262/28

vt 5.11591e-12 -1.87583e-12
f 180/263/28 187/262/28 179/260/28

f 187/262/28 180/263/28 181/251/28

v 27.6837 10.6997 -10.2366
vt 53.4905 3.92506
f 187/262/28 181/251/28 188/264/28

v 27.6837 12.7997 -10.2366
vt 53.4905 86.6022
f 188/264/28 181/251/28 189/265/28

f 189/265/28 181/251/28 162/253/28

f 162/253/28 186/261/28 189/265/28

f 186/261/1 188/264/1 189/265/1

f 188/264/1 186/261/1 187/262/1

g Mesh42 Group12 Model

l 188 189

l 187 188

l 186 187

l 189 186

g Mesh43 Group12 Model

l 177 178

l 180 177

l 180 179

l 181 180

l 175 181

l 173 175

l 177 173

l 173 176

l 178 176

l 179 178

l 162 179

l 182 162

l 176 182

l 175 182

l 181 162

g Mesh44 Group12 Model

l 174 185

l 184 174

l 183 184

l 185 183

g Mesh45 Group13 Model

v 31.6337 7.4 -8.0279
vt -285.433 259.843
v 24.3837 7.4 -1.4279
v 24.3837 7.4 -8.0279
vt 0 259.843
f 190/266/3 191/14/3 192/267/3

v 31.6337 7.4 -1.4279
vt -285.433 1.42109e-14
f 191/14/3 190/266/3 193/268/3

v 31.6337 10.6 -1.4279
vt 1.42109e-14 125.984
vt 1.42109e-14 0
f 190/54/1 194/269/1 193/270/1

v 31.6337 10.6 -8.0279
f 194/269/1 190/54/1 195/53/1

v 24.3837 10.6 -8.0279
f 190/247/2 196/18/2 195/246/2

f 196/18/2 190/247/2 192/14/2

f 191/14/7 196/49/7 192/45/7

v 24.3837 10.6 -1.4279
f 196/49/7 191/14/7 197/18/7

v 24.8228 7.92081 -1.4279
vt 17.286 20.5044
f 191/14/5 198/271/5 197/18/5

v 29.9558 7.92081 -1.4279
vt 219.373 20.5044
f 198/271/5 191/14/5 199/272/5

f 193/1/5 199/272/5 191/14/5

v 31.1472 8.28414 -1.4279
vt 266.278 34.8087
f 199/272/5 193/1/5 200/273/5

f 200/273/5 193/1/5 194/4/5

v 31.1472 10.3841 -1.4279
vt 266.278 117.486
f 200/273/5 194/4/5 201/274/5

v 30.5472 10.3841 -1.4279
vt 242.656 117.486
f 201/274/5 194/4/5 202/275/5

f 197/18/5 202/275/5 194/4/5

v 24.8228 10.3708 -1.4279
vt 17.286 116.961
f 197/18/5 203/276/5 202/275/5

f 197/18/5 198/271/5 203/276/5

v 29.9558 10.3708 -1.4279
vt 219.373 116.961
f 198/271/5 204/277/5 203/276/5

f 204/277/5 198/271/5 199/272/5

v 30.5472 8.28414 -1.4279
vt 242.656 34.8087
f 199/272/5 205/278/5 204/277/5

f 205/278/5 199/272/5 200/273/5

f 201/274/5 205/278/5 200/273/5

f 205/278/5 201/274/5 202/275/5

f 204/277/5 205/278/5 202/275/5

f 204/277/5 202/275/5 203/276/5

vt 285.433 1.42109e-14
f 194/279/6 196/267/6 197/14/6

vt 285.433 259.843
f 196/267/6 194/279/6 195/280/6

g Mesh46 Group13 Model

l 190 192

l 193 190

l 191 193

l 192 191

l 192 196

l 195 196

l 194 195

l 197 194

l 196 197

l 191 197

l 193 194

l 190 195

g Mesh47 Group13 Model

l 201 200

l 202 201

l 205 202

l 200 205

g Mesh48 Group13 Model

l 198 203

l 199 198

l 204 199

l 203 204

g Mesh49 Group14 Model

v 27.6837 10.6 -16.1279
v 27.6837 7.4 -10.6779
v 27.6837 10.6 -10.6779
f 206/64/7 207/14/7 208/18/7

v 27.6837 7.4 -16.1279
f 207/14/7 206/64/7 209/65/7

v 28.6781 8.97096 -16.1279
f 210/229/2 209/14/2 206/18/2

v 32.4837 7.4 -16.1279
f 209/14/2 210/229/2 211/63/2

v 31.4681 8.97096 -16.1279
f 212/228/2 211/63/2 210/229/2

v 32.4837 10.6 -16.1279
f 211/63/2 212/228/2 213/68/2

v 31.4681 9.97096 -16.1279
f 213/68/2 212/228/2 214/235/2

v 30.4681 9.97096 -16.1279
f 212/228/2 215/236/2 214/235/2

v 30.4681 8.97096 -16.1279
f 215/236/2 212/228/2 216/237/2

v 29.6781 8.97096 -16.1279
f 212/228/2 217/238/2 216/237/2

f 212/228/2 210/229/2 217/238/2

v 28.6781 9.97096 -16.1279
f 218/239/2 217/238/2 210/229/2

v 29.6781 9.97096 -16.1279
f 217/238/2 218/239/2 219/240/2

f 218/239/2 206/18/2 219/240/2

f 210/229/2 206/18/2 218/239/2

f 219/240/2 206/18/2 215/236/2

f 215/236/2 206/18/2 214/235/2

f 213/68/2 214/235/2 206/18/2

v 32.4837 10.6 -10.6779
f 206/60/6 220/59/6 213/61/6

f 220/59/6 206/60/6 208/14/6

f 207/14/5 220/58/5 208/18/5

v 32.4837 7.4 -10.6779
f 220/58/5 207/14/5 221/59/5

f 207/14/3 211/62/3 221/63/3

f 211/62/3 207/14/3 209/60/3

usemtl Color_M00
f 211/3/1 220/18/1 221/14/1

f 220/18/1 211/3/1 213/2/1

usemtl FrontColor
f 216/237/2 219/240/2 215/236/2

f 219/240/2 216/237/2 217/238/2

g Mesh50 Group14 Model

l 209 207

l 209 206

l 209 211

l 211 221

l 211 213

l 213 220

l 206 213

l 206 208

l 207 208

l 221 207

l 221 220

l 220 208

g Mesh51 Group14 Model

l 214 212

l 215 214

l 216 215

l 212 216

g Mesh52 Group14 Model

l 210 218

l 217 210

l 219 217

l 218 219

g Mesh53 Group15 Model

v 40.9837 7.4 -8.0279
vt -368.11 259.843
v 31.6337 7.4 -1.4279
v 31.6337 7.4 -8.0279
f 222/281/3 223/14/3 224/267/3

v 40.9837 7.4 -1.4279
vt -368.11 0
f 223/14/3 222/281/3 225/282/3

v 40.9837 10.6 -1.4279
f 222/54/1 226/18/1 225/14/1

v 40.9837 10.6 -8.0279
f 226/18/1 222/54/1 227/53/1

v 31.6337 10.6 -8.0279
vt -368.11 125.984
f 222/282/2 228/18/2 227/283/2

f 228/18/2 222/282/2 224/14/2

f 223/14/7 228/49/7 224/45/7

f 228/49/7 223/14/7 194/18/7

v 32.2499 7.40404 -1.4279
vt 24.2575 0.158976
f 223/14/5 229/284/5 194/18/5

v 40.9799 7.40404 -1.4279
vt 367.958 0.158976
f 229/284/5 223/14/5 230/285/5

vt 368.11 0
f 225/286/5 230/285/5 223/14/5

vt 368.11 125.984
f 230/285/5 225/286/5 226/287/5

v 40.9799 10.484 -1.4279
vt 367.958 121.419
f 230/285/5 226/287/5 231/288/5

v 32.2499 10.484 -1.4279
vt 24.2575 121.419
f 231/288/5 226/287/5 232/289/5

f 194/18/5 232/289/5 226/287/5

f 194/18/5 229/284/5 232/289/5

f 229/284/5 231/288/5 232/289/5

f 231/288/5 229/284/5 230/285/5

f 226/286/6 228/267/6 194/14/6

vt 368.11 259.843
f 228/267/6 226/286/6 227/290/6

g Mesh54 Group15 Model

l 194 228

l 226 194

l 227 226

l 228 227

l 224 228

l 223 224

l 225 223

l 222 225

l 224 222

l 222 227

l 225 226

l 223 194

g Mesh55 Group15 Model

l 232 231

l 229 232

l 230 229

l 231 230

g Mesh56 Group16 Model

v 40.9837 4.2 -16.1279
v 42.1458 4.50524 -16.1279
vt -254.412 12.0173
v 44.5837 4.2 -16.1279
vt -350.394 0
f 233/82/2 234/291/2 235/292/2

v 40.9837 7.4 -16.1279
f 234/291/2 233/82/2 236/83/2

v 40.9837 4.2 -10.6779
vt -364.173 0
f 237/293/7 236/129/7 233/130/7

v 40.9837 7.4 -10.6779
vt -364.173 125.984
f 236/129/7 237/293/7 238/294/7

v 35.6837 7.4 -10.6779
f 237/82/2 239/18/2 238/83/2

v 35.6837 4.2 -10.6779
f 239/18/2 237/82/2 240/14/2

vt -208.661 364.173
v 35.6837 4.2 -8.8779
vt 0 293.307
vt 0 364.173
f 237/295/3 241/296/3 240/297/3

v 35.6837 4.2 -1.4279
f 241/296/3 237/295/3 242/14/3

v 44.5837 4.2 -1.4279
f 242/14/3 237/295/3 243/292/3

vt -350.394 578.74
f 243/292/3 237/295/3 235/298/3

vt -208.661 578.74
f 235/298/3 237/295/3 233/299/3

v 44.5837 4.20702 -3.72712
vt 90.5205 0.27634
f 244/300/1 243/14/1 235/132/1

v 44.5837 7.4 -1.4279
f 243/14/1 244/300/1 245/18/1

v 44.5837 7.38702 -3.72712
vt 90.5205 125.473
f 246/301/1 245/18/1 244/300/1

v 44.5837 7.4 -8.8779
vt 293.307 125.984
f 245/18/1 246/301/1 247/302/1

v 44.5837 7.38702 -6.30712
vt 192.095 125.473
f 247/302/1 246/301/1 248/303/1

v 44.5837 4.20702 -6.30712
vt 192.095 0.27634
f 246/301/1 249/304/1 248/303/1

f 249/304/1 246/301/1 244/300/1

f 244/300/1 235/132/1 249/304/1

f 249/304/1 235/132/1 248/303/1

f 248/303/1 235/132/1 247/302/1

v 44.5837 7.4 -16.1279
f 247/302/1 235/132/1 250/133/1

v 43.6458 4.50524 -16.1279
vt -313.467 12.0173
vt -350.394 125.984
f 235/292/2 251/305/2 250/306/2

f 251/305/2 235/292/2 234/291/2

v 42.1458 7.20524 -16.1279
vt -254.412 118.317
f 252/307/2 251/305/2 234/291/2

v 43.6458 7.20524 -16.1279
vt -313.467 118.317
f 251/305/2 252/307/2 253/308/2

f 252/307/2 236/83/2 253/308/2

f 234/291/2 236/83/2 252/307/2

f 250/306/2 253/308/2 236/83/2

f 250/306/2 251/305/2 253/308/2

vt 208.661 578.74
vt 350.394 293.307
vt 350.394 578.74
f 236/309/6 247/310/6 250/311/6

vt 208.661 364.173
f 238/312/6 247/310/6 236/309/6

v 40.9837 7.4 -8.8779
vt 208.661 293.307
f 247/310/6 238/312/6 254/313/6

f 238/312/6 239/297/6 254/313/6

vt 350.394 0
f 239/297/6 245/314/6 254/313/6

v 35.6837 7.4 -8.8779
f 255/296/6 245/314/6 239/297/6

v 35.6837 7.4 -1.4279
f 245/314/6 255/296/6 256/14/6

vt -293.307 125.984
f 255/315/7 242/14/7 256/18/7

vt -293.307 0
f 242/14/7 255/315/7 241/316/7

f 239/294/7 241/316/7 255/315/7

f 241/316/7 239/294/7 240/293/7

v 35.6855 4.21762 -1.4279
vt 0.0681535 0.693714
f 242/14/5 257/317/5 256/18/5

v 44.2155 4.21762 -1.4279
vt 335.895 0.693714
f 257/317/5 242/14/5 258/318/5

f 243/314/5 258/318/5 242/14/5

vt 350.394 125.984
f 258/318/5 243/314/5 245/319/5

v 44.2155 7.39762 -1.4279
vt 335.895 125.891
f 258/318/5 245/319/5 259/320/5

v 35.6855 7.39762 -1.4279
vt 0.0681535 125.891
f 259/320/5 245/319/5 260/321/5

f 256/18/5 260/321/5 245/319/5

f 256/18/5 257/317/5 260/321/5

f 257/317/5 259/320/5 260/321/5

f 259/320/5 257/317/5 258/318/5

f 254/313/6 245/314/6 247/310/6

g Mesh57 Group16 Model

l 235 233

l 235 250

l 243 235

l 242 243

l 242 256

l 241 242

l 255 241

l 255 256

l 239 255

l 240 239

l 237 240

l 237 238

l 233 237

l 233 236

l 250 236

l 247 250

l 247 254

l 245 247

l 243 245

l 256 245

l 238 254

l 236 238

l 238 239

l 240 241

g Mesh58 Group16 Model

l 252 253

l 234 252

l 251 234

l 253 251

g Mesh59 Group16 Model

l 259 258

l 260 259

l 257 260

l 258 257

g Mesh60 Group16 Model

l 248 246

l 249 248

l 244 249

l 246 244

g Mesh61 Group17 Model

v 24.3837 4.2 -13.1279
vt 460.63 2.84217e-14
v 24.3837 7.4 -1.4279
v 24.3837 4.2 -1.4279
vt 0 2.84217e-14
f 261/322/1 262/18/1 263/323/1

v 24.3837 7.4 -13.1279
vt 460.63 125.984
f 262/18/1 261/322/1 264/324/1

vt -779.528 2.84217e-14
v 11.1837 7.4 -13.1279
f 261/325/2 265/49/2 264/135/2

v 11.1837 4.2 -13.1279
vt -259.843 2.84217e-14
f 265/49/2 261/325/2 266/326/2

vt -259.843 460.63
vt -779.528 460.63
f 263/127/3 266/327/3 261/328/3

v 4.58374 4.2 -1.4279
f 266/327/3 263/127/3 267/14/3

vt 779.528 2.84217e-14
vn 5.55112e-17 -7.80816e-17 1
v 20.4837 4.21 -1.4279
vt 625.984 0.393701
f 263/329/29 268/330/29 267/323/29

f 268/330/29 263/329/29 262/118/29

v 20.4837 7.39 -1.4279
vt 625.984 125.591
f 268/330/29 262/118/29 269/331/29

v 8.48374 7.39 -1.4279
vt 153.543 125.591
f 269/331/29 262/118/29 270/332/29

f 83/18/29 270/332/29 262/118/29

v 8.48374 4.21 -1.4279
vt 153.543 0.393701
f 83/18/29 271/333/29 270/332/29

f 267/323/29 271/333/29 83/18/29

f 271/333/29 267/323/29 268/330/29

vn 0 -1.13679e-16 1
f 269/331/30 271/333/30 268/330/30

f 271/333/30 269/331/30 270/332/30

vn -1 3.99058e-17 5.55112e-17
v 4.58374 7.3 -2.52007
vt -42.9987 122.047
f 83/18/31 272/334/31 267/323/31

v 4.58374 7.4 -16.1279
f 272/334/31 83/18/31 273/129/31

v 11.1837 7.4 -16.1279
vt 259.843 578.74
vt -5.68434e-14 578.74
f 83/14/6 274/335/6 273/336/6

vt 259.843 460.63
f 274/335/6 83/14/6 265/337/6

v 14.4837 7.4 -1.4279
vt 389.764 1.42109e-14
f 275/338/6 265/337/6 83/14/6

vt 779.528 460.63
f 265/337/6 275/338/6 264/339/6

f 264/339/6 275/338/6 262/123/6

vt 389.764 125.984
f 83/18/29 262/118/29 275/340/29

vt 578.74 2.84217e-14
f 265/324/1 143/341/1 274/133/1

f 143/341/1 265/324/1 266/322/1

vt -259.843 578.74
f 267/14/3 143/342/3 266/327/3

v 4.58374 4.2 -16.1279
vt 5.68434e-14 578.74
f 143/342/3 267/14/3 276/343/3

v 4.58374 4.21 -2.52007
vt -42.9987 0.393701
vt -578.74 2.84217e-14
f 267/323/31 277/344/31 276/345/31

f 277/344/31 267/323/31 272/334/31

v 4.58374 6.3 -2.52007
vt -42.9987 82.6772
f 277/344/31 272/334/31 278/346/31

v 4.58374 7.3 -4.02007
vt -102.054 122.047
vn -1 3.85253e-17 -2.77556e-16
f 279/347/32 278/346/32 272/334/32

v 4.58374 6.3 -3.52007
vt -82.3688 82.6772
f 278/346/32 279/347/32 280/348/32

v 4.58374 4.21 -3.52007
vt -82.3688 0.393701
f 280/348/32 279/347/32 281/349/32

v 4.58374 4.21 -4.02007
vt -102.054 0.393701
f 281/349/32 279/347/32 282/350/32

v 4.58374 5.77567 -4.02007
vt -102.054 62.0341
f 282/350/32 279/347/32 283/351/32

v 4.58374 7.3 -5.52007
vt -161.109 122.047
f 284/352/7 283/351/7 279/347/7

v 4.58374 5.2 -4.02007
vt -102.054 39.3701
f 283/351/7 284/352/7 285/353/7

v 4.58374 5.2 -5.52007
vt -161.109 39.3701
f 285/353/7 284/352/7 286/354/7

v 4.58374 5.77567 -5.52007
vt -161.109 62.0341
f 286/354/7 284/352/7 287/355/7

v 4.58374 7.3 -10.5912
vt -360.762 122.047
f 284/352/31 288/356/31 287/355/31

f 284/352/31 273/129/31 288/356/31

f 279/347/31 273/129/31 284/352/31

f 272/334/31 273/129/31 279/347/31

v 4.58374 7.3 -13.5912
vt -478.872 122.047
f 288/356/31 273/129/31 289/357/31

v 4.58374 5.2 -13.5912
vt -478.872 39.3701
f 289/357/31 273/129/31 290/358/31

f 276/345/31 290/358/31 273/129/31

v 4.58374 5.2 -10.5912
vt -360.762 39.3701
f 276/345/31 291/359/31 290/358/31

f 276/345/31 286/354/31 291/359/31

f 276/345/31 282/350/31 286/354/31

f 276/345/31 281/349/31 282/350/31

f 276/345/31 277/344/31 281/349/31

vn -1 1.68596e-16 -6.10623e-16
f 277/344/33 280/348/33 281/349/33

f 280/348/33 277/344/33 278/346/33

f 286/354/31 282/350/31 285/353/31

f 282/350/32 283/351/32 285/353/32

f 291/359/31 286/354/31 288/356/31

f 287/355/31 288/356/31 286/354/31

f 289/357/7 291/359/7 288/356/7

f 291/359/7 289/357/7 290/358/7

vt 5.68434e-14 125.984
vt 5.68434e-14 2.84217e-14
f 273/360/2 143/326/2 276/361/2

v 6.372 6.73016 -16.1279
vt -70.4041 99.6124
f 143/326/2 273/360/2 292/362/2

v 6.372 7.33016 -16.1279
vt -70.4041 123.234
f 292/362/2 273/360/2 293/363/2

v 9.372 7.33016 -16.1279
vt -188.514 123.234
f 293/363/2 273/360/2 294/364/2

f 274/49/2 294/364/2 273/360/2

v 9.372 6.73016 -16.1279
vt -188.514 99.6124
f 274/49/2 295/365/2 294/364/2

f 143/326/2 295/365/2 274/49/2

f 295/365/2 143/326/2 292/362/2

f 293/363/2 295/365/2 292/362/2

f 295/365/2 293/363/2 294/364/2

g Mesh62 Group17 Model

l 263 261

l 263 262

l 267 263

l 276 267

l 276 143

l 276 273

l 273 274

l 273 83

l 83 275

l 267 83

l 275 262

l 262 264

l 261 264

l 266 261

l 266 265

l 143 266

l 143 274

l 274 265

l 265 264

g Mesh63 Group17 Model

l 295 294

l 292 295

l 293 292

l 294 293

g Mesh64 Group17 Model

l 291 290

l 288 291

l 289 288

l 290 289

g Mesh65 Group17 Model

l 284 279

l 287 284

l 286 287

l 286 285

l 285 282

l 283 285

l 279 283

l 279 272

l 272 278

l 280 278

l 281 280

l 282 281

l 281 277

l 278 277

g Mesh66 Group17 Model

l 270 271

l 270 269

l 269 268

l 271 268

g Mesh67 Group18 Model

v 47.0899 10.2611 -1.4279
vt 240.401 112.641
v 45.8199 8.26109 -1.4279
vt 190.401 33.9012
v 47.0899 8.26109 -1.4279
vt 240.401 33.9012
f 296/366/5 297/367/5 298/368/5

v 45.8199 10.2611 -1.4279
vt 190.401 112.641
f 297/367/5 296/366/5 299/369/5

vn 2.08167e-15 1.06159e-14 1
v 47.5837 10.6 -1.4279
f 296/366/34 300/53/34 299/369/34

f 298/368/34 300/53/34 296/366/34

v 47.5837 7.4 -1.4279
vt 259.843 5.24903e-26
f 298/368/34 301/370/34 300/53/34

v 44.2237 7.41 -1.4279
vt 127.559 0.393701
f 302/371/34 301/370/34 298/368/34

v 40.9837 7.4 -1.4279
vt 2.27374e-13 5.79308e-26
f 301/370/34 302/371/34 303/372/34

v 40.9937 7.41 -1.4279
vt 0.393701 0.393701
f 303/372/34 302/371/34 304/373/34

vn -3.5888e-14 -7.50012e-15 1
v 40.9937 10.49 -1.4279
vt 0.393701 121.654
f 302/371/35 305/374/35 304/373/35

v 44.2237 10.49 -1.4279
vt 127.559 121.654
f 305/374/35 302/371/35 306/375/35

f 302/371/34 297/367/34 306/375/34

f 297/367/34 302/371/34 298/368/34

f 306/375/34 297/367/34 299/369/34

f 299/369/34 300/53/34 306/375/34

f 306/375/34 300/53/34 305/374/34

v 40.9837 10.6 -1.4279
vt 2.27374e-13 125.984
f 307/376/34 305/374/34 300/53/34

f 307/376/34 304/373/34 305/374/34

f 304/373/34 307/376/34 303/372/34

v 40.9837 10.6 -8.0279
vt -5.45697e-12 0
vt -5.45697e-12 125.984
f 308/49/7 303/377/7 307/378/7

v 40.9837 7.4 -8.0279
vt -259.843 1.81899e-12
f 303/377/7 308/49/7 309/379/7

v 40.9837 10.6 -8.8779
f 310/315/7 309/379/7 308/49/7

v 40.9837 7.4 -8.8779
f 309/379/7 310/315/7 311/316/7

vt -2.27374e-13 125.984
v 47.5837 7.4 -8.8779
vt -2.27374e-13 0
f 310/380/2 312/45/2 311/381/2

v 47.5837 10.6 -8.8779
f 312/45/2 310/380/2 313/49/2

vt 2.27374e-13 293.307
vt 259.843 5.48539e-12
vt 259.843 293.307
f 310/382/6 300/383/6 313/384/6

vt 2.27374e-13 259.843
f 308/385/6 300/383/6 310/382/6

vt 2.27374e-13 5.45697e-12
f 300/383/6 308/385/6 307/386/6

vt 5.48539e-12 125.984
v 47.5837 10.2052 -3.69971
vt 89.4413 110.44
f 300/387/1 314/388/1 313/302/1

v 47.5837 8.10518 -3.69971
vt 89.4413 27.7631
f 314/388/1 300/387/1 315/389/1

vt 5.48539e-12 0
f 301/390/1 315/389/1 300/387/1

vt 293.307 0
f 315/389/1 301/390/1 312/391/1

vt -2.27374e-13 5.45697e-12
vt -259.843 293.307
vt -259.843 5.48539e-12
f 303/392/3 312/393/3 301/394/3

vt -2.27374e-13 259.843
f 309/395/3 312/393/3 303/392/3

vt -2.27374e-13 293.307
f 312/393/3 309/395/3 311/396/3

v 47.5837 8.10518 -6.69971
vt 207.552 27.7631
f 315/389/1 312/391/1 316/397/1

v 47.5837 10.2052 -6.69971
vt 207.552 110.44
f 316/397/1 312/391/1 317/398/1

f 313/302/1 317/398/1 312/391/1

f 313/302/1 314/388/1 317/398/1

f 314/388/1 316/397/1 317/398/1

f 316/397/1 314/388/1 315/389/1

g Mesh68 Group18 Model

l 315 314

l 316 315

l 317 316

l 314 317

g Mesh69 Group18 Model

l 312 311

l 301 312

l 303 301

l 303 307

l 303 309

l 309 311

l 308 309

l 307 308

l 307 300

l 300 313

l 301 300

l 313 310

l 312 313

l 311 310

l 308 310

g Mesh70 Group18 Model

l 298 296

l 297 298

l 299 297

l 296 299

g Mesh71 Group18 Model

l 306 305

l 302 306

l 304 302

l 305 304

g Mesh72 Group19 Model

v 32.7261 7.32864 -16.1279
vt -9.54387 123.175
v 33.7261 4.62864 -16.1279
vt -48.914 16.8757
v 32.7261 4.62864 -16.1279
vt -9.54387 16.8757
f 318/399/2 319/400/2 320/401/2

v 33.7261 7.32864 -16.1279
vt -48.914 123.175
f 319/400/2 318/399/2 321/402/2

v 32.4837 7.4 -16.1279
f 318/399/2 322/18/2 321/402/2

f 320/401/2 322/18/2 318/399/2

v 32.4837 4.2 -16.1279
f 320/401/2 323/14/2 322/18/2

v 35.6837 4.2 -16.1279
vt -125.984 0
f 323/14/2 320/401/2 324/403/2

f 319/400/2 324/403/2 320/401/2

v 35.6837 7.4 -16.1279
vt -125.984 125.984
f 324/403/2 319/400/2 325/404/2

f 325/404/2 319/400/2 321/402/2

f 325/404/2 321/402/2 322/18/2

v 35.6837 7.4 -10.6779
vt 125.984 0
vt 125.984 214.567
f 322/60/6 326/405/6 325/406/6

v 32.4837 7.4 -10.6779
f 326/405/6 322/60/6 327/14/6

v 32.4837 4.2 -10.6779
f 322/64/7 328/14/7 327/18/7

f 328/14/7 322/64/7 323/65/7

vt -125.984 214.567
f 324/407/3 328/14/3 323/60/3

v 35.6837 4.2 -10.6779
f 328/14/3 324/407/3 329/403/3

f 324/3/1 326/18/1 329/14/1

f 326/18/1 324/3/1 325/2/1

vt 125.984 125.984
f 326/408/5 328/14/5 329/405/5

f 328/14/5 326/408/5 327/18/5

g Mesh73 Group19 Model

l 319 321

l 320 319

l 318 320

l 321 318

g Mesh74 Group19 Model

l 328 329

l 328 327

l 323 328

l 323 324

l 323 322

l 322 325

l 322 327

l 327 326

l 329 326

l 324 329

l 324 325

l 325 326

g Mesh75 Group20 Model

v -4.17947 0 3.19365
vt 114.786 0
vn 0.979575 0 -0.201078
v -3.74575 6.4 5.30659
vt 29.8652 251.969
v -3.74575 0 5.30659
vt 29.8652 0
f 330/409/36 331/410/36 332/411/36

v -4.17947 6.4 3.19365
vt 114.786 251.969
f 331/410/36 330/409/36 333/412/36

vt 322.721 0
vn 0.201078 0 0.979575
v -2.0724 6.4 2.76113
vt 407.406 251.969
vt 322.721 251.969
f 330/413/37 334/414/37 333/415/37

v -2.0724 0 2.76113
vt 407.406 0
f 334/414/37 330/413/37 335/416/37

vt -322.721 114.786
v -3.10835 0 -3.89474
vt -420.144 379.677
vt -407.406 114.786
f 330/417/3 336/418/3 335/419/3

v -8.78381 0 6.34076
vt -120.236 29.8652
f 337/420/3 336/418/3 330/417/3

v -11.6229 0 7.69793
f 338/14/3 336/418/3 337/420/3

v -13.6652 0 -2.25162
vt 0 399.882
f 336/418/3 338/14/3 339/421/3

vn -0.979575 0 0.201078
v -13.6652 6.4 -2.25162
vt -399.882 251.969
vt -399.882 0
f 338/14/38 340/422/38 339/423/38

v -11.6229 6.4 7.69793
vt 0 251.969
f 340/422/38 338/14/38 341/424/38

v -8.63127 6.4 7.08384
vt 120.236 251.969
f 338/14/37 342/425/37 341/424/37

v -8.63127 0 7.08384
vt 120.236 0
f 342/425/37 338/14/37 343/426/37

vt -120.236 0
f 343/427/3 338/14/3 337/420/3

f 337/411/36 342/424/36 343/14/36

v -8.78381 6.4 6.34076
f 342/424/36 337/411/36 344/410/36

f 337/426/37 331/415/37 344/425/37

f 331/415/37 337/426/37 332/413/37

vt -322.721 29.8652
f 332/428/3 337/420/3 330/417/3

vt 322.721 114.786
vt 120.236 29.8652
vt 322.721 29.8652
f 333/429/6 344/430/6 331/431/6

v -3.10835 6.4 -3.89474
vt 420.144 379.677
f 345/432/6 344/430/6 333/429/6

f 340/421/6 344/430/6 345/432/6

f 340/421/6 342/426/6 344/430/6

f 342/426/6 340/421/6 341/14/6

vt -401.422 0
vn -0.153793 0 -0.988103
vt 19.2081 251.969
vt -401.422 251.969
f 336/433/39 340/434/39 345/435/39

vt 19.2081 0
f 340/434/39 336/433/39 339/436/39

vt 134.223 251.969
vn 0.988103 0 -0.153793
vt 399.42 0
vt 399.42 251.969
f 334/437/40 336/438/40 345/439/40

vt 134.223 0
f 336/438/40 334/437/40 335/440/40

vt 407.406 114.786
f 345/432/6 333/429/6 334/441/6

g Mesh76 Group20 Model

l 333 331

l 330 333

l 330 332

l 335 330

l 335 334

l 336 335

l 339 336

l 339 338

l 339 340

l 340 341

l 340 345

l 345 334

l 336 345

l 334 333

l 338 341

l 338 343

l 343 337

l 343 342

l 341 342

l 342 344

l 344 331

l 337 344

l 337 332

l 332 331

g Mesh77 Group21 Model

v 40.9837 7.4 -10.6779
vt -653.543 104.331
vt -653.543 33.4646
v 27.6837 7.4 -10.6779
vt -129.921 104.331
f 346/442/3 311/443/3 347/444/3

v 40.9837 7.47932 -8.97758
vt 37.3892 3.12295
vn 1 4.92203e-32 6.41699e-15
vt 33.4646 -1.81899e-12
vt 104.331 -3.21676e-29
f 348/445/41 311/446/41 346/447/41

vt 33.4646 125.984
f 311/446/41 348/445/41 310/448/41

v 40.9837 9.57932 -8.97758
vt 37.3892 85.8001
f 349/449/41 310/448/41 348/445/41

v 40.9837 10.6 -10.6779
vt 104.331 125.984
f 310/448/41 349/449/41 350/450/41

v 40.9837 9.57932 -9.87758
vt 72.8222 85.8001
f 350/450/41 349/449/41 351/451/41

v 40.9837 7.47932 -9.87758
vt 72.8222 3.12295
f 349/449/1 352/452/1 351/451/1

f 352/452/1 349/449/1 348/445/1

f 348/445/41 346/447/41 352/452/41

f 352/452/41 346/447/41 351/451/41

f 350/450/41 351/451/41 346/447/41

vt -653.543 0
v 39.566 8.05839 -10.6779
vt -597.726 25.9209
vt -653.543 125.984
f 346/453/2 353/454/2 350/455/2

v 36.566 8.05839 -10.6779
vt -479.616 25.9209
f 353/454/2 346/453/2 354/456/2

f 347/8/2 354/456/2 346/453/2

f 354/456/2 347/8/2 181/6/2

v 27.6837 7.4 -16.1279
vt 104.331 0
f 355/180/1 181/450/1 347/457/1

v 27.6837 10.6 -16.1279
vt 318.898 125.984
f 181/450/1 355/180/1 356/458/1

vt -129.921 -1.22479e-15
vn -7.21645e-16 3.8407e-18 -1
v 26.6237 7.41 -16.1279
f 355/459/42 357/258/42 356/6/42

v 25.4437 7.41 -16.1279
f 357/258/42 355/459/42 358/243/42

v 24.3837 7.4 -16.1279
vt -1.16444e-13 -1.22479e-15
f 359/460/42 358/243/42 355/459/42

v 24.3837 10.6 -16.1279
vt -1.16444e-13 125.984
f 358/243/42 359/460/42 360/461/42

v 24.3837 7.4 -8.0279
vt -318.898 125.984
f 361/14/7 360/462/7 359/186/7

v 24.3837 10.6 -8.0279
f 360/462/7 361/14/7 362/18/7

vt 653.543 125.984
f 361/14/5 308/463/5 362/18/5

vt 653.543 0
f 308/463/5 361/14/5 309/464/5

vt -653.543 -5.68434e-14
f 361/14/3 347/444/3 309/465/3

vt -129.921 318.898
f 361/14/3 355/466/3 347/444/3

vt 1.13687e-13 318.898
f 355/466/3 361/14/3 359/467/3

f 309/465/3 347/444/3 311/443/3

f 311/446/1 308/226/1 309/227/1

f 308/226/1 311/446/1 310/448/1

vt 129.921 104.331
vt 653.543 -5.68434e-14
vt 653.543 33.4646
f 181/468/6 308/469/6 310/470/6

f 308/469/6 181/468/6 362/14/6

vt 129.921 318.898
f 356/471/6 362/14/6 181/468/6

vt -1.13687e-13 318.898
f 362/14/6 356/471/6 360/472/6

v 26.6237 10.59 -16.1279
vt -88.189 125.591
f 356/6/42 363/473/42 360/461/42

f 356/6/42 357/258/42 363/473/42

vn -1.55431e-15 0 -1
v 25.4437 10.59 -16.1279
vt -41.7323 125.591
f 357/258/43 364/474/43 363/473/43

f 364/474/43 357/258/43 358/243/43

f 358/243/42 360/461/42 364/474/42

f 364/474/42 360/461/42 363/473/42

vt 653.543 104.331
f 181/468/6 310/470/6 350/475/6

v 39.566 10.1584 -10.6779
vt -597.726 108.598
f 350/455/2 365/476/2 181/6/2

f 350/455/2 353/454/2 365/476/2

v 36.566 10.1584 -10.6779
vt -479.616 108.598
f 353/454/2 366/477/2 365/476/2

f 366/477/2 353/454/2 354/456/2

f 354/456/2 181/6/2 366/477/2

f 366/477/2 181/6/2 365/476/2

g Mesh78 Group21 Model

l 355 347

l 359 355

l 359 361

l 359 360

l 360 356

l 360 362

l 362 308

l 361 362

l 309 361

l 309 311

l 309 308

l 308 310

l 310 350

l 311 310

l 311 346

l 346 347

l 346 350

l 350 181

l 347 181

l 356 181

l 355 356

g Mesh79 Group21 Model

l 353 365

l 354 353

l 366 354

l 365 366

g Mesh80 Group21 Model

l 351 349

l 352 351

l 348 352

l 349 348

g Mesh81 Group21 Model

l 358 364

l 357 358

l 363 357

l 364 363

g Mesh82 Group22 Model

v 27.6837 6.41186e-31 -16.1279
v 24.3837 6.41186e-31 -8.0279
v 24.3837 6.41186e-31 -16.1279
f 367/466/3 368/14/3 369/467/3

v 27.6837 6.41186e-31 -8.0279
f 368/14/3 367/466/3 370/8/3

v 27.6837 4.2 -8.0279
f 367/180/1 371/179/1 370/14/1

v 27.6837 4.2 -16.1279
f 371/179/1 367/180/1 372/181/1

v 24.3837 4.2 -16.1279
vt 1.13687e-13 165.354
vt -129.921 165.354
f 367/8/2 373/478/2 372/479/2

vt 1.13687e-13 0
f 373/478/2 367/8/2 369/480/2

f 368/14/7 373/185/7 369/186/7

v 24.3837 4.2 -8.0279
f 373/185/7 368/14/7 374/179/7

vt 129.921 165.354
f 368/14/5 371/481/5 374/179/5

f 371/481/5 368/14/5 370/19/5

f 372/471/6 374/14/6 371/19/6

f 374/14/6 372/471/6 373/472/6

g Mesh83 Group22 Model

l 368 370

l 369 368

l 369 367

l 369 373

l 373 374

l 373 372

l 367 372

l 367 370

l 370 371

l 374 371

l 368 374

l 372 371

g Mesh84 Group23 Model

v 35.6752 7.39221 -1.4279
vt 314.623 125.677
v 32.2352 4.21221 -1.4279
vt 179.19 0.480514
v 35.6752 4.21221 -1.4279
vt 314.623 0.480514
f 375/482/5 376/483/5 377/484/5

v 32.2352 7.39221 -1.4279
vt 179.19 125.677
f 376/483/5 375/482/5 378/485/5

v 35.6837 7.4 -1.4279
vt 314.961 125.984
f 375/482/5 379/486/5 378/485/5

f 377/484/5 379/486/5 375/482/5

v 35.6837 4.2 -1.4279
vt 314.961 0
f 377/484/5 380/487/5 379/486/5

v 27.6837 4.2 -1.4279
f 380/487/5 377/484/5 381/14/5

f 376/483/5 381/14/5 377/484/5

v 27.6837 7.4 -1.4279
f 381/14/5 376/483/5 382/18/5

f 382/18/5 376/483/5 378/485/5

f 382/18/5 378/485/5 379/486/5

v 27.6837 7.4 -3.4279
vt 2.95586e-12 78.7402
f 379/487/6 383/488/6 382/14/6

v 35.6837 7.4 -8.8779
vt 314.961 293.307
f 384/489/6 383/488/6 379/487/6

v 27.6837 7.4 -8.8779
f 383/488/6 384/489/6 385/296/6

v 35.6837 4.2 -8.8779
vt -314.961 0
vt -314.961 125.984
f 386/490/2 385/18/2 384/491/2

v 27.6837 4.2 -8.8779
f 385/18/2 386/490/2 387/14/2

vt -314.961 293.307
vt -2.95586e-12 78.7402
f 386/492/3 8/493/3 387/296/3

f 380/490/3 8/493/3 386/492/3

f 8/493/3 380/490/3 381/14/3

vn -1 -8.82057e-31 -3.75394e-14
vt -78.7402 125.984
vt -78.7402 -1.36424e-12
f 381/14/44 383/494/44 8/495/44

f 383/494/44 381/14/44 382/18/44

vn -1 -1.0202e-30 1.37759e-14
f 385/315/45 8/495/45 383/494/45

vt -293.307 -4.12219e-42
f 8/495/45 385/315/45 387/496/45

f 386/391/1 379/18/1 380/14/1

f 379/18/1 386/391/1 384/302/1

g Mesh85 Group23 Model

l 380 386

l 381 380

l 381 382

l 8 381

l 387 8

l 386 387

l 386 384

l 384 385

l 379 384

l 380 379

l 382 379

l 383 382

l 385 383

l 387 385

l 8 383

g Mesh86 Group23 Model

l 377 375

l 376 377

l 378 376

l 375 378

